<svg xmlns="http://www.w3.org/2000/svg" data-name="Layer 1" viewBox="0 0 32 40" x="0px" y="0px"><title>Menu</title><path d="M26,8H6a1,1,0,0,0,0,2H26a1,1,0,0,0,0-2ZM6,17H20a1,1,0,0,0,0-2H6a1,1,0,0,0,0,2Zm17,5H6a1,1,0,0,0,0,2H23a1,1,0,0,0,0-2Z"/><text x="0" y="47" fill="#000000" font-size="5px" font-weight="bold" font-family="'Helvetica Neue', Helvetica, Arial-Unicode, Arial, Sans-serif">Created by Rodolfo Alvarez</text><text x="0" y="52" fill="#000000" font-size="5px" font-weight="bold" font-family="'Helvetica Neue', Helvetica, Arial-Unicode, Arial, Sans-serif">from the Noun Project</text></svg>