<?xml version="1.0" encoding="UTF-8" standalone="no"?>
<!-- Created with Inkscape (http://www.inkscape.org/) -->

<svg
   width="2308"
   height="2716"
   viewBox="0 0 610.65834 718.60833"
   version="1.1"
   id="svg5"
   sodipodi:docname="kresba.svg"
   inkscape:version="1.1.1 (3bf5ae0d25, 2021-09-20)"
   xmlns:inkscape="http://www.inkscape.org/namespaces/inkscape"
   xmlns:sodipodi="http://sodipodi.sourceforge.net/DTD/sodipodi-0.dtd"
   xmlns="http://www.w3.org/2000/svg"
   xmlns:svg="http://www.w3.org/2000/svg">
  <sodipodi:namedview
     id="namedview7"
     pagecolor="#ffffff"
     bordercolor="#666666"
     borderopacity="1.0"
     inkscape:pageshadow="2"
     inkscape:pageopacity="0"
     inkscape:pagecheckerboard="true"
     inkscape:document-units="px"
     showgrid="false"
     inkscape:zoom="0.29413514"
     inkscape:cx="1784.8938"
     inkscape:cy="1091.3351"
     inkscape:window-width="2400"
     inkscape:window-height="1284"
     inkscape:window-x="-9"
     inkscape:window-y="-9"
     inkscape:window-maximized="1"
     inkscape:current-layer="layer1"
     fit-margin-top="0"
     fit-margin-left="0"
     fit-margin-right="0"
     fit-margin-bottom="0"
     inkscape:snap-global="false"
     units="px"
     width="800px" />
  <defs
     id="defs2">
    <inkscape:path-effect
       effect="bspline"
       id="path-effect6105"
       is_visible="true"
       lpeversion="1"
       weight="33.333333"
       steps="2"
       helper_size="0"
       apply_no_weight="true"
       apply_with_weight="true"
       only_selected="false" />
    <inkscape:path-effect
       effect="bspline"
       id="path-effect5414"
       is_visible="true"
       lpeversion="1"
       weight="33.333333"
       steps="2"
       helper_size="0"
       apply_no_weight="true"
       apply_with_weight="true"
       only_selected="false" />
  </defs>
  <g
     inkscape:label="Vrstva 1"
     inkscape:groupmode="layer"
     id="layer1"
     transform="translate(722.9408,453.8754)">
    <path
       style="fill:#ffffff;stroke:#000000;stroke-width:0.264583px;stroke-linecap:butt;stroke-linejoin:miter;stroke-opacity:1"
       d="m -704.32905,-292.93749 c 0.3941,-4.05929 1.18234,-12.17811 3.24162,-21.36118 2.05928,-9.18307 5.38951,-19.42991 9.29133,-27.30253 3.90182,-7.87262 8.37495,-13.37044 12.9862,-17.99153 4.61126,-4.6211 9.36028,-8.36514 16.85854,-11.42943 7.49826,-3.06429 17.74511,-5.44866 31.48028,-7.75426 13.73518,-2.3056 30.95776,-4.53232 45.70773,-6.18761 14.74996,-1.6553 27.02647,-2.7391 38.09142,-3.46822 11.06495,-0.72911 20.91768,-1.10352 38.89955,-1.25131 17.98187,-0.14778 44.09162,-0.069 66.49737,0.0394 22.40575,0.10839 41.10624,0.24633 57.92537,1.3696 16.81912,1.12328 31.75586,3.23176 45.82598,5.43885 14.07012,2.20708 27.2728,4.51263 38.74171,7.14341 11.46892,2.63078 21.20341,5.5866 29.79524,8.59179 8.59184,3.00519 16.04052,6.05954 21.12465,8.30605 5.08414,2.2465 7.80348,3.68499 10.84808,5.40929 3.04459,1.7243 6.41423,3.73425 11.23235,7.83317 4.81812,4.09891 11.08445,10.28644 16.4346,17.07521 5.35015,6.78877 9.78387,14.17832 14.18816,22.76033 4.40428,8.582 8.7789,18.3559 13.49849,30.25839 4.7196,11.90248 9.7839,25.93278 13.44919,37.80565 3.66529,11.87288 5.93142,21.58768 8.68042,34.20943 2.749,12.62176 5.9807,28.14967 8.49321,41.21477 2.51251,13.0651 4.3057,23.66664 6.02997,36.16029 1.72427,12.49366 3.37954,26.878633 4.97572,42.840559 1.59619,15.961926 3.13321,33.499808 4.00026,47.806362 0.86705,14.306554 1.0641,25.381034 1.01483,40.0029627 -0.0493,14.6219293 -0.34485,32.7903633 -1.13312,46.8407263 -0.78826,14.050363 -2.06912,23.98192 -4.63093,32.228814 -2.56181,8.246893 -6.40438,14.808824 -14.87797,22.494136 -8.47359,7.68531 -21.57774,16.49367 -31.91353,23.0065 -10.33578,6.51283 -17.90268,10.72979 -25.30228,14.51335 -7.39961,3.78355 -14.63152,7.13348 -29.02687,13.63651 -14.39535,6.50303 -35.95314,16.15871 -57.29477,24.30715 -21.34164,8.14844 -42.46589,14.78919 -60.92059,20.59262 -18.4547,5.80343 -34.23879,10.76921 -52.20088,15.82382 -17.96209,5.0546 -38.10108,10.19773 -59.54128,15.21292 -21.44019,5.01519 -44.1803,9.90215 -59.7086,12.85805 -15.52829,2.9559 -23.844,3.98058 -33.1157,4.8575 -9.2717,0.87692 -19.49884,1.60602 -29.6573,1.64544 -10.15845,0.0394 -20.24765,-0.61086 -27.51914,-1.93111 -7.27149,-1.32025 -11.72492,-3.3105 -15.78437,-5.38947 -4.05945,-2.07897 -7.72467,-4.24657 -11.27181,-7.66552 -3.54713,-3.41895 -6.9759,-8.08916 -10.90727,-14.02069 -3.93138,-5.93153 -8.3651,-13.12402 -11.34077,-20.50394 -2.97566,-7.37992 -4.49299,-14.94684 -6.04977,-23.13471 -1.55678,-8.18788 -3.15292,-16.99621 -4.39441,-25.17423 -1.24149,-8.17802 -2.12823,-15.72521 -2.63075,-23.27265 -0.50251,-7.54744 -0.62075,-15.09463 -0.68972,-22.90808 -0.069,-7.81345 -0.0887,-15.892711 -0.0591,-25.125003 0.0296,-9.232292 0.10838,-19.617082 0.37441,-29.470118 0.26603,-9.853036 0.71926,-19.173725 1.09368,-28.90851 0.37441,-9.734785 0.67,-19.8831172 0.64044,-31.312633 -0.0296,-11.429516 -0.38426,-24.139544 -1.02469,-35.17491 -0.64044,-11.035366 -1.5666,-20.395476 -3.21205,-32.672376 -1.64546,-12.276899 -4.01011,-27.46981 -6.33543,-43.36276 -2.32532,-15.89295 -4.61115,-32.48495 -6.24675,-45.64857 -1.6356,-13.16362 -2.62088,-22.89811 -3.50766,-34.25868 -0.88678,-11.36058 -1.675,-24.34648 -2.03956,-35.57892 -0.36457,-11.23245 -0.30545,-20.71078 -0.14781,-29.74601 0.15765,-9.03523 0.41382,-17.62681 0.54191,-21.92281 0.12809,-4.29601 0.12807,-4.29601 0.52218,-8.3553 z"
       id="path6103"
       inkscape:path-effect="#path-effect6105"
       inkscape:original-d="m -704.72316,-288.8782 c 0.7885,-8.11855 1.57674,-16.23737 2.36471,-24.35645 3.33062,-10.24699 6.66084,-20.49383 9.99087,-30.74115 4.47359,-5.49778 8.94673,-10.9956 13.41969,-16.49381 4.74948,-3.74392 9.4985,-7.48796 14.24734,-11.23234 10.24752,-2.38419 20.49437,-4.76855 30.74115,-7.15323 17.22354,-2.22654 34.44612,-4.45326 51.66878,-6.68029 12.27726,-1.08357 24.55377,-2.16737 36.83026,-3.25146 9.85339,-0.37416 19.70612,-0.74856 29.55879,-1.12324 26.11106,0.0791 52.22081,0.15792 78.33082,0.23647 18.70149,0.13821 37.40198,0.27615 56.10259,0.41383 14.93761,2.10883 29.87435,4.21732 44.81113,6.32558 13.20345,2.3059 26.40613,4.61144 39.60879,6.91676 9.73516,2.9562 19.46965,5.91202 29.2041,8.86764 7.44921,3.05473 14.89789,6.10908 22.34644,9.16322 2.71973,1.43882 5.43907,2.87732 8.15822,4.31559 3.37005,2.0103 6.73968,4.02026 10.10912,6.02999 6.26684,6.18803 12.53318,12.37555 18.79938,18.56293 4.43418,7.39011 8.86791,14.77966 13.30145,22.16909 4.37508,9.77457 8.74967,19.54848 13.12413,29.32233 5.06476,14.03112 10.12907,28.06141 15.1932,42.09172 2.2665,9.71545 4.53263,19.43025 6.79854,29.14498 3.23208,15.52879 6.46378,31.0567 9.69529,46.58465 1.79353,10.60225 3.58672,21.20379 5.37969,31.80527 1.65558,14.38585 3.31084,28.770818 4.96589,43.155843 1.53733,17.538833 3.07438,35.076712 4.61116,52.614645 0.19732,11.075193 0.39439,22.149672 0.59118,33.2240988 -0.29533,18.1694402 -0.59092,36.3378742 -0.88677,54.5064152 -1.28064,9.93222 -2.56149,19.863778 -3.84265,29.795258 -3.84244,6.56246 -7.68501,13.124391 -11.52793,19.68616 -13.10439,8.80896 -26.20854,17.61731 -39.31319,26.42558 -7.56695,4.21741 -15.13385,8.43436 -22.70114,12.65116 -7.23194,3.35034 -14.46385,6.70025 -21.69618,10.04999 -21.55838,9.65633 -43.11616,19.31201 -64.67464,28.96761 -21.12484,6.64128 -42.24909,13.28203 -63.37406,19.92265 -15.78443,4.96623 -31.56852,9.93201 -47.35319,14.89763 -20.13953,5.14358 -40.27852,10.28671 -60.41817,15.42968 -22.74076,4.88741 -45.48087,9.77437 -68.2217,14.66117 -8.31578,1.02499 -16.63149,2.04967 -24.94763,3.07411 -10.22728,0.72941 -20.45442,1.45849 -30.68203,2.18734 -10.08934,-0.65003 -20.17854,-1.30032 -30.26821,-1.95088 -4.45335,-1.99006 -8.90678,-3.98031 -13.36057,-5.97088 -3.6651,-2.16741 -7.33032,-4.33501 -10.99588,-6.50293 -3.42862,-4.6701 -6.85737,-9.34032 -10.28646,-14.01085 -4.43364,-7.19254 -8.86737,-14.38502 -13.30145,-21.57793 -1.51712,-7.56693 -3.03444,-15.13385 -4.55206,-22.70115 -1.59594,-8.80845 -3.19208,-17.61678 -4.78852,-26.42557 -0.88652,-7.54724 -1.77327,-15.09443 -2.66029,-22.64204 -0.11798,-7.54724 -0.23621,-15.09443 -0.35471,-22.64204 -0.0195,-8.07929 -0.0392,-16.158551 -0.0591,-24.238211 0.0791,-10.384922 0.15791,-20.769712 0.23647,-31.154978 0.45351,-9.320795 0.90674,-18.641483 1.35971,-27.962622 0.29586,-10.148437 0.59144,-20.2967692 0.88676,-30.4455507 -0.35445,-12.7102653 -0.70915,-25.4202933 -1.06412,-38.1308503 -0.92593,-9.360191 -1.85208,-18.720302 -2.77852,-28.080837 -2.36449,-15.193274 -4.72915,-30.386181 -7.09411,-45.579661 -2.28566,-16.59242 -4.5715,-33.18442 -6.85764,-49.77702 -0.98505,-9.73463 -1.97033,-19.46912 -2.95588,-29.2041 -0.78799,-12.98616 -1.57621,-25.97206 -2.36471,-38.95849 0.0594,-9.47845 0.1185,-18.95678 0.17736,-28.43556 0.25644,-8.59167 0.51261,-17.18325 0.76852,-25.77527 z" />
  </g>
</svg>
