<?xml version="1.0" encoding="UTF-8" standalone="no"?>
<!-- Created with Inkscape (http://www.inkscape.org/) -->

<svg
   width="39.876308"
   height="38.178307"
   viewBox="0 0 10.550606 10.101344"
   version="1.1"
   id="svg5"
   inkscape:version="1.1.1 (3bf5ae0d25, 2021-09-20)"
   sodipodi:docname="f-mask1.svg"
   xmlns:inkscape="http://www.inkscape.org/namespaces/inkscape"
   xmlns:sodipodi="http://sodipodi.sourceforge.net/DTD/sodipodi-0.dtd"
   xmlns="http://www.w3.org/2000/svg"
   xmlns:svg="http://www.w3.org/2000/svg"
   xmlns:serif="http://www.serif.com/">
  <sodipodi:namedview
     id="namedview7"
     pagecolor="#ffffff"
     bordercolor="#666666"
     borderopacity="1.0"
     inkscape:pageshadow="2"
     inkscape:pageopacity="0.0"
     inkscape:pagecheckerboard="0"
     inkscape:document-units="mm"
     showgrid="false"
     units="px"
     inkscape:zoom="9.3510178"
     inkscape:cx="17.431258"
     inkscape:cy="41.171989"
     inkscape:window-width="2400"
     inkscape:window-height="1284"
     inkscape:window-x="-9"
     inkscape:window-y="-9"
     inkscape:window-maximized="1"
     inkscape:current-layer="layer1"
     fit-margin-top="0"
     fit-margin-left="0"
     fit-margin-right="0"
     fit-margin-bottom="0" />
  <defs
     id="defs2">
    <style
       type="text/css"
       id="style11537">
   
    .fil0 {fill:black}
   
  </style>
    <style
       type="text/css"
       id="style12053">
   
    .fil0 {fill:black}
   
  </style>
    <style
       type="text/css"
       id="style14288">
   
    .fil0 {fill:black;fill-rule:nonzero}
   
  </style>
  </defs>
  <g
     inkscape:label="Vrstva 1"
     inkscape:groupmode="layer"
     id="layer1"
     transform="translate(-24.202711,-91.856047)">
    <g
       id="g2704"
       transform="matrix(0.26576685,0,0,0.27261243,216.50813,70.181806)">
      <g
         id="g2687"
         transform="matrix(0.61470255,0,0,0.64407971,-252.62667,-106.86625)"
         style="fill:#ffffff">
        <path
           fill-rule="evenodd"
           clip-rule="evenodd"
           d="M 91.839,49.994 C 85.602,43.76 83.146,37.223 73.349,37.223 c -0.432,0 -0.853,0.016 -1.285,0.033 0.229,-0.356 0.451,-0.724 0.665,-1.092 4.899,-8.492 0.448,-13.954 -1.812,-22.398 -8.52,2.281 -15.405,1.14 -20.303,9.628 -0.217,0.37 -0.423,0.748 -0.615,1.126 -0.2,-0.378 -0.401,-0.752 -0.616,-1.124 -4.903,-8.488 -11.855,-7.365 -20.303,-9.627 -2.283,8.519 -6.715,13.912 -1.808,22.398 0.21,0.372 0.432,0.735 0.661,1.094 -0.425,-0.018 -0.848,-0.027 -1.277,-0.027 -9.805,0 -12.307,6.586 -18.493,12.769 6.237,6.234 8.688,12.769 18.493,12.769 0.429,0 0.857,-0.012 1.285,-0.03 -0.229,0.358 -0.456,0.723 -0.669,1.091 -4.903,8.492 -0.448,13.954 1.816,22.399 8.52,-2.28 15.399,-1.141 20.302,-9.626 0.211,-0.375 0.422,-0.752 0.616,-1.13 0.191,0.378 0.398,0.753 0.612,1.124 4.899,8.487 11.86,7.365 20.302,9.629 2.287,-8.517 6.713,-13.911 1.813,-22.4 -0.218,-0.37 -0.432,-0.735 -0.661,-1.092 0.424,0.019 0.852,0.028 1.277,0.028 9.797,10e-4 12.306,-6.585 18.49,-12.771 z M 50,64.333 c -7.916,0 -14.333,-6.417 -14.333,-14.333 0,-7.916 6.417,-14.333 14.333,-14.333 7.916,0 14.333,6.417 14.333,14.333 0,7.916 -6.417,14.333 -14.333,14.333 z"
           id="path2683"
           style="fill:#ffffff" />
        <circle
           fill-rule="evenodd"
           clip-rule="evenodd"
           cx="50"
           cy="50"
           r="4.1669998"
           id="circle2685"
           style="fill:#ffffff" />
      </g>
      <g
         id="g3026"
         transform="translate(-370.76172,-165.49944)">
        <g
           id="g3009"
           transform="matrix(0.60368991,0,0,0.58655939,-344.99078,158.09561)"
           style="fill:#ffffff">
          <path
             fill-rule="evenodd"
             clip-rule="evenodd"
             d="M 91.839,49.994 C 85.602,43.76 83.146,37.223 73.349,37.223 c -0.432,0 -0.853,0.016 -1.285,0.033 0.229,-0.356 0.451,-0.724 0.665,-1.092 4.899,-8.492 0.448,-13.954 -1.812,-22.398 -8.52,2.281 -15.405,1.14 -20.303,9.628 -0.217,0.37 -0.423,0.748 -0.615,1.126 -0.2,-0.378 -0.401,-0.752 -0.616,-1.124 -4.903,-8.488 -11.855,-7.365 -20.303,-9.627 -2.283,8.519 -6.715,13.912 -1.808,22.398 0.21,0.372 0.432,0.735 0.661,1.094 -0.425,-0.018 -0.848,-0.027 -1.277,-0.027 -9.805,0 -12.307,6.586 -18.493,12.769 6.237,6.234 8.688,12.769 18.493,12.769 0.429,0 0.857,-0.012 1.285,-0.03 -0.229,0.358 -0.456,0.723 -0.669,1.091 -4.903,8.492 -0.448,13.954 1.816,22.399 8.52,-2.28 15.399,-1.141 20.302,-9.626 0.211,-0.375 0.422,-0.752 0.616,-1.13 0.191,0.378 0.398,0.753 0.612,1.124 4.899,8.487 11.86,7.365 20.302,9.629 2.287,-8.517 6.713,-13.911 1.813,-22.4 -0.218,-0.37 -0.432,-0.735 -0.661,-1.092 0.424,0.019 0.852,0.028 1.277,0.028 9.797,10e-4 12.306,-6.585 18.49,-12.771 z M 50,64.333 c -7.916,0 -14.333,-6.417 -14.333,-14.333 0,-7.916 6.417,-14.333 14.333,-14.333 7.916,0 14.333,6.417 14.333,14.333 0,7.916 -6.417,14.333 -14.333,14.333 z"
             id="path3005"
             style="fill:#ffffff" />
          <circle
             fill-rule="evenodd"
             clip-rule="evenodd"
             cx="50"
             cy="50"
             r="4.1669998"
             id="circle3007"
             style="fill:#ffffff" />
        </g>
        <g
           id="g5269"
           transform="translate(-400.94324,42.435297)">
          <g
             id="g5253"
             transform="matrix(0.7440018,0,0,0.64729467,0.95400172,-3.2737374)"
             style="fill:#ffffff">
            <path
               d="m 56,34 c 6.28,-2 7.83,-6.25 8.21,-8.4 A 12.78,12.78 0 0 0 56.4,12.08 C 54.3,11.34 49.8,10.53 45,15 46.45,8.59 43.5,5.09 41.83,3.69 a 12.79,12.79 0 0 0 -15.62,0 C 24.52,5.08 21.57,8.58 23,15 18.18,10.54 13.68,11.35 11.63,12.09 A 12.78,12.78 0 0 0 3.84,25.6 c 0.38,2.15 1.93,6.45 8.21,8.4 -6.28,2 -7.83,6.25 -8.21,8.4 a 12.78,12.78 0 0 0 7.81,13.52 c 2,0.74 6.55,1.55 11.37,-2.91 -1.45,6.41 1.5,9.91 3.17,11.31 A 12.23,12.23 0 0 0 34,67 12.23,12.23 0 0 0 41.81,64.34 c 1.67,-1.4 4.62,-4.9 3.17,-11.31 4.82,4.46 9.32,3.65 11.37,2.91 A 12.78,12.78 0 0 0 64.16,42.4 C 63.78,40.25 62.23,36 56,34 Z M 34,42.27 A 8.27,8.27 0 1 1 42.27,34 8.28,8.28 0 0 1 34,42.27 Z"
               id="path5251"
               style="fill:#ffffff" />
          </g>
          <g
             id="g7462"
             transform="matrix(0.54849722,0,0,0.35010076,503.47652,-68.521599)">
            <g
               id="g7442"
               transform="matrix(1.0629331,0,0,1.271212,-962.88521,-102.15565)"
               style="fill:#ffffff">
              <path
                 d="m 55.798,0 c 4.613,6.362 6.542,16.065 5.058,25.928 -0.89,5.94 -2.94,11.513 -5.929,16.114 l -0.407,0.627 c -0.398,-1.349 -1.049,-2.562 -1.92,-3.538 -0.693,-0.784 -1.691,-1.236 -2.74,-1.236 -0.67,0 -1.33,0.185 -1.901,0.534 -1.302,0.789 -2.412,1.969 -3.246,3.409 L 44.704,41.8 C 42.84,36.188 42.367,29.788 43.341,23.298 44.83,13.426 49.527,4.721 55.798,0"
                 id="path7432"
                 style="fill:#ffffff" />
              <path
                 d="m 8.415,27.913 c 5.84,0 11.994,1.536 17.805,4.442 5.657,2.822 10.48,6.699 13.979,11.232 -1.274,0.021 -2.454,0.265 -3.512,0.729 -1.621,0.709 -2.501,2.473 -2.094,4.193 0.352,1.492 1.138,2.922 2.257,4.161 L 35.015,52.611 C 29.498,52.428 23.724,50.904 18.306,48.197 9.379,43.733 2.552,36.575 0,29.157 2.533,28.339 5.403,27.913 8.415,27.913"
                 id="path7434"
                 style="fill:#ffffff" />
              <path
                 d="m 81.531,38.546 c 7.249,0 13.946,1.89 18.732,5.235 -4.613,6.348 -13.239,11.19 -23.078,12.846 -2.417,0.402 -4.847,0.608 -7.235,0.608 -3.386,0 -6.659,-0.407 -9.731,-1.208 l -1.017,-0.265 c 1.325,-0.839 2.412,-1.918 3.143,-3.164 0.904,-1.531 0.581,-3.484 -0.772,-4.636 -1.124,-0.965 -2.59,-1.653 -4.215,-2.009 l 0.918,-0.616 c 4.542,-3.051 10.068,-5.187 15.979,-6.177 2.43,-0.406 4.879,-0.614 7.276,-0.614"
                 id="path7436"
                 style="fill:#ffffff" />
              <path
                 d="m 37.229,56.714 c -0.539,1.414 -0.763,2.878 -0.627,4.271 0.173,1.766 1.583,3.149 3.339,3.289 0.225,0.02 0.45,0.028 0.674,0.028 0.923,0 1.874,-0.156 2.81,-0.452 -1.808,5.555 -5.156,10.919 -9.708,15.541 C 26.716,86.497 17.86,90.785 9.95,90.921 9.955,83.06 14.095,74.073 21.096,66.969 c 4.341,-4.411 9.413,-7.771 14.672,-9.715 l 1.461,-0.54"
                 id="path7438"
                 style="fill:#ffffff" />
              <path
                 d="m 57.366,59.62 0.755,0.602 c 4.214,3.369 7.877,7.902 10.588,13.112 4.613,8.844 5.938,18.648 3.644,26.162 C 64.888,97.072 57.62,90.366 53.002,81.516 50.043,75.833 48.408,69.769 48.277,63.983 l -0.005,-0.232 c 1.279,1.139 2.758,1.93 4.304,2.27 0.253,0.052 0.506,0.077 0.759,0.077 1.475,0 2.8,-0.881 3.381,-2.253 0.534,-1.284 0.744,-2.731 0.65,-4.225"
                 id="path7440"
                 style="fill:#ffffff" />
            </g>
            <g
               id="g7675"
               transform="matrix(1.8150444,0,0,2.772195,-1284.9174,848.40101)">
              <path
                 d="m 236.00981,31.574953 c 0,-3.73906 -3.95625,-6.905297 -9.43229,-8.016458 2.99814,-4.26661 3.30503,-9.020256 0.36395,-11.664124 -2.94107,-2.6438687 -8.2291,-2.3679893 -12.97533,0.327097 -1.23608,-4.922673 -4.75825,-8.4790312 -8.91763,-8.4790312 -4.15939,0 -7.68155,3.5563582 -8.91763,8.4790312 -4.74624,-2.6950863 -10.03426,-2.970965 -12.97534,-0.327097 -2.94108,2.643868 -2.63419,7.397514 0.36396,11.664124 -5.47605,1.111161 -9.43229,4.277398 -9.43229,8.016458 0,3.73906 3.95614,6.905297 9.4322,8.016458 -2.99806,4.26661 -3.30494,9.020256 -0.36387,11.664039 2.94108,2.643953 8.2291,2.368074 12.97534,-0.327012 1.23608,4.922673 4.75824,8.479031 8.91763,8.479031 4.15938,0 7.68155,-3.556358 8.91763,-8.479031 4.74623,2.695086 10.03426,2.970965 12.97533,0.327012 2.94108,-2.643783 2.63419,-7.397429 -0.36386,-11.664039 5.47605,-1.111161 9.4322,-4.277398 9.4322,-8.016458 z"
                 id="path7660"
                 style="fill:#ffffff;stroke-width:0.733881" />
            </g>
          </g>
        </g>
      </g>
      <g
         id="g3063"
         transform="matrix(1.4641946,0,0,1.4073383,-678.91839,105.815)"
         style="fill:#ffffff">
        <path
           d="m 11.52,19.09 a 5.81,5.81 0 0 0 -3.8,1 14.88,14.88 0 0 0 -4.56,5 1.43,1.43 0 0 0 0,1.44 1.41,1.41 0 0 0 1.23,0.71 v 0 A 14.79,14.79 0 0 0 11,25.85 5.82,5.82 0 0 0 13.77,23.1 v 0 a 2.85,2.85 0 0 0 -0.33,-2.5 2.85,2.85 0 0 0 -1.92,-1.51 z"
           id="path3030"
           style="fill:#ffffff" />
        <path
           d="M 28.28,20.11 A 6.75,6.75 0 0 0 25.06,19 a 2.68,2.68 0 0 0 -0.54,0 2.9,2.9 0 0 0 -2,1.53 2.85,2.85 0 0 0 -0.32,2.49 5.82,5.82 0 0 0 2.8,2.83 14.79,14.79 0 0 0 6.63,1.43 v 0 a 1.41,1.41 0 0 0 1.23,-0.71 1.43,1.43 0 0 0 0,-1.44 14.88,14.88 0 0 0 -4.58,-5.02 z"
           id="path3034"
           style="fill:#ffffff" />
        <path
           d="m 24.5,16.91 a 2.63,2.63 0 0 0 0.57,0.05 6.55,6.55 0 0 0 3.21,-1.07 14.88,14.88 0 0 0 4.56,-5 1.43,1.43 0 0 0 0,-1.44 1.47,1.47 0 0 0 -1.26,-0.71 14.79,14.79 0 0 0 -6.58,1.41 5.82,5.82 0 0 0 -2.77,2.75 2.85,2.85 0 0 0 0.33,2.5 2.84,2.84 0 0 0 1.94,1.51 z"
           id="path3036"
           style="fill:#ffffff" />
        <path
           d="m 18,12.78 c 2.2,0 3.32,-1.59 3.32,-4.74 A 14.92,14.92 0 0 0 19.24,1.59 1.41,1.41 0 0 0 16.76,1.59 14.92,14.92 0 0 0 14.68,8 c 0,3.19 1.12,4.78 3.32,4.78 z"
           id="path3038"
           style="fill:#ffffff" />
        <circle
           cx="18"
           cy="18"
           r="4.27"
           id="circle3040"
           style="fill:#ffffff" />
        <path
           d="m 7.72,15.89 a 6.64,6.64 0 0 0 3.21,1.11 3.31,3.31 0 0 0 0.55,0 2.87,2.87 0 0 0 2,-1.52 v 0 A 2.85,2.85 0 0 0 13.8,12.99 5.82,5.82 0 0 0 11,10.15 14.79,14.79 0 0 0 4.41,8.72 1.42,1.42 0 0 0 3.16,10.87 14.88,14.88 0 0 0 7.72,15.89 Z"
           id="path3042"
           style="fill:#ffffff" />
      </g>
    </g>
    <g
       id="g7252"
       transform="matrix(0.26458333,0,0,0.26458333,31.84707,9.7169825)"
       style="fill:#ffffff">
      <g
         id="g7235"
         style="fill:#ffffff"
         transform="translate(-9.3784514,34.956045)">
        <path
           d="m 39.3,20.5 c 14.3,-5.9 -1.8,-22.1 -7.8,-7.8 5.9,-14.3 -16.9,-14.3 -11,0 -5.9,-14.3 -22.1,1.9 -7.8,7.8 -14.3,-5.9 -14.3,16.9 0,11 -14.3,5.9 1.9,22.1 7.8,7.8 -5.9,14.3 16.9,14.3 11,0 5.9,14.3 22.1,-1.9 7.8,-7.8 14.3,5.9 14.3,-16.9 0,-11 z M 26,36.3 c -5.7,0 -10.3,-4.6 -10.3,-10.3 0,-5.7 4.6,-10.3 10.3,-10.3 5.7,0 10.3,4.6 10.3,10.3 0,5.7 -4.6,10.3 -10.3,10.3 z"
           id="path7231"
           style="fill:#ffffff" />
        <circle
           cx="26"
           cy="26"
           r="7.1999998"
           id="circle7233"
           style="fill:#ffffff" />
      </g>
    </g>
    <path
       style="opacity:0.197605;fill:#ffffff;stroke:#000000;stroke-width:0.262785;stroke-miterlimit:4;stroke-dasharray:none;stroke-opacity:1"
       d=""
       id="path8082"
       transform="scale(0.26458333)" />
    <path
       style="opacity:0.197605;fill:#ffffff;stroke:#000000;stroke-width:0.262785;stroke-miterlimit:4;stroke-dasharray:none;stroke-opacity:1"
       d=""
       id="path8121"
       transform="scale(0.26458333)" />
    <path
       style="opacity:0.197605;fill:#ffffff;stroke:#000000;stroke-width:0.262785;stroke-miterlimit:4;stroke-dasharray:none;stroke-opacity:1"
       d=""
       id="path8160"
       transform="scale(0.26458333)" />
    <path
       style="opacity:0.197605;fill:#ffffff;stroke:#000000;stroke-width:0.262785;stroke-miterlimit:4;stroke-dasharray:none;stroke-opacity:1"
       d=""
       id="path8199"
       transform="scale(0.26458333)" />
    <path
       style="opacity:0.197605;fill:#ffffff;stroke:#000000;stroke-width:0.262785;stroke-miterlimit:4;stroke-dasharray:none;stroke-opacity:1"
       d=""
       id="path8589"
       transform="scale(0.26458333)" />
    <path
       style="opacity:0.197605;fill:#ffffff;stroke:#000000;stroke-width:0.262785;stroke-miterlimit:4;stroke-dasharray:none;stroke-opacity:1"
       d=""
       id="path8628"
       transform="scale(0.26458333)" />
    <path
       style="opacity:0.197605;fill:#ffffff;stroke:#000000;stroke-width:0.262785;stroke-miterlimit:4;stroke-dasharray:none;stroke-opacity:1"
       d=""
       id="path8667"
       transform="scale(0.26458333)" />
    <path
       style="opacity:0.197605;fill:#ffffff;stroke:#000000;stroke-width:0.262785;stroke-miterlimit:4;stroke-dasharray:none;stroke-opacity:1"
       d=""
       id="path8706"
       transform="scale(0.26458333)" />
    <path
       style="opacity:0.197605;fill:#ffffff;stroke:#000000;stroke-width:0.262785;stroke-miterlimit:4;stroke-dasharray:none;stroke-opacity:1"
       d=""
       id="path8745"
       transform="scale(0.26458333)" />
    <path
       style="opacity:0.197605;fill:#ffffff;stroke:#000000;stroke-width:0.0320798;stroke-miterlimit:4;stroke-dasharray:none;stroke-opacity:1"
       d=""
       id="path8940"
       transform="scale(0.26458333)" />
    <path
       style="opacity:0.197605;fill:#ffffff;stroke:#000000;stroke-width:0.0320798;stroke-miterlimit:4;stroke-dasharray:none;stroke-opacity:1"
       d=""
       id="path8979"
       transform="scale(0.26458333)" />
    <path
       style="opacity:0.197605;fill:#ffffff;stroke:#000000;stroke-width:0.0320798;stroke-miterlimit:4;stroke-dasharray:none;stroke-opacity:1"
       d=""
       id="path9129"
       transform="scale(0.26458333)" />
    <path
       style="opacity:0.197605;fill:#ffffff;stroke:#000000;stroke-width:0.0320798;stroke-miterlimit:4;stroke-dasharray:none;stroke-opacity:1"
       d=""
       id="path9168"
       transform="scale(0.26458333)" />
    <g
       id="g10183"
       transform="matrix(0.26458333,0,0,0.26458333,94.891922,57.986708)">
      <path
         d="m -201.73959,-15.663444 c 0,-1.42033 -0.69774,-2.682414 -1.78065,-3.497778 0.67416,-1.149602 0.81382,-2.570992 0.2454,-3.883196 -0.56841,-1.312204 -1.71811,-2.222892 -3.04482,-2.57988 0.1628,-1.30879 -0.27698,-2.673056 -1.32721,-3.677391 -1.05023,-1.004305 -2.47684,-1.424892 -3.84547,-1.269177 -0.37336,-1.268765 -1.3256,-2.368247 -2.69778,-2.911793 -1.37213,-0.543517 -2.85847,-0.409992 -4.06061,0.234705 -0.85263,-1.03556 -2.17241,-1.70286 -3.65762,-1.70286 -1.48521,0 -2.805,0.6673 -3.65762,1.70286 -1.20213,-0.644697 -2.68848,-0.778222 -4.06062,-0.234705 -1.37217,0.543546 -2.32444,1.643028 -2.69777,2.911793 -1.36863,-0.155715 -2.79524,0.264872 -3.84547,1.269177 -1.0502,1.004335 -1.49001,2.368601 -1.32718,3.677391 -1.32674,0.356988 -2.47647,1.267676 -3.04485,2.57988 -0.56839,1.312204 -0.42876,2.733594 0.24543,3.883196 -1.08292,0.815364 -1.78068,2.077448 -1.78068,3.497778 0,1.420331 0.69776,2.682385 1.78068,3.497749 -0.67419,1.149602 -0.81382,2.5709921 -0.24543,3.8831961 0.56838,1.312204 1.71811,2.222892 3.04485,2.57988 -0.16283,1.30882 0.27698,2.673086 1.32718,3.677391 1.05023,1.004334 2.47687,1.42492196 3.8455,1.26920596 0.37333,1.268795 1.32557,2.36824804 2.69774,2.91176404 1.37214,0.543517 2.85849,0.409992 4.06059,-0.234705 0.85262,1.035589 2.17241,1.702889 3.65765,1.702889 1.48524,0 2.80502,-0.6673 3.65765,-1.702889 1.20211,0.644697 2.68845,0.778222 4.06058,0.234705 1.37218,-0.543516 2.32442,-1.64296904 2.69778,-2.91176404 1.36863,0.155716 2.79524,-0.26487096 3.84547,-1.26920596 1.05023,-1.004305 1.49001,-2.368571 1.32721,-3.677391 1.32671,-0.356988 2.47641,-1.267676 3.04482,-2.57988 0.56842,-1.312204 0.42876,-2.7335941 -0.2454,-3.8831961 1.08291,-0.815364 1.78065,-2.077418 1.78065,-3.497749 z"
         id="path10168"
         style="fill:#ffffff;stroke-width:0.493079" />
      <path
         d="m -286.92533,405.75838 c 0,-1.84221 -0.92643,-3.47919 -2.36427,-4.53674 0.89512,-1.49107 1.08055,-3.33466 0.32583,-5.03665 -0.75471,-1.70196 -2.28123,-2.88316 -4.04277,-3.34619 0.21615,-1.69755 -0.36777,-3.46704 -1.76221,-4.7697 -1.39445,-1.30262 -3.28864,-1.84814 -5.10585,-1.64617 -0.49573,-1.64563 -1.76007,-3.0717 -3.58199,-3.7767 -1.82185,-0.70496 -3.79535,-0.53177 -5.39149,0.30443 -1.13209,-1.34316 -2.88443,-2.20867 -4.85643,-2.20867 -1.97199,0 -3.72435,0.86551 -4.85642,2.20867 -1.59613,-0.8362 -3.56964,-1.00939 -5.39151,-0.30443 -1.8219,0.705 -3.08629,2.13107 -3.58198,3.7767 -1.8172,-0.20197 -3.71139,0.34355 -5.10584,1.64617 -1.39441,1.30266 -1.97837,3.07215 -1.76217,4.7697 -1.76158,0.46303 -3.28814,1.64423 -4.04281,3.34619 -0.75469,1.70199 -0.56929,3.54558 0.32587,5.03665 -1.43786,1.05755 -2.36431,2.69453 -2.36431,4.53674 0,1.84222 0.92645,3.47915 2.36431,4.53671 -0.89516,1.49107 -1.08056,3.33466 -0.32587,5.03663 0.75467,1.70199 2.28123,2.88317 4.04281,3.3462 -0.2162,1.69758 0.36776,3.46709 1.76217,4.7697 1.39445,1.30267 3.28868,1.84817 5.10588,1.64621 0.49569,1.64567 1.76004,3.0717 3.58194,3.77666 1.82187,0.70496 3.79538,0.53177 5.39147,-0.30442 1.13207,1.3432 2.88443,2.20871 4.85646,2.20871 1.97204,0 3.72438,-0.86551 4.85647,-2.20871 1.5961,0.83619 3.5696,1.00938 5.39145,0.30442 1.82192,-0.70496 3.08626,-2.13099 3.58199,-3.77666 1.81721,0.20196 3.7114,-0.34354 5.10585,-1.64621 1.39444,-1.30261 1.97836,-3.07212 1.76221,-4.7697 1.76154,-0.46303 3.28806,-1.64421 4.04277,-3.3462 0.75472,-1.70197 0.56929,-3.54556 -0.32583,-5.03663 1.43784,-1.05756 2.36427,-2.69449 2.36427,-4.53671 z"
         id="path10443"
         style="fill:#ffffff;stroke-width:0.64707" />
      <g
         id="g10460"
         transform="translate(-676.45374,300.40015)">
        <path
           fill="#000000"
           d="m 415.28769,-48.341339 c -1.81391,-1.645168 -3.47075,-3.416634 -4.96965,-5.313843 -4.05988,-5.138726 -6.33384,-11.560264 -3.80171,-13.560789 2.53212,-2.000519 8.25324,1.697568 12.31312,6.836294 1.49891,1.897209 2.83893,3.918976 4.01974,6.064325 -1.68709,0.07549 -3.34721,0.651246 -4.75032,1.759784 -1.40312,1.108539 -2.34738,2.590388 -2.81118,4.214229 z m 10.73598,-5.52539 c 1.54548,-1.760051 3.22324,-3.35533 5.0328,-4.784984 4.90131,-3.872304 11.15503,-5.878065 13.25246,-3.223275 2.09742,2.654782 -1.30091,8.274695 -6.20222,12.146999 -1.80956,1.429654 -3.74975,2.692765 -5.81964,3.789058 -0.15242,-1.710925 -0.79895,-3.417591 -1.96119,-4.888672 -1.16223,-1.471083 -2.67299,-2.494962 -4.30221,-3.039126 z m 5.96532,11.119927 c 1.81391,1.645168 3.47075,3.416628 4.96965,5.313843 4.05988,5.138726 6.33383,11.56027 3.80171,13.560789 -2.53213,2.000525 -8.25324,-1.697568 -12.31312,-6.836294 -1.49891,-1.897215 -2.83893,-3.918976 -4.01974,-6.064325 1.68709,-0.07549 3.34721,-0.651246 4.75032,-1.759784 1.40312,-1.108539 2.34738,-2.590388 2.81118,-4.214229 z m -10.73597,5.525384 c -1.54549,1.760057 -3.22326,3.355342 -5.03281,4.78499 -4.9013,3.872298 -11.15503,5.878058 -13.25246,3.223276 -2.09743,-2.654789 1.30092,-8.274702 6.20222,-12.147 1.80955,-1.429648 3.74975,-2.692765 5.81965,-3.789065 0.15241,1.710932 0.79894,3.417598 1.96118,4.88868 1.16223,1.471082 2.67299,2.494961 4.30222,3.039119 z m 6.41403,-3.223382 c -2.68613,2.122192 -6.66738,1.559546 -8.89237,-1.256704 -2.225,-2.816251 -1.85118,-6.819646 0.83495,-8.941837 2.68613,-2.122192 6.66739,-1.559552 8.89238,1.256699 2.225,2.81625 1.85117,6.819651 -0.83496,8.941842 z"
           id="path10445"
           style="fill:#ffffff;stroke-width:0.793349" />
      </g>
    </g>
    <g
       id="g10675"
       transform="matrix(0.26458333,0,0,0.26458333,-120.90102,152.78328)">
      <path
         d="m 499.48277,-46.610063 a 5.5,5.5 0 0 0 -3.56,1 13.8,13.8 0 0 0 -4.23,4.67 l -1.21,2 h 2.38 a 13.89,13.89 0 0 0 6.17,-1.33 5.33,5.33 0 0 0 2.57,-2.56 v 0 a 2.69,2.69 0 0 0 -0.31,-2.32 2.64,2.64 0 0 0 -1.81,-1.46 z"
         id="path10642"
         style="fill:#ffffff" />
      <path
         d="m 505.48277,-42.760063 c -2.05,0 -3.09,1.48 -3.09,4.41 a 13.93,13.93 0 0 0 1.93,6 l 1.16,2.09 1.16,-2.09 a 13.93,13.93 0 0 0 1.93,-6 c 0,-2.93 -1.04,-4.41 -3.09,-4.41 z"
         id="path10644"
         style="fill:#ffffff" />
      <path
         d="m 515.04277,-45.610063 a 6.26,6.26 0 0 0 -3,-1 2.37,2.37 0 0 0 -0.51,0.05 2.62,2.62 0 0 0 -1.86,1.42 2.62,2.62 0 0 0 -0.3,2.31 5.33,5.33 0 0 0 2.57,2.56 13.89,13.89 0 0 0 6.17,1.33 h 2.38 l -1.23,-2 a 13.8,13.8 0 0 0 -4.22,-4.67 z"
         id="path10646"
         style="fill:#ffffff" />
      <path
         d="m 512.51794,-48.31984 a 3.07,3.07 0 0 0 0.53,0.05 6.23,6.23 0 0 0 3,-1 13.8,13.8 0 0 0 4.23,-4.67 l 1.23,-2.000001 h -2.38 a 13.89,13.89 0 0 0 -6.17,1.330001 5.4,5.4 0 0 0 -2.58,2.56 2.69,2.69 0 0 0 0.31,2.32 2.64,2.64 0 0 0 1.83,1.41 z"
         id="path10648"
         style="fill:#ffffff" />
      <path
         d="m 505.48277,-52.460063 c 2.05,0 3.09,-1.48 3.09,-4.41 a 13.93,13.93 0 0 0 -1.93,-6 l -1.16,-2.09 -1.16,2.09 a 13.93,13.93 0 0 0 -1.93,6 c 0,2.93 1.09,4.41 3.09,4.41 z"
         id="path10650"
         style="fill:#ffffff" />
      <circle
         cx="505.48279"
         cy="-47.610062"
         r="3.97"
         id="circle10652"
         style="fill:#ffffff" />
      <path
         d="m 495.92277,-49.610063 a 6.15,6.15 0 0 0 3,1 3,3 0 0 0 0.52,-0.05 2.63,2.63 0 0 0 1.86,-1.41 v 0 a 2.62,2.62 0 0 0 0.3,-2.31 5.33,5.33 0 0 0 -2.57,-2.56 13.89,13.89 0 0 0 -6.19,-1.3 l -2.36,-0.04 1.23,2 a 13.8,13.8 0 0 0 4.21,4.67 z"
         id="path10654"
         style="fill:#ffffff" />
      <path
         d="m 523.87837,-341.84847 a 5.5,5.5 0 0 0 -3.56,1 13.8,13.8 0 0 0 -4.23,4.67 l -1.21,2 h 2.38 a 13.89,13.89 0 0 0 6.17,-1.33 5.33,5.33 0 0 0 2.57,-2.56 v 0 a 2.69,2.69 0 0 0 -0.31,-2.32 2.64,2.64 0 0 0 -1.81,-1.46 z"
         id="path11485"
         style="fill:#ffffff" />
      <path
         d="m 529.87837,-337.99847 c -2.05,0 -3.09,1.48 -3.09,4.41 a 13.93,13.93 0 0 0 1.93,6 l 1.16,2.09 1.16,-2.09 a 13.93,13.93 0 0 0 1.93,-6 c 0,-2.93 -1.04,-4.41 -3.09,-4.41 z"
         id="path11487"
         style="fill:#ffffff" />
      <path
         d="m 539.43837,-340.84847 a 6.26,6.26 0 0 0 -3,-1 2.37,2.37 0 0 0 -0.51,0.05 2.62,2.62 0 0 0 -1.86,1.42 2.62,2.62 0 0 0 -0.3,2.31 5.33,5.33 0 0 0 2.57,2.56 13.89,13.89 0 0 0 6.17,1.33 h 2.38 l -1.23,-2 a 13.8,13.8 0 0 0 -4.22,-4.67 z"
         id="path11489"
         style="fill:#ffffff" />
      <path
         d="m 536.91354,-343.55825 a 3.07,3.07 0 0 0 0.53,0.05 6.23,6.23 0 0 0 3,-1 13.8,13.8 0 0 0 4.23,-4.67 l 1.23,-2 h -2.38 a 13.89,13.89 0 0 0 -6.17,1.33 5.4,5.4 0 0 0 -2.58,2.56 2.69,2.69 0 0 0 0.31,2.32 2.64,2.64 0 0 0 1.83,1.41 z"
         id="path11491"
         style="fill:#ffffff" />
      <path
         d="m 529.87837,-347.69847 c 2.05,0 3.09,-1.48 3.09,-4.41 a 13.93,13.93 0 0 0 -1.93,-6 l -1.16,-2.09 -1.16,2.09 a 13.93,13.93 0 0 0 -1.93,6 c 0,2.93 1.09,4.41 3.09,4.41 z"
         id="path11493"
         style="fill:#ffffff" />
      <circle
         cx="529.87842"
         cy="-342.84848"
         r="3.97"
         id="circle11495"
         style="fill:#ffffff" />
      <path
         d="m 520.31837,-344.84847 a 6.15,6.15 0 0 0 3,1 3,3 0 0 0 0.52,-0.05 2.63,2.63 0 0 0 1.86,-1.41 v 0 a 2.62,2.62 0 0 0 0.3,-2.31 5.33,5.33 0 0 0 -2.57,-2.56 13.89,13.89 0 0 0 -6.19,-1.3 l -2.36,-0.04 1.23,2 a 13.8,13.8 0 0 0 4.21,4.67 z"
         id="path11497"
         style="fill:#ffffff" />
      <g
         id="g11675"
         transform="translate(118.272,4.1354737)">
        <g
           data-name="15"
           id="g11659"
           transform="matrix(3.2087333,0,0,2.614208,425.88739,-59.452216)"
           style="fill:#ffffff">
          <path
             d="m 13,12 a 1,1 0 1 1 -1,-1 1,1 0 0 1 1,1 z m 9,0 a 1.48,1.48 0 0 1 -1,1.41 l -3.09,1 1.46,2.92 a 1.48,1.48 0 0 1 -2,2 l -2.92,-1.46 -1,3.09 a 1.48,1.48 0 0 1 -2.82,0 l -1,-3.09 -2.99,1.48 A 1.46,1.46 0 0 1 4.93,19.07 1.48,1.48 0 0 1 4.65,17.36 L 6.11,14.44 3,13.41 A 1.48,1.48 0 0 1 3,10.59 L 6.09,9.59 4.65,6.64 A 1.48,1.48 0 0 1 4.93,4.93 1.49,1.49 0 0 1 6.64,4.65 l 2.92,1.46 1,-3.09 a 1.48,1.48 0 0 1 2.82,0 l 1,3.09 2.92,-1.46 a 1.48,1.48 0 0 1 2,2 l -1.41,2.91 3.09,1 A 1.48,1.48 0 0 1 22,12 Z m -7,0 a 3,3 0 1 0 -3,3 3,3 0 0 0 3,-3 z"
             id="path11657"
             style="fill:#ffffff" />
        </g>
        <g
           style="clip-rule:evenodd;fill-rule:evenodd;stroke-linejoin:round;stroke-miterlimit:2"
           id="g11873"
           transform="translate(-114.56566,176.9691)">
          <rect
             serif:id="Page 54"
             x="0.5"
             y="0"
             width="100"
             height="100"
             fill="none"
             id="rect11855" />
          <path
             d="m 605.16215,-152.66968 c 16.98335,0 16.66496,12.18624 8.17289,22.76331 8.49207,-10.57707 21.20034,-14.6173 26.44888,0 5.24775,14.61658 -7.65791,18.10865 -21.39773,14.06842 13.73982,4.04023 21.91271,13.72987 8.17369,22.763317 -13.73982,9.03416 -21.39773,-0.99475 -21.39773,-14.068427 0,13.073677 -7.65791,23.102587 -21.39773,14.068427 -13.73903,-9.033447 -5.56613,-18.723087 8.17369,-22.763317 -13.73982,4.04023 -26.64548,0.54816 -21.39773,-14.06842 5.24854,-14.6173 17.9568,-10.57707 26.44887,0 -8.49207,-10.57707 -8.81045,-22.76331 8.1729,-22.76331 z m 0,25.71875 c 3.33347,0 6.03973,2.60393 6.03973,5.81076 0,3.20683 -2.70626,5.81076 -6.03973,5.81076 -3.33347,0 -6.03973,-2.60393 -6.03973,-5.81076 0,-3.20683 2.70626,-5.81076 6.03973,-5.81076 z"
             id="path11857"
             style="fill:#ffffff;stroke-width:0.757191" />
          <g
             style="clip-rule:evenodd;fill-rule:evenodd;image-rendering:optimizeQuality;shape-rendering:geometricPrecision;text-rendering:geometricPrecision"
             id="g12089"
             transform="translate(772.41351,-318.31134)">
            <g
               id="g12069"
               transform="matrix(0.24012596,0,0,0.22190554,-251.12307,236.88602)"
               style="fill:#ffffff">
              <path
                 class="fil0"
                 d="m 142,3 c 78,-24 -4,110 -17,64 -3,-13 -6,-13 -9,0 -13,46 -95,-88 -17,-64 42,13 1,13 43,0 z"
                 id="path12057"
                 style="fill:#ffffff" />
              <path
                 class="fil0"
                 d="m 87,224 c 57,59 51,-98 17,-64 -10,10 -12,9 -9,-4 12,-47 -125,31 -45,48 43,9 6,-11 37,20 z"
                 id="path12059"
                 style="fill:#ffffff" />
              <path
                 class="fil0"
                 d="m 26,66 c 6,-81 101,44 54,39 -14,-2 -15,0 -4,9 39,29 -116,56 -66,-8 27,-35 12,4 16,-40 z"
                 id="path12061"
                 style="fill:#ffffff" />
              <path
                 class="fil0"
                 d="m 219,186 c 70,-43 -85,-71 -58,-30 7,11 6,13 -7,7 -43,-21 3,129 37,55 19,-40 -9,-9 28,-32 z"
                 id="path12063"
                 style="fill:#ffffff" />
              <path
                 class="fil0"
                 d="m 227,54 c -6,-82 -102,42 -54,38 14,-1 15,1 3,9 -38,29 116,57 66,-8 -27,-34 -12,5 -15,-39 z"
                 id="path12065"
                 style="fill:#ffffff" />
              <path
                 class="fil0"
                 d="m 127,86 c 16,0 30,14 30,30 0,17 -14,30 -30,30 -17,0 -30,-13 -30,-30 0,-16 13,-30 30,-30 z"
                 id="path12067"
                 style="fill:#ffffff" />
            </g>
            <g
               id="g12284"
               transform="translate(-712.62227,329.87901)">
              <path
                 fill-rule="evenodd"
                 clip-rule="evenodd"
                 fill="#000000"
                 d="m 431.44625,-12.843998 c 0,-0.466052 0.41753,-0.84286 0.9315,-0.84286 1.65915,0 2.46476,1.977459 2.8257,3.317684 0.90667,3.3761373 3.14332,5.9449033 7.5785,5.9449033 4.43056,0 6.38193,-2.462821 7.39832,-4.997664 1.45299,-3.6167303 4.39649,-4.6208553 5.98577,-5.3885623 -1.58928,-0.768751 -4.53336,-1.772355 -5.98577,-5.388563 -1.01639,-2.534843 -2.96776,-4.997664 -7.39832,-4.997664 -1.2035,5.74293 -7.5785,5.944381 -7.5785,5.944381 -0.36094,1.341269 -1.16655,3.318206 -2.8257,3.318206 -0.51455,0 -0.9315,-0.377851 -0.9315,-0.843382 0,-1.498881 2.18698,-2.226402 3.67115,-2.552065 3.73468,-0.819374 6.57828,-2.841194 6.57828,-6.849346 0,-4.003976 -2.72521,-5.766936 -5.53012,-6.686514 -4.00206,-1.312043 -5.11317,-3.972662 -5.96324,-5.408395 -0.85008,1.435733 -1.96061,4.096874 -5.96267,5.408395 -2.80548,0.919578 -5.53011,2.682538 -5.53011,6.686514 6.60079,1.405463 6.57827,6.849346 6.57827,6.849346 1.48359,0.325663 3.67115,1.053184 3.67115,2.552065 0,0.466052 -0.41753,0.843382 -0.93265,0.843382 -1.65915,0 -2.46419,-1.976937 -2.82455,-3.318206 -0.90667,-3.375615 -3.14332,-5.944381 -7.57908,-5.944381 -4.43056,0 -6.38135,2.462821 -7.3989,4.997664 -1.45125,3.61673 -4.39533,4.620334 -5.98461,5.388563 1.58928,0.767707 4.53394,1.771832 5.98461,5.3885623 1.01755,2.534843 2.96834,4.997664 7.3989,4.997664 2.16678,-6.1087783 7.57908,-5.9449033 7.57908,-5.9449033 0.36036,-1.340225 1.1654,-3.317684 2.82455,-3.317684 0.5157,0 0.93265,0.37733 0.93265,0.84286 0,1.498359 -2.18756,2.226403 -3.67115,2.552587 -3.73525,0.8193743 -6.57827,2.8406733 -6.57827,6.8488243 0,4.00501997 2.72521,5.767458 5.53011,6.686515 4.00264,1.312043 5.11317,3.97214 5.96267,5.408394 0.85007,-1.436254 1.96118,-4.096873 5.96324,-5.408394 2.80491,-0.919579 5.53012,-2.68201703 5.53012,-6.686515 -6.53323,-1.870471 -6.57828,-6.8488243 -6.57828,-6.8488243 -1.48417,-0.326184 -3.67115,-1.054228 -3.67115,-2.552587 z"
                 id="path12269"
                 style="fill:#ffffff;stroke-width:0.548993" />
              <g
                 id="g12479"
                 transform="translate(-16.933912,-14.410094)">
                <path
                   d="m 496.81063,40.714038 c 1.55446,-4.159335 2.30948,-7.436387 2.30948,-9.894176 0,-2.70987 -0.62178,-5.545781 -1.82093,-8.507732 2.7092,0.693222 5.01868,2.331749 6.92844,5.041619 1.99859,2.89893 2.93127,6.112962 2.88686,9.768136 0,1.764567 -0.22207,4.348396 -0.71061,7.814509 -0.48855,3.466113 -0.71061,6.112963 -0.71061,7.877529 0,7.499408 2.17624,14.494654 6.61755,21.048758 -5.50723,-1.260404 -9.85971,-3.907254 -13.01304,-7.877529 -3.24216,-3.970275 -4.79662,-9.011893 -4.79662,-15.124856 0,-2.58383 0.75502,-5.986922 2.30948,-10.146258 z m 10.57032,11.784784 c 0,-7.625448 2.3539,-16.007139 7.1061,-25.019033 4.75221,9.011894 7.1061,17.330565 7.1061,25.019033 0,7.688469 -2.35389,14.809755 -7.1061,21.42688 -4.7522,-6.617125 -7.1061,-13.738411 -7.1061,-21.42688 z m 15.94431,2.016648 c 0.13324,-2.079668 -0.0444,-4.978599 -0.53295,-8.633772 -0.62179,-4.159336 -0.93268,-7.058267 -0.93268,-8.759813 -0.0444,-3.655174 0.93268,-6.869206 2.93127,-9.768136 1.90976,-2.70987 4.21924,-4.411417 6.92844,-5.041619 -1.24356,3.024971 -1.90976,5.860882 -1.90976,8.507732 0,2.457789 0.75502,5.734841 2.30948,9.894176 1.55446,4.159336 2.30948,7.562428 2.30948,10.146258 0,6.112963 -1.59887,11.154581 -4.7522,15.124856 -3.10892,3.970275 -7.4614,6.617125 -12.96863,7.877529 3.95277,-5.860881 6.12901,-12.288945 6.61755,-19.347211 z"
                   id="path12464"
                   style="fill:#ffffff;stroke-width:0.529049" />
                <g
                   id="g14108"
                   transform="translate(22.195921,60.351684)">
                  <g
                     id="g14087"
                     transform="matrix(0.36339198,0,0,0.29024543,531.47165,-74.135249)"
                     style="fill:#ffffff">
                    <path
                       d="m 86.21,25.72 c -4.39,-2.16 -9.76,-2.21 -15.97,-0.16 0,0.38 -0.02,0.76 -0.05,1.15 0,0.06 0,0.11 -0.01,0.17 -0.03,0.46 -0.08,0.92 -0.15,1.38 -0.02,0.12 -0.04,0.23 -0.06,0.35 -0.05,0.34 -0.11,0.68 -0.18,1.01 -0.04,0.17 -0.08,0.34 -0.12,0.5 -0.07,0.28 -0.13,0.57 -0.21,0.85 -0.05,0.19 -0.11,0.37 -0.17,0.55 -0.08,0.26 -0.16,0.53 -0.25,0.79 -0.07,0.19 -0.14,0.38 -0.22,0.58 -0.09,0.25 -0.19,0.5 -0.29,0.75 -0.08,0.19 -0.17,0.39 -0.26,0.58 -0.11,0.24 -0.22,0.48 -0.33,0.72 -0.09,0.19 -0.2,0.39 -0.3,0.58 -0.12,0.23 -0.24,0.46 -0.37,0.69 -0.11,0.19 -0.22,0.38 -0.33,0.57 -0.13,0.22 -0.27,0.45 -0.41,0.67 -0.12,0.19 -0.24,0.37 -0.37,0.56 -0.15,0.22 -0.3,0.43 -0.45,0.64 -0.13,0.18 -0.27,0.36 -0.4,0.54 -0.16,0.21 -0.33,0.41 -0.49,0.62 -0.14,0.17 -0.29,0.35 -0.43,0.52 -0.17,0.2 -0.35,0.4 -0.53,0.59 -0.15,0.16 -0.3,0.33 -0.46,0.49 -0.19,0.19 -0.38,0.38 -0.58,0.57 -0.16,0.15 -0.31,0.31 -0.48,0.45 -0.21,0.19 -0.42,0.37 -0.63,0.55 -0.16,0.14 -0.32,0.28 -0.49,0.42 -0.22,0.18 -0.46,0.36 -0.69,0.53 -0.16,0.12 -0.32,0.25 -0.49,0.37 -0.03,0.02 -0.06,0.05 -0.09,0.07 2.07,2.39 3.19,5.39 3.19,8.59 0,1.57 -0.27,3.09 -0.81,4.53 0.08,0.06 0.16,0.12 0.25,0.18 0.17,0.12 0.35,0.24 0.52,0.36 0.2,0.14 0.4,0.27 0.61,0.4 0.18,0.11 0.36,0.22 0.54,0.33 0.21,0.12 0.42,0.24 0.63,0.36 0.18,0.1 0.37,0.2 0.56,0.3 0.21,0.11 0.43,0.22 0.65,0.32 0.19,0.09 0.38,0.18 0.57,0.26 0.22,0.1 0.44,0.19 0.67,0.28 0.19,0.08 0.38,0.15 0.57,0.23 0.23,0.08 0.45,0.16 0.68,0.24 0.19,0.07 0.39,0.13 0.58,0.19 0.23,0.07 0.46,0.14 0.7,0.2 0.19,0.05 0.39,0.11 0.58,0.16 0.24,0.06 0.47,0.11 0.71,0.16 0.19,0.04 0.39,0.08 0.58,0.12 0.24,0.04 0.48,0.08 0.72,0.12 0.19,0.03 0.39,0.06 0.58,0.09 0.24,0.03 0.48,0.05 0.72,0.07 0.19,0.02 0.39,0.04 0.58,0.05 0.24,0.02 0.49,0.02 0.73,0.03 0.19,0.01 0.38,0.02 0.57,0.02 0.25,0 0.49,-0.01 0.73,-0.02 0.18,-0.01 0.37,-0.01 0.55,-0.02 0.25,-0.01 0.49,-0.04 0.74,-0.06 0.18,-0.02 0.36,-0.03 0.53,-0.05 0.25,-0.03 0.51,-0.08 0.76,-0.12 0.16,-0.03 0.33,-0.05 0.49,-0.08 0.28,-0.05 0.56,-0.12 0.83,-0.19 0.13,-0.03 0.27,-0.06 0.4,-0.09 0.41,-0.11 0.81,-0.23 1.2,-0.37 0.03,-0.01 0.07,-0.02 0.1,-0.03 6.24,-2.19 10.68,-5.74 12.86,-10.28 1.98,-4.14 2.09,-9 0.31,-14.06 -1.83,-5.15 -4.9,-8.9 -8.92,-10.87 z"
                       id="path14075"
                       style="fill:#ffffff" />
                    <path
                       d="m 17.68,60.76 c 0.1,-0.11 0.21,-0.21 0.31,-0.32 0.18,-0.19 0.35,-0.37 0.53,-0.55 0.15,-0.14 0.3,-0.28 0.45,-0.42 0.23,-0.21 0.45,-0.41 0.69,-0.61 0.1,-0.09 0.21,-0.17 0.32,-0.25 0.28,-0.23 0.57,-0.45 0.86,-0.66 0.02,-0.01 0.03,-0.02 0.05,-0.03 1.46,-1.03 3.03,-1.86 4.65,-2.5 0.06,-0.02 0.12,-0.05 0.18,-0.07 0.33,-0.13 0.66,-0.25 1,-0.36 0.11,-0.04 0.23,-0.08 0.34,-0.12 0.31,-0.1 0.61,-0.19 0.92,-0.28 0.14,-0.04 0.29,-0.08 0.43,-0.12 0.29,-0.08 0.58,-0.15 0.87,-0.22 0.16,-0.04 0.33,-0.08 0.49,-0.11 0.27,-0.06 0.55,-0.12 0.82,-0.17 0.18,-0.03 0.36,-0.06 0.53,-0.09 0.26,-0.04 0.52,-0.09 0.78,-0.12 0.19,-0.03 0.38,-0.05 0.57,-0.07 0.24,-0.03 0.49,-0.06 0.73,-0.08 0.21,-0.02 0.42,-0.03 0.62,-0.05 0.22,-0.02 0.43,-0.03 0.65,-0.04 0.29,-0.01 0.57,-0.02 0.85,-0.03 0.13,0 0.26,-0.01 0.38,-0.01 0.39,0 0.78,0 1.15,0.02 -0.01,-0.18 -0.01,-0.36 -0.01,-0.54 0,-4.77 2.52,-9.07 6.63,-11.41 -0.02,-0.07 -0.03,-0.13 -0.05,-0.2 -0.04,-0.15 -0.09,-0.31 -0.13,-0.46 -0.06,-0.22 -0.13,-0.44 -0.2,-0.67 -0.05,-0.16 -0.11,-0.33 -0.16,-0.5 C 42.86,39.5 42.78,39.28 42.7,39.05 42.64,38.88 42.57,38.7 42.5,38.53 42.41,38.31 42.33,38.09 42.23,37.87 42.16,37.69 42.08,37.51 42,37.34 41.9,37.12 41.8,36.9 41.7,36.69 41.61,36.51 41.53,36.33 41.44,36.16 41.33,35.94 41.22,35.73 41.1,35.51 41,35.33 40.9,35.15 40.8,34.97 40.68,34.76 40.55,34.55 40.42,34.34 40.31,34.16 40.2,33.99 40.09,33.81 39.96,33.6 39.81,33.4 39.67,33.19 c -0.12,-0.17 -0.24,-0.34 -0.36,-0.51 -0.15,-0.2 -0.3,-0.4 -0.46,-0.6 -0.13,-0.17 -0.26,-0.33 -0.39,-0.5 -0.16,-0.2 -0.33,-0.39 -0.5,-0.58 -0.14,-0.16 -0.28,-0.32 -0.42,-0.47 -0.18,-0.19 -0.36,-0.37 -0.55,-0.55 -0.15,-0.15 -0.3,-0.3 -0.45,-0.44 -0.19,-0.18 -0.4,-0.35 -0.6,-0.52 -0.16,-0.13 -0.31,-0.27 -0.48,-0.4 -0.21,-0.17 -0.44,-0.33 -0.66,-0.49 -0.16,-0.12 -0.32,-0.24 -0.49,-0.36 -0.24,-0.16 -0.49,-0.31 -0.74,-0.46 -0.16,-0.1 -0.32,-0.2 -0.49,-0.3 -0.28,-0.16 -0.57,-0.3 -0.87,-0.44 -0.15,-0.07 -0.29,-0.15 -0.43,-0.22 -0.45,-0.2 -0.9,-0.39 -1.38,-0.56 -0.33,-0.12 -0.64,-0.22 -0.95,-0.32 -2.9,-0.93 -5.63,-1.39 -8.16,-1.39 -7.75,0 -13.53,4.31 -16.4,12.49 -1.78,5.06 -1.67,9.92 0.31,14.06 2.14,4.43 6.45,7.93 12.48,10.13 z"
                       id="path14077"
                       style="fill:#ffffff" />
                    <path
                       d="m 49.98,41.96 c -1.68,0 -3.3,0.37 -4.79,1.1 0,0 0,0 0,0 -3.82,1.86 -6.19,5.65 -6.19,9.88 0,0.56 0.04,1.06 0.11,1.53 0,0 0,0.01 0,0.01 0,0 0,0.01 0,0.01 0.7,4.98 4.69,8.83 9.7,9.36 0,0 0,0 0.01,0 0,0 0,0 0.01,0 0.38,0.04 0.77,0.07 1.16,0.07 4.33,0 8.26,-2.56 10.02,-6.52 0,0 0,0 0,0 0,0 0,0 0,0 0.63,-1.39 0.95,-2.89 0.95,-4.45 0,-3.04 -1.22,-5.87 -3.44,-7.98 -2.06,-1.95 -4.74,-3.01 -7.54,-3.01 z"
                       id="path14079"
                       style="fill:#ffffff" />
                    <path
                       d="m 32.65,24.36 c 0.17,0.07 0.32,0.16 0.48,0.24 0.32,0.16 0.64,0.31 0.94,0.48 0.19,0.1 0.36,0.22 0.54,0.33 0.27,0.16 0.54,0.32 0.8,0.5 0.19,0.13 0.37,0.26 0.55,0.39 0.24,0.17 0.48,0.35 0.71,0.53 0.18,0.14 0.35,0.29 0.53,0.44 0.22,0.18 0.44,0.37 0.65,0.56 0.17,0.16 0.34,0.32 0.51,0.48 0.2,0.19 0.4,0.39 0.59,0.59 0.16,0.17 0.32,0.34 0.48,0.51 0.18,0.2 0.37,0.41 0.54,0.62 0.15,0.18 0.3,0.36 0.44,0.54 0.17,0.21 0.33,0.43 0.5,0.64 0.14,0.19 0.27,0.37 0.41,0.56 0.15,0.22 0.3,0.44 0.45,0.67 0.13,0.19 0.25,0.38 0.37,0.57 0.14,0.23 0.28,0.46 0.41,0.69 0.11,0.19 0.23,0.38 0.33,0.58 0.13,0.24 0.25,0.47 0.38,0.71 0.1,0.19 0.2,0.38 0.29,0.57 0.12,0.25 0.23,0.49 0.34,0.74 0.08,0.18 0.17,0.36 0.25,0.55 0.11,0.26 0.21,0.52 0.32,0.78 0.07,0.17 0.14,0.33 0.2,0.49 0.11,0.31 0.22,0.61 0.32,0.91 0.04,0.12 0.08,0.24 0.12,0.35 0.13,0.41 0.26,0.82 0.36,1.22 1.44,-0.53 2.95,-0.8 4.52,-0.8 3.07,0 6.01,1.06 8.37,3.01 0.04,-0.03 0.09,-0.06 0.13,-0.09 0.13,-0.09 0.26,-0.19 0.39,-0.28 0.17,-0.12 0.34,-0.25 0.51,-0.38 0.13,-0.1 0.26,-0.21 0.39,-0.32 0.17,-0.14 0.34,-0.28 0.5,-0.42 0.13,-0.11 0.26,-0.23 0.39,-0.35 0.17,-0.15 0.33,-0.3 0.5,-0.46 0.13,-0.12 0.26,-0.25 0.39,-0.38 0.16,-0.16 0.32,-0.33 0.48,-0.5 0.13,-0.14 0.25,-0.27 0.38,-0.41 0.16,-0.17 0.31,-0.35 0.46,-0.53 0.13,-0.15 0.25,-0.29 0.37,-0.45 0.15,-0.18 0.3,-0.37 0.44,-0.56 0.12,-0.16 0.24,-0.31 0.35,-0.47 0.14,-0.2 0.28,-0.4 0.42,-0.6 0.11,-0.17 0.22,-0.33 0.33,-0.5 0.13,-0.21 0.26,-0.42 0.39,-0.63 0.1,-0.17 0.21,-0.35 0.31,-0.52 0.12,-0.22 0.24,-0.44 0.35,-0.66 0.09,-0.18 0.19,-0.36 0.28,-0.55 0.11,-0.23 0.21,-0.46 0.32,-0.7 0.08,-0.19 0.17,-0.37 0.24,-0.56 0.1,-0.24 0.18,-0.49 0.27,-0.74 0.07,-0.19 0.14,-0.38 0.2,-0.58 0.08,-0.26 0.15,-0.52 0.23,-0.79 0.05,-0.19 0.11,-0.38 0.16,-0.58 0.07,-0.28 0.12,-0.56 0.18,-0.85 0.04,-0.19 0.08,-0.37 0.11,-0.56 0.05,-0.32 0.09,-0.64 0.12,-0.97 0.02,-0.16 0.04,-0.32 0.06,-0.49 0.04,-0.49 0.06,-0.99 0.06,-1.5 0,-0.2 0,-0.41 -0.01,-0.61 C 67.84,12.38 60.88,4.95 49.45,4.95 c -11.23,0 -17.96,6.8 -18.57,18.7 0.09,0.03 0.18,0.06 0.26,0.09 0.52,0.19 1.02,0.39 1.51,0.62 z"
                       id="path14081"
                       style="fill:#ffffff" />
                    <path
                       d="m 46.23,70.81 c 0.01,-0.12 0.03,-0.23 0.04,-0.35 0.08,-0.72 0.2,-1.45 0.34,-2.16 0.02,-0.09 0.04,-0.18 0.06,-0.27 0.16,-0.75 0.35,-1.49 0.58,-2.22 0,0 0,-0.01 0,-0.01 -5.08,-1.06 -9.06,-5.03 -10.13,-10.13 -0.05,0 -0.09,-0.01 -0.13,-0.01 -0.26,-0.01 -0.53,-0.02 -0.81,-0.02 -0.15,0 -0.29,-0.01 -0.43,-0.01 -0.12,0 -0.23,0.01 -0.35,0.01 -0.26,0 -0.52,0.01 -0.78,0.02 -0.15,0.01 -0.3,0.02 -0.44,0.03 -0.24,0.02 -0.48,0.03 -0.72,0.05 -0.16,0.01 -0.33,0.03 -0.49,0.05 -0.23,0.03 -0.47,0.05 -0.7,0.09 -0.17,0.02 -0.34,0.05 -0.51,0.07 -0.23,0.04 -0.47,0.08 -0.7,0.12 -0.17,0.03 -0.35,0.06 -0.52,0.1 -0.24,0.05 -0.48,0.11 -0.73,0.16 -0.17,0.04 -0.33,0.08 -0.5,0.12 -0.28,0.07 -0.55,0.15 -0.83,0.23 -0.13,0.04 -0.27,0.07 -0.4,0.11 -0.4,0.12 -0.8,0.26 -1.19,0.41 -0.13,0.05 -0.26,0.11 -0.39,0.16 -0.27,0.11 -0.54,0.21 -0.8,0.33 -0.16,0.07 -0.32,0.15 -0.48,0.22 -0.23,0.11 -0.47,0.22 -0.7,0.34 -0.17,0.08 -0.33,0.18 -0.49,0.26 -0.22,0.12 -0.44,0.25 -0.66,0.38 -0.16,0.1 -0.32,0.2 -0.48,0.3 -0.21,0.14 -0.43,0.28 -0.63,0.43 -0.15,0.11 -0.31,0.22 -0.46,0.33 -0.21,0.16 -0.42,0.33 -0.63,0.5 -0.14,0.11 -0.28,0.22 -0.41,0.34 -0.22,0.2 -0.44,0.4 -0.66,0.61 -0.11,0.1 -0.22,0.2 -0.33,0.31 -0.32,0.32 -0.62,0.66 -0.92,1.01 -0.19,0.21 -0.33,0.37 -0.45,0.54 -7.87,10.39 -6.98,20.45 2.44,27.59 9.29,7.04 19.47,5.14 27.23,-5.08 0.27,-0.35 0.53,-0.73 0.8,-1.13 -0.03,-0.05 -0.05,-0.1 -0.07,-0.15 -0.33,-0.6 -0.63,-1.22 -0.89,-1.85 -0.04,-0.09 -0.08,-0.19 -0.11,-0.28 -0.27,-0.66 -0.51,-1.33 -0.71,-2.01 -0.02,-0.06 -0.03,-0.12 -0.05,-0.18 -0.21,-0.72 -0.38,-1.44 -0.52,-2.18 0,-0.01 0,-0.02 -0.01,-0.03 -0.14,-0.73 -0.23,-1.48 -0.3,-2.23 -0.01,-0.09 -0.02,-0.17 -0.03,-0.26 -0.06,-0.72 -0.08,-1.44 -0.08,-2.16 0,-0.12 0,-0.23 0,-0.35 0.01,-0.72 0.06,-1.44 0.13,-2.15 z"
                       id="path14083"
                       style="fill:#ffffff" />
                    <path
                       d="m 81.81,63.21 c -0.22,0.07 -0.44,0.12 -0.67,0.18 -0.14,0.04 -0.27,0.08 -0.41,0.11 -0.5,0.12 -1,0.22 -1.51,0.31 -0.09,0.02 -0.19,0.02 -0.28,0.04 -0.42,0.06 -0.85,0.11 -1.28,0.15 -0.17,0.01 -0.33,0.03 -0.5,0.04 -0.39,0.03 -0.78,0.04 -1.18,0.05 -0.1,0 -0.2,0.01 -0.3,0.01 -0.04,0 -0.08,-0.01 -0.12,-0.01 -0.59,0 -1.18,-0.03 -1.77,-0.08 -0.13,-0.01 -0.25,-0.02 -0.38,-0.04 -0.52,-0.05 -1.05,-0.12 -1.57,-0.2 -0.1,-0.02 -0.2,-0.03 -0.3,-0.05 -0.59,-0.1 -1.18,-0.23 -1.77,-0.38 C 69.65,63.31 69.52,63.27 69.4,63.24 68.87,63.1 68.34,62.94 67.82,62.76 67.74,62.73 67.66,62.71 67.58,62.68 67,62.48 66.43,62.25 65.86,62 c -0.12,-0.05 -0.25,-0.11 -0.37,-0.17 -0.52,-0.24 -1.03,-0.49 -1.54,-0.76 -0.06,-0.03 -0.11,-0.06 -0.17,-0.09 -0.54,-0.3 -1.08,-0.62 -1.6,-0.96 -0.12,-0.08 -0.24,-0.16 -0.36,-0.24 -0.16,-0.11 -0.32,-0.2 -0.47,-0.31 -2.41,4.21 -7.04,6.78 -11.92,6.6 -0.02,0.07 -0.05,0.15 -0.08,0.22 -0.06,0.18 -0.11,0.36 -0.17,0.54 -0.06,0.21 -0.12,0.42 -0.18,0.63 -0.05,0.19 -0.09,0.37 -0.14,0.56 -0.05,0.21 -0.1,0.42 -0.14,0.63 -0.04,0.19 -0.08,0.38 -0.11,0.57 -0.04,0.21 -0.07,0.42 -0.11,0.63 -0.03,0.19 -0.06,0.39 -0.08,0.58 -0.03,0.21 -0.05,0.42 -0.07,0.62 -0.02,0.2 -0.04,0.39 -0.05,0.59 -0.02,0.21 -0.03,0.42 -0.04,0.62 -0.01,0.2 -0.02,0.39 -0.02,0.59 -0.01,0.21 -0.01,0.41 -0.01,0.62 0,0.2 0,0.39 0.01,0.59 0.01,0.21 0.02,0.41 0.03,0.62 0.01,0.19 0.02,0.39 0.04,0.58 0.02,0.2 0.04,0.41 0.06,0.61 0.02,0.19 0.04,0.38 0.07,0.58 0.03,0.2 0.06,0.41 0.09,0.61 0.03,0.19 0.06,0.37 0.09,0.56 0.04,0.2 0.08,0.41 0.13,0.61 0.04,0.18 0.08,0.36 0.12,0.54 0.05,0.2 0.11,0.4 0.16,0.61 0.05,0.17 0.09,0.35 0.15,0.52 0.06,0.21 0.13,0.41 0.2,0.61 0.06,0.16 0.11,0.33 0.17,0.49 0.08,0.21 0.16,0.41 0.25,0.62 0.06,0.15 0.12,0.3 0.19,0.45 0.1,0.22 0.21,0.44 0.32,0.66 0.06,0.12 0.12,0.25 0.18,0.37 0.18,0.34 0.36,0.67 0.55,1 0.35,0.59 0.72,1.15 1.12,1.66 7.76,10.23 17.94,12.13 27.23,5.08 9.42,-7.14 10.31,-17.2 2.44,-27.59 0,-0.01 -0.01,-0.02 -0.02,-0.04 z"
                       id="path14085"
                       style="fill:#ffffff" />
                  </g>
                </g>
              </g>
            </g>
          </g>
          <g
             style="clip-rule:evenodd;fill:#ffffff;fill-rule:evenodd;image-rendering:optimizeQuality;shape-rendering:geometricPrecision;text-rendering:geometricPrecision"
             id="g14309"
             transform="matrix(0.0055363,0,0,0.00588103,474.05313,85.270442)">
            <g
               id="g14294"
               style="fill:#ffffff">
              <path
                 class="fil0"
                 d="m 7997,4424 1,2126 c 0,1079 -883,1961 -1962,1961 H 3964 C 2886,8511 2002,7628 2002,6550 V 4424 c 0,-98 119,-145 187,-77 L 4564,6383 V 4798 h -115 c -656,0 -1192,-536 -1192,-1193 v -924 c 0,-265 154,-828 361,-1018 120,-111 259,-90 345,44 l 438,679 444,-839 c 41,-79 152,-77 192,0 l 486,855 518,-701 c 95,-129 234,-141 352,-29 206,192 350,743 350,1009 v 924 c 0,657 -536,1193 -1192,1193 H 5436 V 6345 L 7819,4341 c 71,-60 177,-8 178,83 z"
                 id="path14292"
                 style="fill:#ffffff" />
            </g>
            <text
               x="0"
               y="10015"
               fill="#000000"
               font-size="5px"
               font-weight="bold"
               font-family="'Helvetica Neue', Helvetica, Arial-Unicode, Arial, Sans-serif"
               id="text14296"
               style="fill:#ffffff">Created by Ragal Kartidev</text>
            <text
               x="0"
               y="10020"
               fill="#000000"
               font-size="5px"
               font-weight="bold"
               font-family="'Helvetica Neue', Helvetica, Arial-Unicode, Arial, Sans-serif"
               id="text14298"
               style="fill:#ffffff">from the Noun Project</text>
          </g>
          <g
             id="g14355"
             transform="translate(257.19013,225.65606)">
            <path
               d="m 348.67841,-87.86754 c 0.79288,-1.981573 3.3456,-4.5811 5.92732,-6.735697 0.20306,-0.67563 0.38678,-1.34714 0.53182,-1.97746 a 24.942148,21.253503 0 0 0 0.58983,-3.806593 c 0,-3.31224 -3.18123,-5.03839 -7.04897,-5.03839 -3.86775,0 -7.04414,1.72615 -7.04414,5.03839 a 24.942148,21.253503 0 0 0 0.58983,3.818953 c 0.14504,0.63856 0.32876,1.30595 0.53181,1.9857 2.58173,2.133997 5.12961,4.737644 5.9225,6.715097 z"
               id="path14331"
               style="fill:#ffffff;stroke-width:0.446289" />
            <path
               d="m 346.63817,-86.866454 c -1.61962,-1.577843 -2.983,-4.754127 -3.86775,-7.728543 -0.58983,-0.49025 -1.17483,-0.95989 -1.75016,-1.38834 a 24.942148,21.253503 0 0 0 -3.57283,-2.33999 c -3.38428,-1.64787 -6.70088,-0.1895 -8.64926,2.68192 -1.94837,2.871431 -1.77916,6.076553 1.59062,7.724431 a 25.101692,21.389453 0 0 0 4.15783,1.466611 c 0.7252,0.205985 1.49391,0.41197 2.29164,0.593236 3.4713,-0.823939 7.3874,-1.408935 9.79991,-1.009325 z"
               id="path14333"
               style="fill:#ffffff;stroke-width:0.446289" />
            <path
               d="m 336.84309,-85.857129 c -0.79772,0.189506 -1.56644,0.391371 -2.29164,0.597356 a 25.034007,21.331777 0 0 0 -4.16266,1.462491 c -3.38428,1.647878 -3.54383,4.844761 -1.60029,7.720308 1.94355,2.875546 5.27465,4.333918 8.64926,2.677801 a 24.816446,21.146391 0 0 0 3.57283,-2.335867 c 0.5705,-0.432568 1.16516,-0.902213 1.75499,-1.392456 0.89442,-2.978539 2.26264,-6.179542 3.86775,-7.736786 -2.39317,0.416089 -6.3141,-0.168908 -9.79024,-0.992847 z"
               id="path14335"
               style="fill:#ffffff;stroke-width:0.446289" />
            <path
               d="m 366.96802,-83.797282 a 25.004999,21.307059 0 0 0 -4.15299,-1.466611 c -0.7252,-0.205984 -1.49875,-0.411969 -2.29648,-0.601475 0.79773,-0.181267 1.57128,-0.387251 2.29648,-0.597356 a 25.077519,21.368855 0 0 0 4.15299,-1.454252 c 3.38428,-1.647878 3.54383,-4.853 1.60029,-7.720311 -1.94355,-2.8673 -5.27465,-4.34215 -8.64926,-2.68604 a 25.565822,21.784944 0 0 0 -3.57767,2.33587 c -0.56566,0.43257 -1.15549,0.89809 -1.73565,1.38422 -0.89442,2.978536 -2.26747,6.179539 -3.86775,7.740903 2.41734,-0.41197 6.3141,0.177147 9.78541,1.001086 -3.47131,0.823938 -7.3874,1.413055 -9.79024,1.009325 1.61478,1.573723 2.98783,4.754127 3.86775,7.728546 -2.58173,-2.142241 -5.12961,-4.745888 -5.92249,-6.727461 -0.79289,1.977454 -3.34077,4.58522 -5.91766,6.727461 -0.20789,0.67975 -0.36744,1.35538 -0.53665,1.977454 a 24.942148,21.253503 0 0 0 -0.58983,3.806597 c 0,3.295756 3.15221,5.038386 7.04414,5.038386 3.89192,0 7.04413,-1.726152 7.04413,-5.038386 a 24.942148,21.253503 0 0 0 -0.58499,-3.806597 c -0.14504,-0.638553 -0.32876,-1.305944 -0.53182,-1.985693 0.585,0.498483 1.16999,0.959889 1.74532,1.388337 a 24.816446,21.146391 0 0 0 3.57284,2.335867 c 3.38428,1.647877 6.70087,0.193625 8.64925,-2.677802 1.94838,-2.871427 1.76466,-6.06419 -1.60512,-7.712068 z"
               id="path14337"
               style="fill:#ffffff;stroke-width:0.446289" />
          </g>
          <g
             id="g14550"
             transform="translate(216.33327,252.54006)">
            <path
               d="m 278.4232,-68.819893 c -0.15697,-0.689839 -0.24667,-1.373044 -0.24667,-2.03635 0,-5.790663 5.30711,-10.500137 11.8326,-10.500137 6.5255,0 11.83261,4.709474 11.83261,10.500137 0,0.663306 -0.0897,1.346511 -0.24667,2.03635 l -5.93499,6.745823 c -1.24829,-0.656673 -2.65355,-1.094455 -4.15599,-1.273547 v -5.405946 c 0,-0.729637 -0.67273,-1.326612 -1.49496,-1.326612 -0.82222,0 -1.49495,0.596975 -1.49495,1.326612 v 5.405946 c -1.50244,0.179092 -2.9077,0.616874 -4.15599,1.273547 z m 21.32559,20.237471 c -0.62788,0.968427 -1.43516,1.837358 -2.37698,2.566995 l 4.33538,4.928365 c 0.50829,0.577076 0.39616,1.412842 -0.25414,1.86389 -0.27657,0.185726 -0.59799,0.278589 -0.9194,0.278589 -0.44849,0 -0.88203,-0.17246 -1.18102,-0.510746 l -4.4774,-5.094192 c -1.04647,0.451049 -2.17517,0.762803 -3.37114,0.902097 v 11.375701 c 0,0.0066 0,0.0066 0,0.01327 2.1079,3.270099 6.00974,5.293183 10.2629,5.293183 6.5255,0 11.8326,-4.709474 11.8326,-10.500137 0,-2.799152 -1.23334,-5.412578 -3.46083,-7.395863 z m -20.59306,-2.460866 c -0.22424,-0.789334 -0.35879,-1.605201 -0.35879,-2.454233 0,-0.344919 0.0224,-0.676572 0.0598,-1.014858 l -5.6958,-1.996552 c -0.76242,-0.271955 -1.14364,-1.04139 -0.83717,-1.724596 0.30646,-0.676572 1.17354,-1.014858 1.94344,-0.742903 l 5.30711,1.863891 c 0.55313,-1.253649 1.38284,-2.387903 2.42183,-3.329797 l -5.92751,-6.739191 c -1.54728,-0.630141 -3.18426,-0.955161 -4.87357,-0.955161 -6.5255,0 -11.8326,4.709474 -11.8326,10.500137 0,5.041127 3.98407,9.299552 9.51542,10.274612 z m 29.66747,-17.0934 c -1.68931,0 -3.32629,0.32502 -4.87357,0.955161 l -5.92751,6.739191 c 1.03899,0.941894 1.86869,2.076148 2.42183,3.329797 l 5.30711,-1.863891 c 0.7699,-0.271955 1.63698,0.06633 1.94344,0.742903 0.30647,0.683206 -0.0747,1.452641 -0.83717,1.724596 l -5.6958,1.996552 c 0.0374,0.338286 0.0598,0.669939 0.0598,1.014858 0,0.849032 -0.13455,1.664899 -0.35879,2.454233 l 10.27785,3.681349 c 5.53134,-0.97506 9.51541,-5.233485 9.51541,-10.274612 0,-5.790663 -5.3071,-10.500137 -11.8326,-10.500137 z m -28.15756,28.681359 c -0.29899,0.338286 -0.73253,0.510746 -1.18102,0.510746 -0.32142,0 -0.64283,-0.09286 -0.9194,-0.278589 -0.65031,-0.451048 -0.76243,-1.286814 -0.25414,-1.86389 l 4.33538,-4.928365 c -0.94182,-0.729637 -1.7491,-1.598568 -2.36951,-2.566995 l -10.39744,3.721148 c -2.22749,1.983285 -3.46083,4.596711 -3.46083,7.395863 0,5.790663 5.3071,10.500137 11.8326,10.500137 4.25316,0 8.155,-2.023084 10.2629,-5.293183 0,-0.0066 0,-0.0066 0,-0.01327 v -11.375697 c -1.19597,-0.139294 -2.32467,-0.451048 -3.37114,-0.902097 z m 17.56577,-14.042192 c 0,-4.026268 -3.68507,-7.296368 -8.22228,-7.296368 -4.5372,0 -8.22227,3.2701 -8.22227,7.296368 0,4.026269 3.68507,7.296368 8.22227,7.296368 4.53721,0 8.22228,-3.270099 8.22228,-7.296368 z"
               id="path14535"
               style="fill:#ffffff;stroke-width:0.704136" />
          </g>
        </g>
      </g>
    </g>
    <path
       style="opacity:0.197605;fill:#000000;stroke:#000000;stroke-width:0.0535519;stroke-opacity:0.0148026"
       d="m 28.930945,101.77568 c -0.08855,-0.0885 -0.492519,-0.17153 -0.897702,-0.18439 -0.615437,-0.0195 -0.786882,-0.0863 -1.041591,-0.40574 -0.167693,-0.21031 -0.405482,-0.38238 -0.52842,-0.38238 -0.349211,0 -0.970188,-0.55681 -0.970188,-0.869935 0,-0.155435 -0.228888,-0.498478 -0.50864,-0.762318 -0.436531,-0.411702 -0.495305,-0.540419 -0.414578,-0.907963 0.0634,-0.288671 0.02138,-0.532032 -0.128963,-0.746662 -0.28342,-0.404638 -0.28342,-0.814517 0,-1.219155 0.150333,-0.21463 0.192365,-0.457991 0.128963,-0.746662 -0.08073,-0.367543 -0.02196,-0.49626 0.414578,-0.907962 0.279752,-0.26384 0.50864,-0.582531 0.50864,-0.708197 0,-0.305356 0.632481,-0.924055 0.944639,-0.924055 0.136991,0 0.386276,-0.172069 0.553969,-0.382376 0.254709,-0.319437 0.426154,-0.38622 1.041591,-0.405749 0.405183,-0.01286 0.809148,-0.09583 0.897702,-0.184383 0.224525,-0.224525 0.846889,-0.20093 1.175342,0.04456 0.18223,0.136202 0.452232,0.178239 0.800156,0.124573 0.454287,-0.07007 0.584764,-0.02135 0.967301,0.361191 0.243202,0.243202 0.504206,0.442185 0.580009,0.442185 0.369784,0 0.978926,0.466802 1.066498,0.81729 0.05319,0.212886 0.2823,0.560803 0.509127,0.773144 0.313579,0.29355 0.40513,0.49729 0.382014,0.850135 -0.01672,0.255233 0.0673,0.684464 0.186724,0.95385 0.207629,0.468368 0.169074,0.833329 -0.141052,1.335122 -0.05257,0.08506 -0.07751,0.364402 -0.05542,0.620757 0.03118,0.361953 -0.052,0.552366 -0.372261,0.852175 -0.226827,0.212342 -0.455935,0.560258 -0.509127,0.773145 -0.08757,0.35049 -0.696714,0.81729 -1.066498,0.81729 -0.0758,0 -0.336807,0.19898 -0.580009,0.44219 -0.382537,0.38253 -0.513014,0.43125 -0.967301,0.36119 -0.347924,-0.0537 -0.617926,-0.0116 -0.800156,0.12457 -0.328453,0.24549 -0.950817,0.26908 -1.175342,0.0446 z"
       id="path1475" />
    <path
       style="opacity:0.197605;fill:#000000;stroke:#000000;stroke-width:0.0404184;stroke-opacity:0.0148026"
       d="M 18.66882,37.86523 C 18.437814,37.779073 18.111892,37.607353 17.944547,37.48363 17.465103,37.129162 16.187329,36.860802 14.41377,36.74209 12.023515,36.582101 11.828942,36.505528 10.592642,35.238302 9.5886193,34.209166 8.9099169,33.739725 8.4258035,33.739558 7.9669293,33.739451 6.881203,33.125319 6.1799071,32.469291 5.4511375,31.787563 4.9725688,30.998379 4.8666223,30.303617 4.7767159,29.714039 4.0773449,28.725064 2.8496873,27.451482 1.275925,25.818849 1.2858343,25.845132 1.4453103,23.726602 1.5385579,22.487873 1.4881023,22.274592 0.85324047,21.22386 0.62065893,20.838924 0.35067946,20.20107 0.2532861,19.806404 c -0.16481166,-0.667863 -0.16481166,-0.767283 0,-1.435146 0.0973934,-0.394665 0.36737283,-1.03252 0.59995437,-1.417455 C 1.4881023,15.90307 1.5385579,15.689789 1.4453103,14.45106 1.2852425,12.324669 1.2712889,12.360846 2.9020743,10.674102 4.1281392,9.4059653 4.9192506,8.3154254 4.9192506,7.8934424 c 0,-1.0249859 2.3978754,-3.4504981 3.4150589,-3.4544193 0.5339684,-0.00206 1.2452573,-0.476183 2.2633045,-1.5086534 1.242039,-1.2596354 1.435612,-1.3354584 3.816156,-1.4947975 1.836881,-0.1229496 3.000704,-0.376493 3.602361,-0.7847887 0.589322,-0.39992472 1.16465,-0.52342139 2.134299,-0.45813721 0.754432,0.0507941 0.972089,0.11982806 1.977889,0.62732578 l 1.130169,0.57025093 1.016439,-0.00468 c 0.55904,-0.00258 1.401422,-0.023731 1.871959,-0.047014 1.115429,-0.055193 1.378517,0.074595 2.763787,1.363447 1.323735,1.2315997 2.042782,1.7360161 2.474857,1.7361293 0.420581,1.069e-4 1.502156,0.5162093 2.224099,1.0612813 0.784467,0.5922783 1.21964,1.1658928 1.625333,2.1424027 0.43155,1.0387464 0.847337,1.652028 1.841032,2.7155057 1.240324,1.327424 1.344924,1.561249 1.439443,3.217758 0.08294,1.453574 0.326557,2.580833 0.890381,4.119961 0.258008,0.704314 0.287455,0.913709 0.249742,1.775953 -0.04035,0.922499 -0.07203,1.034017 -0.563145,1.981991 l -0.520393,1.004492 -0.06884,1.764513 c -0.08207,2.103548 -0.114494,2.187433 -1.363978,3.529029 -1.05904,1.137112 -1.468242,1.735437 -1.903646,2.78346 -0.188975,0.454868 -0.482556,1.002637 -0.652401,1.217266 -0.704339,0.890055 -2.477408,1.987658 -3.211166,1.987841 -0.412481,1.04e-4 -1.244167,0.59266 -2.524454,1.798612 -1.25175,1.179072 -1.612941,1.352959 -2.700647,1.30016 -0.470537,-0.02284 -1.312919,-0.04363 -1.871959,-0.04621 l -1.016439,-0.0047 -1.138064,0.574233 c -1.074289,0.542054 -1.191118,0.576642 -2.084828,0.617219 -0.661701,0.03004 -1.073227,-0.0042 -1.366776,-0.113661 z"
       id="path3108"
       transform="matrix(0.26458333,0,0,0.26458333,24.202711,91.856047)" />
    <path
       style="opacity:0.197605;fill:#000000;stroke:#000000;stroke-width:0.0404184;stroke-opacity:0.0148026"
       d="m 18.158462,37.54323 c -0.917525,-0.489302 -1.643161,-0.650316 -3.873315,-0.859467 -1.209821,-0.11346 -1.957131,-0.235053 -2.255327,-0.36696 -0.245284,-0.1085 -0.933655,-0.658194 -1.529715,-1.22154 C 9.2847044,33.946566 9.2035081,33.892319 8.3775297,33.677179 7.6460851,33.486662 7.0112307,33.120363 6.2911509,32.473378 5.5926296,31.845762 5.1843819,31.205514 4.9169737,30.318279 4.6754918,29.517066 4.1511253,28.784038 2.6360078,27.129648 1.4238763,25.806096 1.3809034,25.682692 1.4667949,23.772061 l 0.061088,-1.358894 -0.63026632,-1.247866 c -0.60746654,-1.202723 -0.6302663,-1.277839 -0.6302663,-2.07647 0,-0.797376 0.0234401,-0.875015 0.62194354,-2.059992 L 1.5112376,15.797453 1.4774654,14.2082 C 1.4371111,12.309207 1.4247229,12.339446 2.8889186,10.762894 4.1556311,9.3989794 4.7900768,8.5425283 4.9204289,8.0205173 5.108912,7.265714 5.4892611,6.6557464 6.2560035,5.8786496 7.0933891,5.0299557 7.7143235,4.6322008 8.4941802,4.4449302 9.1455267,4.2885194 9.4279974,4.0917113 10.628343,2.9579768 11.150982,2.4643411 11.780464,1.9711613 12.027192,1.8620216 12.328463,1.7287552 13.07001,1.6078581 14.285147,1.4938992 16.513897,1.2848809 17.224405,1.1273312 18.1684,0.63281932 18.893123,0.25317294 18.923618,0.2472494 19.959715,0.284874 c 1.028958,0.0373654 1.080661,0.0517618 2.172687,0.60496935 l 1.118646,0.56669305 1.92915,-0.027199 c 1.596768,-0.022513 1.984426,0.00216 2.249971,0.1431918 0.176452,0.093715 0.892787,0.6773129 1.591855,1.2968841 1.334972,1.1831619 1.749213,1.4428868 2.782757,1.7447639 0.747386,0.2182961 2.005218,1.0122926 2.501461,1.5790271 0.193995,0.2215522 0.588006,0.8787247 0.875579,1.4603835 0.625617,1.2654055 0.914764,1.6868648 1.973987,2.8772782 0.443504,0.498435 0.887038,1.075912 0.985633,1.283283 0.09859,0.20737 0.222456,0.810145 0.275249,1.339499 0.177299,1.777782 0.394387,2.913069 0.773978,4.047627 0.324863,0.970979 0.377217,1.266869 0.377217,2.131895 0,0.98824 -0.0086,1.022064 -0.534701,2.097843 -0.488617,0.99917 -0.534951,1.159647 -0.537599,1.861972 -0.0046,1.223463 -0.178013,2.69863 -0.36305,3.088567 -0.0937,0.197449 -0.533223,0.766809 -0.976727,1.265244 -1.067054,1.199215 -1.312783,1.559963 -2.028644,2.978181 -0.512007,1.014354 -0.69961,1.276933 -1.224294,1.71358 -0.822286,0.684313 -1.629459,1.13341 -2.392368,1.331072 -0.777791,0.201518 -1.109275,0.422989 -2.583048,1.725787 -0.646922,0.571871 -1.320645,1.115359 -1.497163,1.207753 -0.262743,0.137525 -0.671065,0.16371 -2.251701,0.144402 l -1.930759,-0.02358 -1.117038,0.566428 c -1.098261,0.556906 -1.135013,0.567002 -2.18644,0.600667 -1.050291,0.03363 -1.082207,0.02741 -1.785891,-0.347852 z"
       id="path3147"
       transform="matrix(0.26458333,0,0,0.26458333,24.202711,91.856047)" />
    <path
       style="opacity:0.197605;fill:#000000;stroke:#000000;stroke-width:0.0404184;stroke-opacity:0.0148026"
       d="M 18.126369,37.478204 C 17.227506,37.047116 16.490631,36.877398 14.676253,36.68357 11.935809,36.39081 12.159373,36.488956 10.114973,34.681124 9.3777487,34.029207 9.0586575,33.821584 8.5802115,33.682495 6.8587357,33.182049 5.4810975,31.90553 4.9761006,30.342929 4.7331071,29.59104 4.1838746,28.797619 2.898781,27.342037 1.5187328,25.778902 1.4534083,25.609989 1.5196366,23.775896 L 1.5705559,22.365768 0.97242335,21.181796 C 0.38597971,20.020961 0.37429081,19.980059 0.37429081,19.088831 c 0,-0.885435 0.0148789,-0.938708 0.57414285,-2.05567 l 0.57414284,-1.14668 0.014028,-1.696457 C 1.5529507,12.213324 1.48238,12.378471 3.0470816,10.65528 4.2705261,9.3079131 4.646179,8.7762993 5.0146781,7.8707913 5.3971286,6.9310011 6.0088783,6.1038847 6.8199679,5.4299492 7.4182268,4.932855 7.7555086,4.7545106 8.7879067,4.3893627 9.1238168,4.2705549 9.6847287,3.8635729 10.496795,3.1494404 c 0.664868,-0.5846852 1.363929,-1.1366537 1.55347,-1.2265967 0.189541,-0.089943 1.201096,-0.260098 2.247899,-0.3781222 2.195532,-0.2475399 2.915984,-0.4080394 3.881675,-0.86474377 0.632797,-0.29926813 0.786189,-0.32771872 1.711044,-0.31735861 0.999938,0.0112012 1.034451,0.0203689 2.192275,0.58234444 l 1.176342,0.57096414 1.460178,-0.04972 c 2.486368,-0.084662 2.43159,-0.1023431 4.13583,1.3349311 1.411792,1.190638 2.003124,1.555167 3.25577,2.0070312 0.678645,0.2448057 1.701169,0.9371951 2.138377,1.4479742 0.19423,0.2269146 0.587936,0.8610966 0.874901,1.4092933 0.657007,1.255098 0.907271,1.6223123 1.918276,2.8147055 0.448828,0.529354 0.90777,1.154954 1.019871,1.390223 0.121581,0.255164 0.275709,1.010271 0.381988,1.871454 0.196722,1.594025 0.339257,2.282051 0.753245,3.635968 0.212298,0.694303 0.279906,1.151997 0.28625,1.937877 0.0081,1.005377 -0.0029,1.053025 -0.482764,2.085335 -0.48401,1.04126 -0.492683,1.079511 -0.603263,2.660552 -0.0617,0.882257 -0.163842,1.788034 -0.22697,2.012838 -0.06879,0.24496 -0.45678,0.815503 -0.968323,1.423919 -1.146686,1.363838 -1.47132,1.837261 -2.079869,3.033127 -0.661787,1.300482 -1.403751,2.055337 -2.617238,2.662706 -0.481919,0.241209 -0.944429,0.438561 -1.027799,0.438561 -0.356971,0 -1.25587,0.598628 -2.615678,1.741929 -1.697754,1.42744 -1.578055,1.387879 -4.086518,1.350627 l -1.623204,-0.0241 -1.113392,0.551109 -1.113391,0.551109 -1.078884,-0.0087 c -0.958498,-0.0077 -1.150479,-0.04306 -1.720524,-0.316447 z"
       id="path3186"
       transform="matrix(0.26458333,0,0,0.26458333,24.202711,91.856047)" />
    <path
       style="opacity:0.197605;fill:#000000;stroke:#000000;stroke-width:0.0404184;stroke-opacity:0.0148026"
       d="M 19.195771,37.693401 C 18.842869,37.649011 18.249973,37.4854 17.878225,37.329819 17.051435,36.983798 16.112107,36.79116 14.217677,36.579112 12.17022,36.349937 12.023398,36.288308 10.640553,35.077585 9.4857894,34.066555 9.1612793,33.851598 8.3107056,33.534282 6.6636097,32.919817 5.5281887,31.78498 4.9658535,30.191151 4.7544705,29.592028 4.1925296,28.786268 3.1053801,27.52344 2.5801866,26.913378 2.0230233,26.182858 1.8672392,25.900062 1.5960713,25.407808 1.5844358,25.320333 1.5943206,23.848284 l 0.010325,-1.537602 -0.59617,-1.2099 -0.59617011,-1.209899 0.0372476,-0.908992 c 0.034856,-0.850627 0.0731179,-0.979529 0.59589911,-2.007548 l 0.5586514,-1.098557 0.00235,-1.574949 c 0.0028,-1.879645 0.065695,-2.063154 1.0951208,-3.195428 C 4.0580954,9.6133601 4.5077154,9.0005339 5.0733225,7.8727456 5.9517941,6.1211231 6.884309,5.2067008 8.456323,4.5553821 9.0695072,4.3013269 9.5958835,3.9490907 10.621833,3.1062841 11.36731,2.4938823 12.061474,1.9691103 12.164421,1.940124 12.525487,1.8384601 13.007292,1.7620117 14.650812,1.5456065 16.5616,1.2940096 17.313928,1.1178957 18.161729,0.72372947 18.684427,0.48071245 18.915442,0.44089566 19.837413,0.4349152 l 1.069402,-0.006937 1.164126,0.56169704 1.164127,0.56169706 1.830199,-0.027105 c 2.182132,-0.032317 2.050673,-0.081128 3.969006,1.4737207 0.898929,0.7286005 1.555533,1.1648536 2.192274,1.4565628 2.461824,1.1278316 2.863902,1.4676603 3.880318,3.2795819 0.399069,0.7114035 1.2049,1.9008208 1.790735,2.6431493 1.212876,1.536871 1.253415,1.637407 1.595623,3.957083 0.121831,0.825845 0.36644,2.004861 0.543575,2.620036 0.192417,0.668251 0.347619,1.505932 0.38555,2.080959 0.06773,1.026825 0.02003,1.233485 -0.647277,2.804216 -0.227494,0.535478 -0.313494,1.001074 -0.440428,2.384418 -0.184352,2.009086 -0.2024,2.053938 -1.440808,3.580465 -0.867912,1.069833 -1.212872,1.591541 -1.979887,2.994327 -0.572334,1.046734 -1.412637,1.837274 -2.536612,2.386394 -0.50381,0.246137 -0.983482,0.447522 -1.065937,0.447522 -0.242881,0 -1.118759,0.599541 -2.371405,1.623234 -1.780665,1.455202 -1.685737,1.421171 -3.96945,1.423012 l -1.924924,0.0015 -1.094194,0.561436 c -1.175815,0.603317 -1.337635,0.629827 -2.755655,0.451466 z"
       id="path3225"
       transform="matrix(0.26458333,0,0,0.26458333,24.202711,91.856047)" />
    <path
       style="opacity:0.197605;fill:#000000;stroke:#000000;stroke-width:0.0404184;stroke-opacity:0.0148026"
       d="M 18.50066,37.465005 C 16.914566,36.971708 15.898747,36.747456 14.306575,36.539116 13.33744,36.412302 12.430012,36.232641 12.16375,36.114861 11.90974,36.0025 11.19843,35.487266 10.583062,34.969895 9.7029244,34.229919 9.206392,33.90787 8.2558158,33.460453 6.5536694,32.659287 5.8589882,31.982758 5.0856487,30.373124 4.6466301,29.459347 4.2576605,28.870446 3.3537286,27.75099 1.5874291,25.563552 1.6739427,25.760989 1.6218501,23.798582 L 1.5777331,22.136628 0.99992797,20.983181 0.42212291,19.829733 0.51639282,18.897847 c 0.0793056,-0.783961 0.17068448,-1.084669 0.57565328,-1.89435 l 0.4813835,-0.962462 0.064636,-1.632721 C 1.7177016,12.396668 1.7855198,12.222387 3.0451392,10.792379 4.1368361,9.5530077 4.6002312,8.8919843 5.2486129,7.6491695 5.9584577,6.2885423 6.8981257,5.3822876 8.3948081,4.6148486 9.1549278,4.2250896 10.022059,3.653574 10.845522,2.999613 c 0.700904,-0.5566298 1.398689,-1.0382034 1.550633,-1.0701636 0.151944,-0.03196 1.112259,-0.1785958 2.134032,-0.325857 2.057306,-0.2965052 2.752578,-0.4562638 3.703122,-0.85089726 0.532247,-0.22097088 0.819771,-0.26682031 1.686446,-0.26892582 1.038634,-0.002523 1.050633,4.6091e-4 2.031864,0.50542782 l 0.987061,0.50796606 2.031864,0.054984 c 1.602585,0.043367 2.099645,0.091974 2.352685,0.2300658 0.176451,0.096295 0.915199,0.6378178 1.64166,1.2033837 0.954861,0.7433796 1.738456,1.2402032 2.828042,1.7930684 1.844087,0.9357052 2.328562,1.3815731 3.337727,3.0717508 0.400679,0.6710668 1.172083,1.8099481 1.714232,2.5308471 0.559433,0.743882 1.061766,1.533893 1.161556,1.826762 0.09671,0.28382 0.294602,1.214232 0.439766,2.067583 0.145165,0.853351 0.39013,2.056839 0.544366,2.674419 0.163128,0.653179 0.30288,1.570199 0.334099,2.192274 0.05225,1.041098 0.04333,1.094877 -0.336942,2.031865 -0.379923,0.936129 -0.560436,1.800778 -0.796705,3.816177 -0.127819,1.090313 -0.308407,1.482584 -1.197734,2.601708 -0.724316,0.911475 -1.554305,2.147849 -2.130781,3.174063 -0.20586,0.366463 -0.646839,0.940649 -0.979955,1.275969 -0.587722,0.591613 -0.706312,0.660649 -3.045413,1.772867 -0.184762,0.08785 -0.975143,0.663362 -1.756402,1.278909 -0.78126,0.615548 -1.568492,1.198584 -1.749405,1.295636 -0.258799,0.138835 -0.762149,0.189254 -2.360796,0.236472 l -2.031864,0.06001 -1.008171,0.505225 c -0.960573,0.481374 -1.048927,0.504866 -1.871454,0.497607 -0.546157,-0.0048 -1.118632,-0.08704 -1.558395,-0.223808 z"
       id="path3264"
       transform="matrix(0.26458333,0,0,0.26458333,24.202711,91.856047)" />
    <path
       style="opacity:0.197605;fill:#000000;stroke:#000000;stroke-width:0.0404184;stroke-opacity:0.0148026"
       d="m 19.382966,37.574259 c -0.36758,-0.0433 -1.065365,-0.199001 -1.550633,-0.345994 C 16.969791,36.966994 15.664613,36.70462 13.542113,36.36582 12.961737,36.27318 12.336136,36.125651 12.15189,36.037979 11.967643,35.950309 11.292016,35.467734 10.650497,34.965592 10.008978,34.463449 9.006923,33.807496 8.4237085,33.507921 6.5435412,32.542144 6.0052326,32.019739 5.0811194,30.264085 4.5813201,29.314553 4.0289563,28.521896 2.8454772,27.055878 1.8541835,25.827928 1.7408563,25.50222 1.6564552,23.638578 L 1.584025,22.039261 1.0434012,20.965072 C 0.57743715,20.039228 0.50573146,19.813573 0.52416901,19.331068 0.5538893,18.553298 0.78865601,17.719107 1.2174569,16.867622 1.5641636,16.179154 1.5874432,16.060316 1.6896916,14.456954 1.8164781,12.468805 1.949996,12.108646 3.0053893,10.907904 3.9832162,9.7954105 4.5352479,9.0210537 5.2079545,7.8182778 6.0280797,6.3519229 6.8497024,5.5424958 8.4166554,4.6572049 9.0756598,4.2848832 10.086245,3.6233354 10.6624,3.1870986 12.273862,1.9669783 12.154511,2.0153354 14.437757,1.6574441 16.651865,1.3103899 17.361216,1.1508528 18.28678,0.79177664 18.724251,0.62205783 19.135251,0.55989173 19.890883,0.5491471 c 0.999376,-0.0142105 1.03336,-0.006281 2.085334,0.4865618 l 1.069403,0.5010078 1.80569,0.06599 c 0.993129,0.036295 1.948191,0.094491 2.12236,0.1293243 0.17417,0.034834 1.008165,0.5737161 1.853324,1.197516 0.845159,0.6237999 2.118161,1.4463333 2.828893,1.8278517 1.898351,1.019029 2.299619,1.373077 3.301514,2.913 0.469691,0.7219193 1.25999,1.8900579 1.75622,2.5958633 0.49623,0.705806 0.987917,1.451598 1.092637,1.657316 0.10472,0.205719 0.402661,1.408796 0.662089,2.673506 0.973658,4.746558 0.994832,5.08629 0.420972,6.754125 -0.250477,0.727969 -0.456684,1.636466 -0.603047,2.656873 -0.122329,0.852848 -0.2932,1.767187 -0.379713,2.031864 -0.08651,0.264677 -0.51153,0.949704 -0.944484,1.522282 -0.432954,0.572578 -1.041283,1.438794 -1.351843,1.924924 -1.742713,2.727936 -1.825823,2.812537 -3.66048,3.72622 -0.929257,0.462782 -1.782508,1.009547 -2.928233,1.876415 -0.889271,0.672832 -1.769412,1.267084 -1.955868,1.320559 -0.186457,0.05348 -1.167241,0.127137 -2.179521,0.163694 l -1.84051,0.06647 -1.015932,0.46538 c -1.094215,0.501242 -1.603184,0.59131 -2.646722,0.468372 z"
       id="path3303"
       transform="matrix(0.26458333,0,0,0.26458333,24.202711,91.856047)" />
    <path
       style="opacity:0.197605;fill:#000000;stroke:#000000;stroke-width:0.0404184;stroke-opacity:0.0148026"
       d="m 19.249242,37.515101 c -0.147043,-0.02489 -0.700459,-0.157803 -1.229813,-0.295353 -1.064329,-0.276562 -2.670941,-0.604071 -4.224139,-0.861094 -0.558763,-0.09247 -1.171748,-0.217815 -1.362188,-0.278556 -0.19044,-0.06074 -0.96041,-0.562879 -1.711044,-1.11586 C 9.9714249,34.411256 8.8791252,33.704979 8.2947257,33.394734 6.9282668,32.669309 6.0926583,31.896076 5.4157258,30.730642 4.6788648,29.462034 3.8719981,28.2688 3.0393123,27.216289 1.9556898,25.846594 1.8343125,25.516446 1.7128187,23.6082 1.6110893,22.010385 1.6089086,22.000704 1.1282681,21.013175 0.86292589,20.468 0.61770105,19.87202 0.58332399,19.688774 0.49168559,19.200299 0.79047898,17.923108 1.218019,16.975771 1.5455917,16.24994 1.6059607,15.976732 1.7081185,14.757752 1.9007239,12.459521 1.9528895,12.296069 2.8393547,11.213214 3.9477227,9.8592958 4.6480996,8.8810238 5.2400713,7.8599423 6.0433348,6.4744076 6.9858883,5.5541571 8.5687363,4.6100418 9.2482942,4.2047085 10.257131,3.5367483 10.810596,3.1256858 c 0.553464,-0.4110625 1.198792,-0.8331864 1.43406,-0.9380529 0.235269,-0.1048666 1.33234,-0.3414326 2.437936,-0.525702 1.105595,-0.1842696 2.428981,-0.4587081 2.940857,-0.6098634 1.486337,-0.43891174 1.740396,-0.48264164 2.588255,-0.44550487 0.685153,0.0300102 0.94186,0.10229517 1.761292,0.49595537 l 0.959241,0.460825 2.005324,0.095203 c 1.17224,0.055652 2.106542,0.1487924 2.248966,0.2241977 0.134004,0.070947 0.893304,0.5819069 1.687335,1.1354666 0.794032,0.5535597 2.059634,1.3619837 2.812449,1.7964978 2.197515,1.2683733 2.094882,1.1581911 4.701829,5.0477248 1.392816,2.0780661 1.458573,2.2011051 1.679651,3.1427751 0.393211,1.674858 0.937786,4.486476 1.072647,5.538029 0.147483,1.149971 0.109369,1.491136 -0.323791,2.898279 -0.172002,0.558763 -0.435187,1.737779 -0.584855,2.620036 -0.149668,0.882257 -0.322686,1.759394 -0.384486,1.949193 -0.0618,0.1898 -0.476266,0.863523 -0.921035,1.497163 -0.444769,0.633641 -1.279492,1.854661 -1.854941,2.713377 -0.575449,0.858717 -1.245864,1.732149 -1.489814,1.940961 -0.243949,0.208811 -1.005953,0.675407 -1.693342,1.03688 -0.687388,0.361474 -1.875398,1.115068 -2.640021,1.674653 -2.224761,1.628182 -1.93055,1.516116 -4.304023,1.639417 -1.948446,0.101221 -2.081366,0.122081 -2.669637,0.418975 -1.128706,0.569646 -2.05241,0.747633 -3.025251,0.58293 z"
       id="path3342"
       transform="matrix(0.26458333,0,0,0.26458333,24.202711,91.856047)" />
    <path
       style="opacity:0.197605;fill:#000000;stroke:#000000;stroke-width:0.0404184;stroke-opacity:0.0148026"
       d="M 17.859019,37.149848 C 17.182622,36.979369 15.690805,36.668204 14.543871,36.45837 l -2.085334,-0.381516 -1.711044,-1.15271 C 9.8064192,34.290153 8.6274031,33.538215 8.1274576,33.253169 6.8889326,32.547021 5.9883163,31.62275 5.1061294,30.152489 4.7163867,29.50294 3.9313455,28.347986 3.3615937,27.585923 1.9200457,25.657806 1.918631,25.65402 1.7119212,23.171472 1.6201957,22.069865 1.5673448,21.865126 1.1263684,20.9031 0.47148695,19.474425 0.4953156,18.881412 1.2870564,16.904133 1.542185,16.266979 1.6409677,15.774142 1.775133,14.469066 1.8813927,13.435437 2.0169528,12.664432 2.1432132,12.37559 2.2531421,12.124109 2.7485168,11.401579 3.2440458,10.769966 3.7395748,10.138354 4.5675637,8.9730476 5.0840213,8.1803963 5.6004787,7.3877451 6.2920068,6.4722679 6.6207502,6.1460027 6.9517245,5.8175233 8.3400139,4.8067488 9.7316392,3.8810518 12.521281,2.0254061 12.237454,2.1436669 15.185513,1.6086168 16.038361,1.4538314 17.285736,1.1806057 17.957455,1.0014485 18.989591,0.72616356 19.329161,0.68153221 20.14973,0.71330766 c 0.877138,0.033966 1.064919,0.0814064 1.943238,0.49093264 0.867075,0.4042831 1.057993,0.4534322 1.764514,0.4542479 0.435732,5.027e-4 1.345657,0.049695 2.022054,0.1093153 l 1.229813,0.1084005 1.817984,1.2125667 c 0.999891,0.6669118 2.359219,1.5350397 3.020728,1.9291733 1.494041,0.8901631 1.708191,1.0702481 2.47588,2.0820422 0.784903,1.0344816 2.904109,4.2065728 3.207102,4.8004878 0.437989,0.858528 1.509082,6.163039 1.509082,7.473616 0,0.458497 -0.128201,1.191228 -0.368653,2.107035 -0.20276,0.772246 -0.497242,2.101869 -0.654406,2.954718 -0.328774,1.784086 -0.251035,1.628158 -2.31925,4.6519 -1.790706,2.618021 -2.165835,3.052507 -3.109346,3.601338 -1.927303,1.121092 -2.559101,1.519021 -3.707667,2.33522 -1.850474,1.314993 -1.752989,1.280393 -4.083142,1.449185 -1.612582,0.116812 -2.120062,0.192087 -2.52345,0.374299 -1.646423,0.7437 -2.528744,0.802725 -4.515192,0.302063 z"
       id="path3381"
       transform="matrix(0.26458333,0,0,0.26458333,24.202711,91.856047)" />
    <path
       style="opacity:0.197605;fill:#000000;stroke:#000000;stroke-width:0.0404184;stroke-opacity:0.0148026"
       d="M 18.50066,37.257276 C 18.2948,37.204234 16.851107,36.902951 15.292453,36.587759 L 12.458537,36.014683 10.517768,34.743488 C 9.4503443,34.044331 8.2979567,33.303861 7.956906,33.098002 6.916709,32.470133 6.0109219,31.477363 4.7858646,29.622444 4.1643446,28.68137 3.3416553,27.479222 2.9576662,26.951004 2.1213615,25.800579 1.9711739,25.359158 1.7743679,23.473143 1.6449813,22.233216 1.5618742,21.875883 1.1861376,20.943944 0.55938299,19.389405 0.57369174,18.962942 1.3224251,16.881981 1.4921786,16.410184 1.6813569,15.476838 1.8179386,14.437277 1.9394491,13.512425 2.1022888,12.604645 2.1798045,12.419987 2.2573203,12.23533 2.7523212,11.506125 3.2798064,10.799533 3.8072918,10.092941 4.5778783,9.0101708 4.9922209,8.3933777 6.4691726,6.1947778 6.7852156,5.903772 10.097635,3.6924195 12.169513,2.3092461 12.50848,2.1707988 15.078573,1.6580154 c 1.205751,-0.2405708 2.576406,-0.5354564 3.0459,-0.6553014 0.569503,-0.14537345 1.174606,-0.21521651 1.817984,-0.20983793 1.073232,0.008972 1.295853,0.0590887 2.31071,0.52019003 0.656308,0.2981935 0.846585,0.3290087 2.770256,0.4486404 l 2.065544,0.1284547 1.560824,1.0428756 c 0.858454,0.5735815 2.234548,1.4637151 3.057988,1.9780748 0.823439,0.5143596 1.682601,1.1115956 1.909247,1.3271911 0.623616,0.5932078 3.374139,4.5284973 3.968569,5.6780003 0.228157,0.441205 0.83923,3.002764 1.188455,4.981888 0.384768,2.180545 0.372042,2.851803 -0.0912,4.810676 -0.208639,0.882257 -0.484188,2.133458 -0.61233,2.780446 -0.128142,0.646988 -0.322302,1.381137 -0.431466,1.631443 -0.338142,0.775331 -3.129334,4.848445 -3.886074,5.670844 -0.241669,0.26264 -1.041724,0.828221 -1.87501,1.3255 -0.799411,0.477061 -1.982828,1.235889 -2.629817,1.686284 -2.1114,1.469828 -2.026267,1.438521 -4.49149,1.651698 -1.589923,0.137487 -1.949448,0.205087 -2.865956,0.538869 -0.933441,0.339948 -1.155503,0.380463 -2.031864,0.370713 -0.541141,-0.006 -1.152323,-0.05434 -1.358183,-0.107388 z"
       id="path3420"
       transform="matrix(0.26458333,0,0,0.26458333,24.202711,91.856047)" />
    <path
       style="opacity:0.197605;fill:#000000;stroke:#000000;stroke-width:0.0404184;stroke-opacity:0.0148026"
       d="m 19.035361,37.272921 c -0.382311,-0.04559 -2.01775,-0.355513 -3.634309,-0.688724 L 12.461855,35.978359 10.856093,34.928588 C 9.9729232,34.351215 8.8340406,33.611089 8.3252426,33.283864 6.7729258,32.285516 6.2554327,31.726266 4.5413784,29.194683 4.023677,28.43006 3.298001,27.36065 2.9287654,26.818214 2.1462025,25.66857 2.0892432,25.500718 1.8242707,23.563416 1.6807881,22.514365 1.4974826,21.733538 1.1737138,20.792232 c -0.52928076,-1.538797 -0.52703444,-1.728935 0.041305,-3.4962 0.2158,-0.671036 0.490762,-1.918661 0.6617569,-3.002683 l 0.2925504,-1.854627 0.8855312,-1.24664 C 3.5418992,10.50643 4.389217,9.2957796 4.9377855,8.5017484 6.1716285,6.7158094 7.0571383,5.8200289 8.7438863,4.6515024 11.959302,2.423962 12.307129,2.2692276 15.720214,1.5480074 c 4.317752,-0.91238563 4.759267,-0.93159252 6.343153,-0.2759411 0.884376,0.3660884 1.007453,0.3873385 2.93109,0.5060715 l 2.007951,0.1239372 1.924925,1.2512193 c 1.058708,0.6881707 2.493738,1.6208352 3.188954,2.0725879 0.695216,0.4517526 1.387999,0.9525533 1.539516,1.1128903 0.778479,0.823793 3.422557,4.6360485 3.839389,5.5356655 0.274373,0.592158 0.855129,2.913485 1.229692,4.915178 0.406365,2.171637 0.350097,3.135495 -0.36714,6.289041 -0.331875,1.45919 -0.694046,2.85476 -0.804824,3.101267 -0.490238,1.090893 -3.313314,5.087391 -4.066469,5.756712 -0.28856,0.256439 -0.951178,0.728028 -1.472484,1.047973 -0.521306,0.319945 -1.767632,1.124358 -2.769611,1.787586 -2.090225,1.383553 -2.228637,1.433073 -4.701573,1.682091 -1.157968,0.116605 -1.871784,0.250071 -2.566566,0.479882 -1.093354,0.361648 -1.935406,0.458643 -2.940856,0.338753 z"
       id="path3459"
       transform="matrix(0.26458333,0,0,0.26458333,24.202711,91.856047)" />
    <path
       style="opacity:0.197605;fill:#000000;stroke:#000000;stroke-width:0.0404184;stroke-opacity:0.0148026"
       d="m 18.6076,37.194608 c -0.147043,-0.02471 -1.58348,-0.311176 -3.192082,-0.636581 L 12.490786,35.966381 10.027153,34.364885 C 7.2413721,32.553974 6.843469,32.246535 6.1100611,31.338353 5.4498594,30.520823 2.6674146,26.449196 2.3796463,25.879536 2.1365113,25.398231 1.9862041,24.72071 1.8102572,23.31297 1.7440956,22.783616 1.4983426,21.756915 1.2641393,21.031413 0.72851567,19.372187 0.72322087,18.910565 1.2213704,17.302644 1.4255068,16.643735 1.7227964,15.296288 1.8820142,14.308317 2.1186301,12.840078 2.2233948,12.433882 2.4556385,12.084246 2.6119141,11.848978 3.4326605,10.669962 4.2795193,9.4642105 6.2927942,6.597725 7.1301169,5.7522328 9.5711507,4.1209505 12.226734,2.3462893 12.605049,2.2019685 16.896557,1.3264309 c 2.918157,-0.59535187 3.716934,-0.60551485 5.102005,-0.064914 0.878169,0.3427549 1.156082,0.3968072 2.566565,0.4991818 0.869967,0.063143 1.785148,0.1319169 2.033735,0.1528303 0.375378,0.03158 0.9825,0.3835357 3.582498,2.0768149 1.721787,1.121335 3.303443,2.2221748 3.514792,2.4463107 0.781777,0.8290755 3.137477,4.2037504 3.675269,5.2650334 0.331611,0.654402 0.915362,2.869695 1.288349,4.889189 0.352924,1.910858 0.351418,3.172874 -0.0059,4.944144 -0.459963,2.280113 -0.992167,4.36959 -1.235247,4.849679 -0.334428,0.660504 -2.342105,3.603941 -3.178424,4.659862 -0.764508,0.96525 -0.61994,0.857544 -4.806909,3.581296 -2.31817,1.508041 -2.357708,1.521547 -5.532152,1.889876 -0.529354,0.06142 -1.461938,0.255957 -2.072409,0.432305 -1.076123,0.310861 -2.287102,0.403558 -3.221133,0.246569 z"
       id="path3498"
       transform="matrix(0.26458333,0,0,0.26458333,24.202711,91.856047)" />
    <path
       style="opacity:0.197605;fill:#000000;stroke:#000000;stroke-width:0.0404184;stroke-opacity:0.0148026"
       d="M 18.821481,37.199581 C 18.674438,37.17006 17.206683,36.88101 15.559804,36.557247 L 12.565477,35.968589 11.709955,35.422804 C 9.4823367,34.001684 7.413681,32.584664 6.9207234,32.142201 6.2559189,31.545495 5.5202555,30.56362 3.7332546,27.887952 2.2418534,25.654883 2.1437991,25.42822 1.8697752,23.580321 1.7781947,22.962741 1.6287629,22.192771 1.5377046,21.869277 0.73322733,19.011287 0.73663084,19.076421 1.2905106,17.13862 1.4623721,16.537346 1.7254946,15.346629 1.8752273,14.492582 2.02496,13.638534 2.1962984,12.786628 2.2559792,12.599457 2.3776369,12.217915 4.6532004,8.917626 5.7212715,7.5736845 6.9289525,6.0540735 8.6012476,4.6816873 10.962939,3.2720562 12.237701,2.5111843 13.397536,2.1043505 15.691011,1.6135978 19.589196,0.7794724 20.4227,0.74165625 22.089099,1.3233158 c 0.819331,0.2859889 1.258876,0.3615825 2.855364,0.4910706 1.222949,0.099191 1.999295,0.2111375 2.206186,0.3181248 1.088697,0.5629878 5.759201,3.6741214 6.393756,4.2590342 0.848425,0.7820499 3.28112,4.2472276 3.84235,5.4731156 0.151958,0.331919 0.459501,1.335204 0.683429,2.229521 1.088859,4.348646 1.066939,5.765951 -0.163085,10.544918 -0.411205,1.597642 -0.610916,2.003357 -1.952935,3.967412 -1.330074,1.946574 -2.097491,2.9287 -2.613835,3.345138 -0.543722,0.438519 -2.615224,1.826789 -4.455403,2.985903 -1.577153,0.993436 -2.140277,1.184995 -4.318861,1.469155 -0.895062,0.116745 -2.103851,0.334663 -2.686197,0.48426 -1.034207,0.265675 -2.523644,0.41597 -3.058387,0.308613 z"
       id="path3537"
       transform="matrix(0.26458333,0,0,0.26458333,24.202711,91.856047)" />
    <path
       style="opacity:0.197605;fill:#000000;stroke:#000000;stroke-width:0.0404184;stroke-opacity:0.0148026"
       d="M 15.540905,36.534231 12.527679,35.913353 10.445773,34.555511 C 6.5387157,32.007286 6.5512737,32.019716 3.9124802,28.089371 2.3340703,25.738413 2.1764683,25.380683 1.8777682,23.470917 1.790162,22.910798 1.5483793,21.831857 1.3404732,21.073268 0.87183393,19.363339 0.85989811,18.753198 1.2671303,17.324092 1.4346978,16.736045 1.731009,15.413279 1.9255997,14.384614 L 2.2794009,12.514313 3.2917727,11.015997 C 5.5666485,7.6491674 6.7360115,6.2928803 8.5017484,4.9731994 11.273563,2.9015934 12.536496,2.3274293 15.934094,1.5942504 c 3.50471,-0.75629269 4.559592,-0.79297527 6.229435,-0.2166231 0.569543,0.1965801 1.283597,0.3200646 2.547752,0.4405946 0.966034,0.092106 1.928001,0.2134091 2.137703,0.2695631 0.369055,0.098825 2.288081,1.26865 4.377563,2.6685325 2.451142,1.6421813 2.649531,1.8410437 4.532565,4.5433679 1.410204,2.0237716 1.794803,2.8427746 2.311989,4.9233656 1.013996,4.079222 0.98195,5.94147 -0.17851,10.373202 -0.450162,1.719142 -0.749368,2.27652 -2.698106,5.026191 -1.37737,1.94347 -1.71924,2.258681 -4.288758,3.954333 -3.609866,2.382189 -3.629007,2.390705 -6.256004,2.783117 -0.941074,0.140575 -2.12009,0.356973 -2.620035,0.480886 -0.570311,0.141354 -1.387132,0.241883 -2.192275,0.269813 -1.232133,0.04274 -1.403385,0.01977 -4.296508,-0.576362 z"
       id="path3576"
       transform="matrix(0.26458333,0,0,0.26458333,24.202711,91.856047)" />
    <path
       style="opacity:0.197605;fill:#000000;stroke:#000000;stroke-width:0.0404184;stroke-opacity:0.0148026"
       d="m 18.627697,37.083109 c -0.194806,-0.02357 -1.647879,-0.300187 -3.229049,-0.614696 l -2.874856,-0.571836 -2.50145,-1.661268 C 8.6465449,33.32161 7.2740807,32.352134 6.9724218,32.080918 6.3965002,31.563114 5.6714822,30.613188 4.1573887,28.392631 2.3882191,25.797982 2.2705295,25.545605 1.9275268,23.610843 1.8046362,22.917658 1.5538201,21.797093 1.3701576,21.120696 0.92850872,19.49418 0.91875878,18.659483 1.3239391,17.163907 1.4912533,16.546327 1.7822704,15.243355 1.9706437,14.268412 L 2.3131406,12.495788 3.2561918,11.113675 C 5.6485311,7.6075181 6.8460363,6.2317087 8.7156288,4.8413477 11.081458,3.08195 12.828117,2.2920407 15.720214,1.6735935 c 3.649667,-0.78044619 4.512653,-0.82828531 6.197021,-0.343528 0.600328,0.1727734 1.556973,0.3675399 2.125877,0.4328145 2.861062,0.3282707 2.827191,0.3214407 3.547468,0.7153401 1.458733,0.7977416 5.387552,3.4935484 6.033472,4.1399406 0.964299,0.9650028 2.876282,3.6756513 3.590143,5.0898023 0.33082,0.655351 1.018761,3.132436 1.351887,4.867773 0.248852,1.296328 0.248037,3.6302 -0.0017,4.91925 -0.270807,1.397708 -0.868769,3.755701 -1.127876,4.44764 -0.406357,1.085175 -2.824419,4.626125 -3.849653,5.637339 -0.555613,0.548013 -3.598758,2.635776 -5.302175,3.637578 -1.02515,0.602904 -1.711049,0.81924 -3.439657,1.084885 -0.813211,0.124972 -2.056042,0.342208 -2.761848,0.482748 -1.266514,0.252189 -2.765458,0.381429 -3.45546,0.297933 z"
       id="path3615"
       transform="matrix(0.26458333,0,0,0.26458333,24.202711,91.856047)" />
    <path
       style="opacity:0.197605;fill:#000000;stroke:#000000;stroke-width:0.0404184;stroke-opacity:0.0148026"
       d="M 15.379043,36.472767 12.524775,35.889456 10.245911,34.370142 C 7.3938736,32.468695 6.9333794,32.108232 6.1684399,31.178405 5.3084463,30.133034 2.9196556,26.560678 2.5443996,25.758775 2.3585596,25.361644 2.1091946,24.475841 1.925851,23.561544 1.7569003,22.719023 1.4951455,21.524395 1.3441736,20.906815 0.99298026,19.470191 0.99290448,18.601216 1.3438472,17.163907 1.4946396,16.546327 1.7824353,15.231187 1.9833931,14.241374 L 2.348771,12.441714 3.4369224,10.872757 C 5.1513365,8.4008198 6.0205704,7.3178391 7.208788,6.1733803 c 1.1388442,-1.0969036 3.106043,-2.5040835 4.4323,-3.1705198 1.343657,-0.6751803 4.183654,-1.4388396 6.766356,-1.8194355 1.583916,-0.23341119 2.040563,-0.21313119 3.463774,0.1538284 0.685414,0.1767266 2.072206,0.4211888 3.081759,0.5432494 2.141605,0.2589318 2.257926,0.3055059 4.615997,1.8482101 3.753453,2.4555955 4.178961,2.8263365 5.718128,4.9821553 1.870724,2.6202078 2.28647,3.5274788 2.966827,6.4744108 0.478862,2.074172 0.593205,4.411295 0.301632,6.165319 -0.315465,1.897767 -0.9556,4.248567 -1.393415,5.117109 -0.757894,1.503519 -2.830199,4.386919 -3.770575,5.246371 -0.724115,0.6618 -4.470207,3.173789 -5.528296,3.707069 -0.990206,0.499066 -1.371891,0.600849 -3.699521,0.986533 -1.090724,0.180732 -2.149433,0.379525 -2.352685,0.441765 -0.203254,0.06224 -1.091399,0.134191 -1.973656,0.159897 l -1.604104,0.04674 z"
       id="path3654"
       transform="matrix(0.26458333,0,0,0.26458333,24.202711,91.856047)" />
  </g>
</svg>
