<?xml version="1.0" encoding="UTF-8" standalone="no"?>
<svg
   version="1.1"
   x="0px"
   y="0px"
   viewBox="0 0 80 80"
   xml:space="preserve"
   id="svg8"
   sodipodi:docname="2.svg"
   width="80"
   height="80"
   inkscape:version="1.1.1 (3bf5ae0d25, 2021-09-20)"
   xmlns:inkscape="http://www.inkscape.org/namespaces/inkscape"
   xmlns:sodipodi="http://sodipodi.sourceforge.net/DTD/sodipodi-0.dtd"
   xmlns="http://www.w3.org/2000/svg"
   xmlns:svg="http://www.w3.org/2000/svg"><defs
     id="defs12" /><sodipodi:namedview
     id="namedview10"
     pagecolor="#ffffff"
     bordercolor="#666666"
     borderopacity="1.0"
     inkscape:pageshadow="2"
     inkscape:pageopacity="0.0"
     inkscape:pagecheckerboard="0"
     showgrid="false"
     fit-margin-top="0"
     fit-margin-left="0"
     fit-margin-right="0"
     fit-margin-bottom="0"
     inkscape:zoom="5.752"
     inkscape:cx="39.986092"
     inkscape:cy="52.329624"
     inkscape:window-width="2400"
     inkscape:window-height="1284"
     inkscape:window-x="-9"
     inkscape:window-y="-9"
     inkscape:window-maximized="1"
     inkscape:current-layer="svg8" /><path
     d="M 80,40 C 80,34.626343 74.888794,30.075928 67.814087,28.479004 71.6875,22.347168 72.083984,15.515381 68.284302,11.715698 64.484619,7.916015 57.652832,8.3125 51.520996,12.185791 49.924072,5.111084 45.373657,0 40,0 34.626343,0 30.075928,5.111084 28.479004,12.185791 22.347168,8.3125 15.515381,7.916016 11.715698,11.715698 7.916015,15.515381 8.3125,22.347168 12.185913,28.479004 5.111206,30.075928 0,34.626343 0,40 0,45.373657 5.111084,49.924072 12.185791,51.520996 8.3125,57.652832 7.916016,64.484619 11.715698,68.28418 15.515381,72.083984 22.347168,71.6875 28.479004,67.814209 30.075928,74.888916 34.626343,80 40,80 45.373657,80 49.924072,74.888916 51.520996,67.814209 57.652832,71.6875 64.484619,72.083984 68.284302,68.28418 72.083984,64.484619 71.6875,57.652832 67.814209,51.520996 74.888916,49.924072 80,45.373657 80,40 Z"
     id="path2" /></svg>
