<?xml version="1.0" encoding="UTF-8" standalone="no"?>
<!-- Created with Inkscape (http://www.inkscape.org/) -->

<svg
   width="914.31476mm"
   height="638.53198mm"
   viewBox="0 0 914.31476 638.53199"
   version="1.1"
   id="svg5"
   sodipodi:docname="2.svg"
   inkscape:version="1.1.1 (3bf5ae0d25, 2021-09-20)"
   xmlns:inkscape="http://www.inkscape.org/namespaces/inkscape"
   xmlns:sodipodi="http://sodipodi.sourceforge.net/DTD/sodipodi-0.dtd"
   xmlns="http://www.w3.org/2000/svg"
   xmlns:svg="http://www.w3.org/2000/svg">
  <sodipodi:namedview
     id="namedview7"
     pagecolor="#ffffff"
     bordercolor="#666666"
     borderopacity="1.0"
     inkscape:pageshadow="2"
     inkscape:pageopacity="0"
     inkscape:pagecheckerboard="true"
     inkscape:document-units="mm"
     showgrid="false"
     inkscape:zoom="0.21698769"
     inkscape:cx="543.80964"
     inkscape:cy="1474.738"
     inkscape:window-width="2400"
     inkscape:window-height="1284"
     inkscape:window-x="-9"
     inkscape:window-y="-9"
     inkscape:window-maximized="1"
     inkscape:current-layer="layer1"
     inkscape:snap-global="false"
     units="px"
     width="800px"
     fit-margin-top="0"
     fit-margin-left="0"
     fit-margin-right="0"
     fit-margin-bottom="0" />
  <defs
     id="defs2">
    <inkscape:path-effect
       effect="bspline"
       id="path-effect6339"
       is_visible="true"
       lpeversion="1"
       weight="33.333333"
       steps="2"
       helper_size="0"
       apply_no_weight="true"
       apply_with_weight="true"
       only_selected="false" />
  </defs>
  <g
     inkscape:label="Vrstva 1"
     inkscape:groupmode="layer"
     id="layer1"
     transform="translate(191.47938,340.21236)">
    <path
       style="fill:none;stroke:#000000;stroke-width:0.273949px;stroke-linecap:butt;stroke-linejoin:miter;stroke-opacity:1"
       d="m 152.73089,-307.53403 c -22.97229,3.58296 -61.752892,9.49104 -90.372503,14.82744 -28.619612,5.3364 -47.077524,10.10089 -63.9276713,14.99894 -16.8501467,4.89805 -32.0916077,9.92935 -47.2238627,15.87564 -15.132255,5.94629 -30.154421,12.80716 -42.472175,21.2311 -12.317758,8.42395 -21.930478,18.41032 -28.582728,27.99678 -6.65225,9.58646 -10.34382,18.7724 -15.36961,37.50702 -5.02579,18.73461 -11.38554,47.01662 -18.23892,83.24694 -6.85337,36.230318 -14.19997,80.406684 -19.73747,126.280555 -5.53749,45.873871 -9.26563,93.442535 -12.13489,134.265825 -2.86927,40.8233 -4.87952,74.89891 -5.70189,94.56714 -0.82237,19.66823 -0.45688,24.9282 6.70711,27.95836 7.16399,3.03016 21.12621,3.8306 32.38397,3.65909 11.25777,-0.17151 19.81054,-1.31499 32.32943,-1.44841 12.51888,-0.13343 29.003054,0.74324 54.278406,1.41029 25.275351,0.66706 59.340162,1.12445 87.00948,1.54373 27.669318,0.41929 48.941592,0.80046 72.042054,1.10539 23.10046,0.30494 48.02775,0.53363 72.99233,0.62892 24.96457,0.0953 49.96494,0.0572 78.76743,0.0381 28.80249,-0.0191 61.40534,-0.0191 90.22604,-0.0381 28.82071,-0.0191 53.85763,-0.0572 80.35738,-0.0762 26.49976,-0.019 54.4607,-0.019 83.93938,-0.019 29.47869,0 60.4733,0 87.08263,-1.02916 26.60934,-1.02916 48.83188,-3.08742 61.91721,-6.68936 13.08532,-3.60195 17.03275,-8.74759 23.86784,-14.21745 6.83508,-5.46986 16.55745,-11.26347 23.70335,-32.74253 7.14591,-21.47905 11.7147,-58.64209 15.2419,-94.64362 3.5272,-36.00152 6.01262,-70.839489 7.34674,-103.810716 1.33413,-32.971227 1.51688,-64.073812 1.91895,-97.712134 0.40206,-33.638322 1.02341,-69.81031 1.3341,-106.87915 0.31068,-37.06885 0.31068,-75.0323 0.25585,-104.74445 -0.0548,-29.71215 -0.16447,-51.1714 -1.15138,-62.5494 -0.98692,-11.37799 -2.85099,-12.67393 -15.91832,-12.9979 -13.06734,-0.32397 -37.33673,0.324 -63.06889,1.18164 -25.73216,0.85764 -52.92555,1.92489 -79.73597,2.93499 -26.81042,1.0101 -53.23623,1.963 -81.96561,2.70627 -28.72938,0.74328 -59.76057,1.27691 -88.85544,2.42043 -29.09486,1.14353 -56.2517,2.89686 -79.57142,4.68837 -23.31973,1.7915 -42.80104,3.62106 -62.55705,5.69845 -19.75601,2.07738 -39.78555,4.40246 -53.38259,6.19396 -13.59704,1.79151 -20.7609,3.04933 -43.73319,6.63229 z"
       id="path6337"
       inkscape:path-effect="#path-effect6339"
       inkscape:original-d="m 168.53951,-309.8592 c -38.78087,5.90836 -77.561477,11.81644 -116.341807,17.72425 -18.458879,4.76495 -36.91679,9.52945 -55.37475,14.29375 -15.242323,5.03179 -30.483787,10.06308 -45.725292,15.0942 -15.023003,6.86141 -30.045168,13.72228 -45.067363,20.583 -9.613368,9.98705 -19.226098,19.97341 -28.838748,29.9597 -3.69197,9.18658 -7.38355,18.37252 -11.07492,27.55834 -6.36027,28.28342 -12.72002,56.56543 -19.07964,84.847713 -7.34714,44.178361 -14.69376,88.354724 -22.04023,132.531674 -3.72855,47.57081 -7.45669,95.139473 -11.18462,142.708793 -2.01061,34.07727 -4.02086,68.15288 -6.03087,102.22889 0.36523,5.26049 0.73074,10.52046 1.09651,15.7803 13.96247,0.80077 27.92469,1.60119 41.88743,2.40137 8.55284,-1.14326 17.10561,-2.28674 25.65878,-3.43051 16.48456,0.87697 32.96873,1.75363 49.453499,2.63006 34.065944,0.45768 68.1307552,0.91508 102.19657,1.3722 21.27282,0.38144 42.545094,0.76262 63.818036,1.14351 24.927985,0.22898 49.855275,0.45768 74.783305,0.68609 25.00112,-0.0378 50.00149,-0.0759 75.00262,-0.11437 32.60385,2.8e-4 65.2067,2.8e-4 97.81045,0 25.03766,-0.0379 50.07458,-0.076 75.11228,-0.11432 27.96181,2.8e-4 55.92275,2.8e-4 83.88452,0 30.9956,2.8e-4 61.99021,2.8e-4 92.98572,0 22.22318,-2.05809 44.44572,-4.11636 66.66899,-6.17491 3.94732,-5.14559 7.89475,-10.29123 11.84255,-15.43728 9.72246,-5.79356 19.44483,-11.58716 29.16767,-17.38118 4.5687,-37.16421 9.13748,-74.32725 13.70661,-111.49124 2.48525,-34.83905 4.97068,-69.677016 7.45641,-104.515918 0.18249,-31.103537 0.36523,-62.206122 0.54827,-93.309608 0.62112,-36.17316 1.24246,-72.345144 1.86409,-108.518154 -2.6e-4,-37.96468 -2.6e-4,-75.92813 0,-113.8926 -0.10991,-21.45983 -0.21956,-42.91908 -0.32895,-64.37905 -1.86441,-1.29569 -3.72847,-2.59165 -5.59231,-3.8879 -24.2706,0.64828 -48.53999,1.29625 -72.80956,1.94394 -27.19475,1.06758 -54.38814,2.13482 -81.58181,3.20182 -26.42717,0.95321 -52.85298,1.9061 -79.27909,2.85874 -31.03266,0.53392 -62.06385,1.06755 -93.09535,1.60091 -27.15821,1.75367 -54.31505,3.507 -81.47218,5.2601 -19.48232,1.82991 -38.96363,3.65946 -58.44502,5.48879 -20.03062,2.32545 -40.06016,4.65052 -60.08982,6.97536 -7.16441,1.25815 -14.32827,2.51598 -21.49198,3.77354 z" />
    <path
       style="opacity:0.163174;fill:#ffffff;fill-opacity:1;stroke-width:5.59755"
       d="m -189.4729,251.90442 c 6.25599,-107.77493 12.3882,-180.311039 20.13832,-238.210986 10.61423,-79.297135 30.13889,-177.573074 41.06575,-206.701514 14.26886,-38.03745 50.007473,-61.47169 127.83870869,-83.82539 C 36.105984,-287.3269 62.158498,-292.39035 152.92671,-306.63922 c 93.34547,-14.65346 177.59459,-21.80024 292.10159,-24.77872 27.1149,-0.7053 89.13038,-2.69792 137.81213,-4.42804 48.68177,-1.73012 98.78226,-2.97263 111.33443,-2.76114 26.51095,0.44669 25.61367,0.009 27.03113,13.17133 1.23375,11.45592 -0.39676,310.607692 -1.92754,353.64809 -3.34051,93.92376 -12.99325,183.53598 -23.0597,214.07722 -4.93953,14.9864 -10.60761,22.75303 -24.98991,34.24229 -16.97701,13.56201 -23.65124,15.50715 -64.74356,18.86863 -29.34688,2.4007 -510.301455,2.24688 -613.7830592,-0.19627 -41.3502568,-0.97626 -96.5352708,-1.80273 -122.6333508,-1.8366 -44.92153,-0.0583 -47.71342,-0.19333 -52.37137,-2.53331 -2.70614,-1.35945 -5.60975,-3.86208 -6.45244,-5.5614 -1.44867,-2.92126 -1.72903,-15.95072 -0.71796,-33.36844 z"
       id="path6538" />
    <path
       style="opacity:0.163174;fill:#ffffff;fill-opacity:1;stroke-width:5.59755"
       d="m -189.4729,251.90442 c 6.25599,-107.77493 12.3882,-180.311039 20.13832,-238.210986 10.61423,-79.297135 30.13889,-177.573074 41.06575,-206.701514 14.26886,-38.03745 50.007473,-61.47169 127.83870869,-83.82539 C 36.105984,-287.3269 62.158498,-292.39035 152.92671,-306.63922 c 93.34547,-14.65346 177.59459,-21.80024 292.10159,-24.77872 27.1149,-0.7053 89.13038,-2.69792 137.81213,-4.42804 48.68177,-1.73012 98.78226,-2.97263 111.33443,-2.76114 26.51095,0.44669 25.61367,0.009 27.03113,13.17133 1.23375,11.45592 -0.39676,310.607692 -1.92754,353.64809 -3.34051,93.92376 -12.99325,183.53598 -23.0597,214.07722 -4.93953,14.9864 -10.60761,22.75303 -24.98991,34.24229 -16.97701,13.56201 -23.65124,15.50715 -64.74356,18.86863 -29.34688,2.4007 -510.301455,2.24688 -613.7830592,-0.19627 -41.3502568,-0.97626 -96.5352708,-1.80273 -122.6333508,-1.8366 -44.92153,-0.0583 -47.71342,-0.19333 -52.37137,-2.53331 -2.70614,-1.35945 -5.60975,-3.86208 -6.45244,-5.5614 -1.44867,-2.92126 -1.72903,-15.95072 -0.71796,-33.36844 z"
       id="path6751" />
    <path
       style="opacity:0.163174;fill:#ffffff;fill-opacity:1;stroke-width:5.59755"
       d="m -189.4729,251.90442 c 6.25599,-107.77493 12.3882,-180.311039 20.13832,-238.210986 10.61423,-79.297135 30.13889,-177.573074 41.06575,-206.701514 14.26886,-38.03745 50.007473,-61.47169 127.83870869,-83.82539 C 36.105984,-287.3269 62.158498,-292.39035 152.92671,-306.63922 c 93.34547,-14.65346 177.59459,-21.80024 292.10159,-24.77872 27.1149,-0.7053 89.13038,-2.69792 137.81213,-4.42804 48.68177,-1.73012 98.78226,-2.97263 111.33443,-2.76114 26.51095,0.44669 25.61367,0.009 27.03113,13.17133 1.23375,11.45592 -0.39676,310.607692 -1.92754,353.64809 -3.34051,93.92376 -12.99325,183.53598 -23.0597,214.07722 -4.93953,14.9864 -10.60761,22.75303 -24.98991,34.24229 -16.97701,13.56201 -23.65124,15.50715 -64.74356,18.86863 -29.34688,2.4007 -510.301455,2.24688 -613.7830592,-0.19627 -41.3502568,-0.97626 -96.5352708,-1.80273 -122.6333508,-1.8366 -44.92153,-0.0583 -47.71342,-0.19333 -52.37137,-2.53331 -2.70614,-1.35945 -5.60975,-3.86208 -6.45244,-5.5614 -1.44867,-2.92126 -1.72903,-15.95072 -0.71796,-33.36844 z"
       id="path6790" />
    <path
       style="opacity:0.163174;fill:#ffffff;fill-opacity:1;stroke-width:5.59755"
       d="m -189.4729,251.90442 c 5.85903,-100.93635 12.21915,-178.005955 18.96995,-229.871475 10.86503,-83.474631 31.28415,-186.946895 42.71929,-216.476595 9.36477,-24.18324 29.990063,-43.93237 61.053019,-58.4595 38.056781,-17.7979 90.835018,-32.57445 154.33506,-43.20983 143.398931,-24.01735 222.561231,-31.83842 357.423891,-35.31273 27.1149,-0.69852 89.13037,-2.68662 137.81213,-4.418 48.68177,-1.73137 98.78226,-2.97491 111.33443,-2.76342 26.51095,0.44669 25.61366,0.009 27.03113,13.17133 1.23375,11.45592 -0.39676,310.607692 -1.92754,353.648089 -3.34051,93.923761 -12.99325,183.535981 -23.0597,214.077221 -4.93953,14.9864 -10.60761,22.75303 -24.98992,34.24229 -16.97701,13.56201 -23.65123,15.50715 -64.74355,18.86863 -29.34688,2.4007 -510.301455,2.24688 -613.7830591,-0.19626 -41.3502569,-0.97627 -96.5352709,-1.80274 -122.6333509,-1.83661 -44.92153,-0.0583 -47.71342,-0.19332 -52.37137,-2.5333 -2.70614,-1.35945 -5.60975,-3.86208 -6.45244,-5.56141 -1.44868,-2.92126 -1.72903,-15.95072 -0.71797,-33.36843 z"
       id="path6866" />
    <path
       style="opacity:0.163174;fill:#ffffff;fill-opacity:1;stroke-width:5.59755"
       d="m -189.48149,251.79549 c 5.85903,-100.93634 12.21915,-178.005951 18.96994,-229.871471 10.86504,-83.474632 31.28416,-186.946899 42.71929,-216.476599 14.26787,-36.84485 50.589335,-60.34259 127.35355714,-82.38982 36.49534386,-10.48173 66.79124486,-16.3461 157.05431286,-30.401 90.98928,-14.16797 175.94591,-21.2941 288.40411,-24.19123 27.1149,-0.69853 89.13037,-2.68664 137.81213,-4.418 91.45356,-3.25256 132.68348,-3.53706 135.27452,-0.93345 0.79114,0.79498 1.9026,3.85376 2.4699,6.79727 2.59357,13.4571 0.50315,333.0900319 -2.54872,389.706816 -4.59591,85.261414 -13.0424,155.939594 -21.81739,182.562584 -4.93953,14.98639 -10.60762,22.75303 -24.98991,34.24228 -16.97701,13.56202 -23.65123,15.50715 -64.74355,18.86864 -29.34688,2.4007 -510.301456,2.24687 -613.7830709,-0.19627 -41.3502461,-0.97627 -96.5352591,-1.80274 -122.6333491,-1.83661 -44.92152,-0.0583 -47.71343,-0.19331 -52.37137,-2.5333 -2.70613,-1.35945 -5.60975,-3.86208 -6.45244,-5.56141 -1.44867,-2.92126 -1.72902,-15.95072 -0.71796,-33.36843 z"
       id="path6905" />
    <path
       style="opacity:0.163174;fill:#ffffff;fill-opacity:1;stroke-width:5.59755"
       d="m -189.51647,253.66644 c 0.21127,-2.71891 0.97922,-15.51012 1.70659,-28.42496 8.11264,-144.046668 20.68169,-248.637989 42.03066,-349.75066 14.10971,-66.82625 20.23152,-82.7272 39.15509,-101.70255 29.479659,-29.56031 97.4916674,-53.82113 197.934559,-70.606 140.682681,-23.50929 219.510341,-31.2421 353.726391,-34.69974 27.11491,-0.69853 89.13038,-2.68664 137.81213,-4.41801 91.45357,-3.25256 132.68348,-3.53707 135.27453,-0.93345 0.79115,0.79499 1.9026,3.85376 2.4699,6.79727 2.59358,13.45711 0.50314,333.0900312 -2.54872,389.706826 -4.59591,85.261414 -13.04241,155.939594 -21.81738,182.562584 -4.93954,14.98638 -10.60762,22.75302 -24.98992,34.24228 -16.97701,13.56202 -23.65124,15.50715 -64.74356,18.86863 -29.34688,2.4007 -510.301454,2.24688 -613.7830583,-0.19627 -41.3502567,-0.97626 -96.5352717,-1.80273 -122.6333517,-1.8366 -44.92152,-0.0583 -47.71342,-0.19332 -52.37137,-2.53331 -2.70614,-1.35945 -5.60975,-3.86207 -6.45244,-5.5614 -1.42161,-2.86669 -1.79824,-18.28134 -0.77005,-31.51464 z"
       id="path6944" />
    <path
       style="opacity:0.163174;fill:#ffffff;fill-opacity:1;stroke-width:5.59755"
       d="m -189.4432,253.74248 c 0.21127,-2.71889 0.97923,-15.51011 1.7066,-28.42496 8.07875,-143.444968 20.37283,-246.388745 41.40008,-346.66098 14.55999,-69.43205 20.55746,-85.32318 39.46292,-104.56239 28.949602,-29.46069 97.7376401,-54.03814 198.257307,-70.83584 140.682683,-23.50927 219.510343,-31.24209 353.726393,-34.69974 27.11491,-0.69852 89.13037,-2.68663 137.81214,-4.41801 91.45355,-3.25255 132.68347,-3.53705 135.27452,-0.93343 0.79114,0.79497 1.9026,3.85375 2.4699,6.79726 1.41406,7.33708 1.34733,201.2808 -0.10047,292.073231 -1.42091,89.10405 -3.47355,130.632536 -9.31556,188.469899 -6.30935,62.46422 -12.73305,93.14655 -22.79221,108.86527 -5.3938,8.42851 -25.48632,25.08189 -34.21072,28.35504 -8.78634,3.2964 -23.85181,5.709 -47.68059,7.63563 -29.46259,2.38217 -510.921931,2.21348 -613.7830562,-0.21502 -41.3502568,-0.97626 -96.5352738,-1.80273 -122.6333538,-1.8366 -44.92153,-0.0583 -47.71343,-0.19333 -52.37137,-2.53331 -2.70614,-1.35945 -5.60974,-3.86208 -6.45244,-5.5614 -1.42161,-2.86669 -1.79824,-18.28134 -0.77006,-31.51465 z"
       id="path6983" />
    <path
       style="opacity:0.163174;fill:#ffffff;fill-opacity:1;stroke-width:5.59755"
       d="m -189.4432,253.74248 c 0.21127,-2.71889 0.97923,-15.51011 1.7066,-28.42496 8.07875,-143.444968 20.37283,-246.388745 41.40008,-346.66098 14.55999,-69.43205 20.55746,-85.32318 39.46292,-104.56239 28.971213,-29.48268 97.6625692,-54.02559 198.257307,-70.83584 140.682683,-23.50927 219.510343,-31.24209 353.726393,-34.69974 27.11491,-0.69852 89.13037,-2.68663 137.81214,-4.41801 91.45355,-3.25255 132.68347,-3.53705 135.27452,-0.93343 0.79114,0.79497 1.9026,3.85375 2.4699,6.79726 1.41406,7.33708 1.34733,201.2808 -0.10047,292.073231 -1.42091,89.10405 -3.47355,130.632536 -9.31556,188.469899 -6.30935,62.46422 -12.73305,93.14655 -22.79221,108.86527 -5.3938,8.42851 -25.48632,25.08189 -34.21072,28.35504 -8.78634,3.2964 -23.85181,5.709 -47.68059,7.63563 -29.46259,2.38217 -510.921931,2.21348 -613.7830562,-0.21502 -41.3502568,-0.97626 -96.5352738,-1.80273 -122.6333538,-1.8366 -44.92153,-0.0583 -47.71343,-0.19333 -52.37137,-2.53331 -2.70614,-1.35945 -5.60974,-3.86208 -6.45244,-5.5614 -1.42161,-2.86669 -1.79824,-18.28134 -0.77006,-31.51465 z"
       id="path7022" />
    <path
       style="opacity:0.163174;fill:#ffffff;fill-opacity:1;stroke-width:5.59755"
       d="m -189.41966,252.49431 c 0.21449,-3.39865 1.24049,-20.36093 2.27999,-37.69399 8.52469,-142.14626 20.08565,-237.419599 40.79085,-336.15611 14.55999,-69.43204 20.55746,-85.32317 39.46293,-104.5624 13.342223,-13.57775 30.547721,-23.70691 60.217737,-35.45116 38.244654,-15.13834 78.34496,-25.40514 138.504852,-35.46109 140.091731,-23.41689 219.190781,-31.16942 353.261101,-34.62331 27.11491,-0.69853 89.13038,-2.68664 137.81213,-4.41801 91.45357,-3.25256 132.68349,-3.53706 135.27453,-0.93345 0.79115,0.79499 1.9026,3.85376 2.46991,6.79728 1.41406,7.33708 1.34733,201.2808 -0.10048,292.073226 -1.4209,89.10404 -3.47354,130.632537 -9.31555,188.469894 -6.30935,62.46423 -12.73305,93.14655 -22.79221,108.86528 -5.3938,8.4285 -25.48632,25.08188 -34.21072,28.35503 -8.78634,3.2964 -23.85181,5.709 -47.6806,7.63563 -29.46259,2.38216 -510.921922,2.21349 -613.7830574,-0.21502 -41.3502466,-0.97626 -96.5352626,-1.80273 -122.6333526,-1.8366 -44.92152,-0.0583 -47.71342,-0.19332 -52.37137,-2.5333 -2.70613,-1.35946 -5.60974,-3.86208 -6.45243,-5.56141 -1.43999,-2.90377 -1.74874,-16.67558 -0.73423,-32.75049 z"
       id="path7061" />
    <path
       style="opacity:0.163174;fill:#ffffff;fill-opacity:1;stroke-width:5.59755"
       d="m -189.49176,252.41708 c 0.21449,-3.39866 1.24049,-20.36094 2.27998,-37.69398 8.5247,-142.146272 20.08566,-237.419602 40.79086,-336.15612 14.65134,-69.86765 20.66255,-85.66882 39.9471,-105.00617 13.33288,-13.36935 28.960726,-22.66402 57.225874,-34.03512 38.608274,-15.53217 80.091528,-26.25019 141.012544,-36.43336 140.091732,-23.41688 219.190772,-31.16942 353.261102,-34.62331 27.11491,-0.69853 89.13038,-2.68664 137.81213,-4.41801 91.45357,-3.25255 132.68348,-3.53706 135.27453,-0.93345 0.79115,0.79499 1.90261,3.85377 2.46991,6.79727 2.59357,13.45711 0.50314,333.0900407 -2.54872,389.706825 -4.65935,86.438135 -13.19438,157.230555 -22.08201,183.155505 -5.02184,14.64857 -9.96111,21.53511 -23.45233,32.69823 -16.9826,14.052 -25.33021,16.57909 -65.40027,19.79885 -30.12335,2.42051 -510.253769,2.28348 -614.3993169,-0.17536 -41.3502561,-0.97626 -96.5352631,-1.80273 -122.6333531,-1.8366 -44.92152,-0.0583 -47.71342,-0.19333 -52.37137,-2.53331 -2.70613,-1.35945 -5.60974,-3.86207 -6.45243,-5.5614 -1.43999,-2.90378 -1.74874,-16.67558 -0.73423,-32.75049 z"
       id="path7100" />
    <path
       style="opacity:0.163174;fill:#ffffff;fill-opacity:1;stroke-width:5.59755"
       d="m -189.4561,251.83886 c 0.21986,-3.05878 1.2489,-19.74299 2.2868,-37.07604 5.79195,-96.72547 12.73593,-169.204968 22.24501,-232.187752 11.1608,-73.922708 27.69782,-152.603908 37.26837,-177.318578 11.10729,-28.68311 33.900201,-47.76962 78.447587,-65.69108 38.608273,-15.53217 80.091528,-26.25019 141.012543,-36.43336 140.09174,-23.41688 219.19078,-31.16942 353.2611,-34.62331 27.11491,-0.69853 89.13038,-2.68664 137.81214,-4.41801 91.45356,-3.25255 132.68348,-3.53706 135.27452,-0.93344 0.79115,0.79498 1.90261,3.85376 2.46991,6.79726 2.59357,13.45711 0.50314,333.0900417 -2.54872,389.706826 -4.65935,86.438134 -13.19438,157.230554 -22.082,183.155504 -5.02185,14.64857 -9.96111,21.53511 -23.45234,32.69823 -16.9826,14.052 -25.3302,16.57909 -65.40027,19.79886 -30.12334,2.4205 -510.253766,2.28347 -614.3993143,-0.17537 -41.3502567,-0.97626 -96.5352557,-1.80273 -122.6333557,-1.8366 -61.59501,-0.08 -60.5397,0.33306 -60.15881,-23.54304 0.10843,-6.79728 0.377,-14.86132 0.59683,-17.9201 z"
       id="path7139" />
    <path
       style="opacity:0.163174;fill:#ffffff;fill-opacity:1;stroke-width:5.59755"
       d="m -189.4561,251.83886 c 0.21987,-3.05878 1.24463,-19.743 2.27731,-37.07605 5.7025,-95.7134 12.74819,-169.223394 22.25451,-232.187752 11.16079,-73.922706 27.69781,-152.603908 37.26837,-177.318578 11.10728,-28.6831 33.900201,-47.76962 78.447577,-65.69108 39.2167852,-15.77696 81.274674,-26.56683 144.244757,-37.0057 103.802486,-17.20788 149.305186,-22.7498 244.034216,-29.72171 21.98806,-1.61829 59.61954,-3.16386 105.37843,-4.32804 27.45385,-0.69845 89.74663,-2.6868 138.42839,-4.41855 91.4512,-3.25317 132.68333,-3.5379 135.27452,-0.93412 0.79115,0.79499 1.90261,3.85376 2.4699,6.79727 2.59358,13.4571 0.50315,333.0900316 -2.54871,389.706816 -4.65935,86.438134 -13.19439,157.230564 -22.082,183.155504 -5.00438,14.59763 -10.00597,21.59561 -23.36247,32.68755 -16.86621,14.00664 -25.40099,16.58824 -65.49015,19.80954 -30.12333,2.4205 -510.253756,2.28347 -614.3993042,-0.17536 -41.3502568,-0.97627 -96.5352658,-1.80274 -122.6333558,-1.83661 -61.59501,-0.08 -60.53971,0.33307 -60.15882,-23.54304 0.10844,-6.79728 0.37701,-14.86131 0.59683,-17.92009 z"
       id="path7178" />
    <path
       style="opacity:0.163174;fill:#ffffff;fill-opacity:1;stroke-width:5.59755"
       d="m -189.4561,251.83886 c 0.21987,-3.05878 1.24463,-19.743 2.27731,-37.07605 5.69265,-95.54821 12.75054,-169.237391 22.21175,-231.905104 11.12547,-73.691504 27.73694,-152.877156 37.19287,-177.295896 11.23453,-29.01163 33.845971,-48.00555 78.565837,-65.99641 39.517463,-15.89793 83.447944,-27.09782 147.326,-37.56015 140.136643,-22.9524 214.456633,-30.14023 346.331403,-33.4953 27.45385,-0.69845 89.74663,-2.6868 138.42839,-4.41855 91.4512,-3.25317 132.68333,-3.5379 135.27452,-0.93412 0.79115,0.79499 1.90261,3.85376 2.4699,6.79727 2.59358,13.4571 0.50315,333.0900316 -2.54871,389.706816 -4.65935,86.438134 -13.19439,157.230564 -22.082,183.155504 -5.00438,14.59763 -10.00597,21.59561 -23.36247,32.68755 -16.86621,14.00664 -25.40099,16.58824 -65.49015,19.80954 -30.12333,2.4205 -510.253756,2.28347 -614.3993042,-0.17536 -41.3502568,-0.97627 -96.5352658,-1.80274 -122.6333558,-1.83661 -61.59501,-0.08 -60.53971,0.33307 -60.15882,-23.54304 0.10844,-6.79728 0.37701,-14.86131 0.59683,-17.92009 z"
       id="path7217" />
    <path
       style="opacity:0.163174;fill:#ffffff;fill-opacity:1;stroke-width:5.59755"
       d="m -189.45828,251.84105 c 0.21986,-3.05878 1.24462,-19.743 2.2773,-37.07605 5.69897,-95.6541 12.68633,-168.581393 22.26149,-232.343201 10.80126,-71.926474 27.73763,-152.569289 37.14314,-176.857789 11.23452,-29.01163 33.845957,-48.00555 78.565833,-65.99641 39.5174536,-15.89793 83.447937,-27.09782 147.326,-37.56015 140.149127,-22.95445 214.515637,-30.1462 346.331387,-33.49258 27.45386,-0.69697 89.61226,-2.68675 138.12979,-4.42173 91.06339,-3.25642 132.97435,-3.54506 135.57313,-0.93367 0.79115,0.79499 1.9026,3.85377 2.46991,6.79727 2.59357,13.45711 0.50313,333.0900308 -2.54872,389.706825 -4.65935,86.438135 -13.19438,157.230555 -22.08201,183.155505 -5.00438,14.59762 -10.00597,21.59561 -23.36246,32.68755 -16.86621,14.00664 -25.40099,16.58824 -65.49015,19.80952 -30.12334,2.42052 -510.25376,2.28349 -614.3993076,-0.17535 -41.3502564,-0.97626 -96.5352624,-1.80273 -122.6333524,-1.8366 -61.59501,-0.08 -60.5397,0.33306 -60.15882,-23.54304 0.10844,-6.79729 0.377,-14.86132 0.59684,-17.9201 z"
       id="path7256" />
    <path
       style="opacity:0.163174;fill:#ffffff;fill-opacity:1;stroke-width:5.59755"
       d="m -189.45828,251.84105 c 0.21986,-3.05878 1.24462,-19.743 2.2773,-37.07605 5.69897,-95.6541 12.68633,-168.581393 22.26149,-232.343201 10.80126,-71.926474 27.73763,-152.569289 37.14314,-176.857789 11.23452,-29.01163 33.845957,-48.00555 78.565833,-65.99641 39.5174536,-15.89793 83.447937,-27.09782 147.326,-37.56015 140.149127,-22.95445 214.515637,-30.1462 346.331387,-33.49258 27.45386,-0.69697 89.61226,-2.68675 138.12979,-4.42173 91.06339,-3.25642 132.97435,-3.54506 135.57313,-0.93367 0.79115,0.79499 1.9026,3.85377 2.46991,6.79727 2.59357,13.45711 0.50313,333.0900308 -2.54872,389.706825 -4.65935,86.438135 -13.19438,157.230555 -22.08201,183.155505 -5.00438,14.59762 -10.00597,21.59561 -23.36246,32.68755 -16.86621,14.00664 -25.40099,16.58824 -65.49015,19.80952 -30.12334,2.42052 -510.25376,2.28349 -614.3993076,-0.17535 -41.3502564,-0.97626 -96.5352624,-1.80273 -122.6333524,-1.8366 -61.59501,-0.08 -60.5397,0.33306 -60.15882,-23.54304 0.10844,-6.79729 0.377,-14.86132 0.59684,-17.9201 z"
       id="path7295" />
  </g>
</svg>
