<?xml version="1.0" encoding="UTF-8" standalone="no"?>
<!-- Created with Inkscape (http://www.inkscape.org/) -->

<svg
   width="655.37292mm"
   height="435.76874mm"
   viewBox="0 0 655.37292 435.76874"
   version="1.1"
   id="svg5"
   sodipodi:docname="3.svg"
   inkscape:version="1.1.1 (3bf5ae0d25, 2021-09-20)"
   xmlns:inkscape="http://www.inkscape.org/namespaces/inkscape"
   xmlns:sodipodi="http://sodipodi.sourceforge.net/DTD/sodipodi-0.dtd"
   xmlns="http://www.w3.org/2000/svg"
   xmlns:svg="http://www.w3.org/2000/svg">
  <sodipodi:namedview
     id="namedview7"
     pagecolor="#ffffff"
     bordercolor="#666666"
     borderopacity="1.0"
     inkscape:pageshadow="2"
     inkscape:pageopacity="0"
     inkscape:pagecheckerboard="true"
     inkscape:document-units="mm"
     showgrid="false"
     inkscape:zoom="0.34650956"
     inkscape:cx="790.74298"
     inkscape:cy="1249.6048"
     inkscape:window-width="2400"
     inkscape:window-height="1284"
     inkscape:window-x="-9"
     inkscape:window-y="-9"
     inkscape:window-maximized="1"
     inkscape:current-layer="layer1"
     inkscape:snap-global="false"
     units="px"
     width="800px"
     fit-margin-top="0"
     fit-margin-left="0"
     fit-margin-right="0"
     fit-margin-bottom="0" />
  <defs
     id="defs2">
    <inkscape:path-effect
       effect="bspline"
       id="path-effect7657"
       is_visible="true"
       lpeversion="1"
       weight="33.333333"
       steps="2"
       helper_size="0"
       apply_no_weight="true"
       apply_with_weight="true"
       only_selected="false" />
  </defs>
  <g
     inkscape:label="Vrstva 1"
     inkscape:groupmode="layer"
     id="layer1"
     transform="translate(226.48065,78.878792)">
    <path
       style="fill:#ffffff;stroke:#000000;stroke-width:0.268323px;stroke-linecap:butt;stroke-linejoin:miter;stroke-opacity:1"
       d="m -123.88051,21.026338 c 13.74628,-8.917585 30.830407,-18.686216 48.381335,-26.7528064 17.550928,-8.0665906 35.567864,-14.4308756 52.436827,-19.1672056 16.868964,-4.73633 32.5889209,-7.844469 50.714093,-11.692765 18.125172,-3.848297 38.654421,-8.4365 60.117477,-13.616894 21.463058,-5.180395 43.858638,-10.952657 67.008598,-14.948921 23.14997,-3.996264 47.05293,-6.216365 63.81415,-7.03039 16.76123,-0.814025 26.37982,-0.222 34.34771,1.776242 7.96789,1.998242 14.28459,5.402392 22.28838,10.98986 8.00378,5.587469 17.69416,13.357815 25.26718,21.313447 7.57301,7.955633 13.02835,16.096005 20.38608,29.0840287 7.35773,12.9880235 16.61743,30.8228113 27.02592,54.5416363 10.40849,23.718826 21.96517,53.320152 32.12241,82.70034 10.15724,29.38018 18.91448,58.53747 25.15956,80.70205 6.24507,22.16458 9.97765,37.33526 12.45411,54.24551 2.47646,16.91025 3.69673,35.55911 2.79939,46.91876 -0.89733,11.35965 -3.91213,15.42984 -9.18808,18.64902 -5.27595,3.21918 -12.81291,5.58728 -23.97516,8.17749 -11.16225,2.5902 -25.94904,5.40232 -41.74123,7.21546 -15.79219,1.81314 -32.58886,2.62717 -47.55555,3.55224 -14.96669,0.92507 -28.10256,1.96112 -52.65238,2.47917 -24.54981,0.51804 -60.51188,0.51804 -96.97753,0.18501 -36.46565,-0.33303 -73.432674,-0.99906 -106.380931,-1.99814 -32.948256,-0.99907 -61.875838,-2.33114 -81.22118,-4.21825 -19.345341,-1.88712 -29.107511,-4.32923 -41.202922,-9.39858 -12.095412,-5.06936 -26.523327,-12.76571 -40.377407,-21.97937 -13.85408,-9.21367 -27.13349,-19.94414 -38.25984,-31.08195 -11.12634,-11.13781 -20.0989,-22.68231 -26.91828,-33.08006 -6.81937,-10.39775 -11.48512,-19.64816 -15.72032,-29.15787 -4.2352,-9.50972 -8.03958,-19.27816 -10.37254,-26.41966 -2.33295,-7.1415 -3.19432,-11.65571 -3.48148,-19.09332 -0.28716,-7.43761 -3e-5,-17.79807 1.68686,-28.86194 1.68689,-11.06387 4.77345,-22.83039 9.6188,-34.3383 4.84535,-11.507904 11.44917,-22.756411 17.12001,-31.119038 5.67085,-8.362627 10.40836,-13.838872 15.03836,-18.945256 4.63,-5.106385 9.15219,-9.842592 16.61765,-16.244101 7.46546,-6.401508 17.87364,-14.467861 31.61993,-23.385447 z"
       id="path7655"
       inkscape:path-effect="#path-effect7657"
       inkscape:original-d="m -127.21843,21.877427 c 17.08438,-9.768363 34.168505,-19.536994 51.252381,-29.3058947 18.017916,-6.3642683 36.034854,-12.7285483 54.051879,-19.0932343 15.7208479,-3.107989 31.4408045,-6.216129 47.160811,-9.324601 20.530347,-4.588116 41.059596,-9.176319 61.588994,-13.764888 22.396725,-5.772215 44.792305,-11.544472 67.188015,-17.317117 23.90417,-2.219915 47.80713,-4.440014 71.71026,-6.66043 9.61927,0.592322 19.23786,1.18435 28.85638,1.776115 6.31723,3.404561 12.63393,6.808712 18.95049,10.212658 9.69103,7.77093 19.38141,15.541276 29.07172,23.311504 5.45581,8.140961 10.91116,16.281323 16.36631,24.421576 9.26036,17.8357811 18.52005,35.670571 27.77965,53.505452 11.55741,29.602774 23.1141,59.204097 34.67073,88.805733 8.75788,29.15874 17.51511,58.31603 26.27227,87.47363 3.73299,15.17157 7.46556,30.34225 11.19799,45.51297 1.22055,18.64981 2.44082,37.29867 3.66087,55.94759 -3.01464,4.07061 -6.02943,8.14081 -9.04455,12.2108 -7.53699,2.36845 -15.07394,4.73658 -22.61134,7.10445 -14.78715,2.81251 -29.57394,5.62463 -44.36131,8.43654 -16.79706,0.81436 -33.59373,1.62837 -50.39101,2.44216 -13.13609,1.03635 -26.27196,2.07241 -39.40835,3.10821 -35.96326,2.6e-4 -71.92533,2.6e-4 -107.8884,0 -36.96823,-0.66579 -73.935259,-1.33182 -110.903287,-1.99814 -28.9284926,-1.33183 -57.856075,-2.66389 -86.784507,-3.99627 -9.76229,-2.44192 -19.524459,-4.88403 -29.287078,-7.32647 -14.428222,-7.69635 -28.856128,-15.39271 -43.284578,-23.0895 -13.27969,-10.73061 -26.55909,-21.46109 -39.83904,-32.19205 -8.97268,-11.54472 -17.94524,-23.08922 -26.91826,-34.63425 -4.66567,-9.2505 -9.33141,-18.50091 -13.99751,-27.75179 -3.80426,-9.76855 -7.60864,-19.53699 -11.41335,-29.30587 -0.86114,-4.51411 -1.7225,-9.02832 -2.58416,-13.54288 0.28741,-10.36061 0.57453,-20.72107 0.8614,-31.08201 3.08695,-11.76673 6.17351,-23.53325 9.25987,-35.30028 6.60434,-11.248682 13.20817,-22.497184 19.81185,-33.746181 4.73798,-5.476191 9.4755,-10.952434 14.21283,-16.42906 4.52265,-4.736129 9.04483,-9.472343 13.56684,-14.208914 10.40887,-8.066412 20.81705,-16.132768 31.22519,-24.199558 z" />
  </g>
</svg>
