<?xml version="1.0" encoding="UTF-8" standalone="no"?>
<!-- Created with Inkscape (http://www.inkscape.org/) -->

<svg
   width="889.6449mm"
   height="633.18439mm"
   viewBox="0 0 889.6449 633.18439"
   version="1.1"
   id="svg5"
   sodipodi:docname="4.svg"
   inkscape:version="1.1.1 (3bf5ae0d25, 2021-09-20)"
   xmlns:inkscape="http://www.inkscape.org/namespaces/inkscape"
   xmlns:sodipodi="http://sodipodi.sourceforge.net/DTD/sodipodi-0.dtd"
   xmlns="http://www.w3.org/2000/svg"
   xmlns:svg="http://www.w3.org/2000/svg">
  <sodipodi:namedview
     id="namedview7"
     pagecolor="#ffffff"
     bordercolor="#666666"
     borderopacity="1.0"
     inkscape:pageshadow="2"
     inkscape:pageopacity="0"
     inkscape:pagecheckerboard="true"
     inkscape:document-units="mm"
     showgrid="false"
     inkscape:zoom="0.20715159"
     inkscape:cx="1375.8041"
     inkscape:cy="1800.6137"
     inkscape:window-width="2400"
     inkscape:window-height="1284"
     inkscape:window-x="-9"
     inkscape:window-y="-9"
     inkscape:window-maximized="1"
     inkscape:current-layer="layer1"
     inkscape:snap-global="false"
     units="px"
     width="800px"
     fit-margin-top="0"
     fit-margin-left="0"
     fit-margin-right="0"
     fit-margin-bottom="0" />
  <defs
     id="defs2">
    <inkscape:path-effect
       effect="bspline"
       id="path-effect7890"
       is_visible="true"
       lpeversion="1"
       weight="33.333333"
       steps="2"
       helper_size="0"
       apply_no_weight="true"
       apply_with_weight="true"
       only_selected="false" />
  </defs>
  <g
     inkscape:label="Vrstva 1"
     inkscape:groupmode="layer"
     id="layer1"
     transform="translate(431.95027,125.99411)">
    <path
       style="fill:#ffffff;stroke:#000000;stroke-width:0.255899px;stroke-linecap:butt;stroke-linejoin:miter;stroke-opacity:1"
       d="m -279.4987,-60.586977 c 14.67255,-5.860214 25.64951,-10.418181 35.38249,-14.144165 9.73299,-3.725985 18.22167,-6.619848 28.61333,-9.80322 10.39166,-3.183373 22.68563,-6.656033 33.62611,-9.441466 10.94047,-2.785433 20.5268,-4.883464 33.58956,-7.415682 13.06276,-2.53221 29.60109,-5.49843 44.60307,-7.45186 15.001978,-1.95344 28.4668,-2.89396 45.664255,-3.54512 17.197456,-0.65116 38.126472,-1.01291 55.1043337,-0.36177 16.9778623,0.65113 30.0035873,2.3151 51.2260173,5.67935 21.222431,3.36424 50.640128,8.428533 86.425494,21.017334 35.78537,12.588801 77.93608,32.701229 113.13587,56.070012 35.1998,23.3687834 63.44662,49.992412 83.31508,76.472209 19.86845,26.479796 31.35745,52.814048 43.2127,78.244695 11.85524,25.43065 24.07602,49.95624 34.97989,71.98648 10.90388,22.03025 20.49024,41.5639 27.99122,60.41083 7.50098,18.84693 12.91617,37.00598 4.28061,64.39024 -8.63555,27.38426 -31.32082,63.99175 -79.10798,84.46623 -47.78716,20.47447 -120.67275,24.81528 -175.44818,29.91591 -54.77542,5.10062 -91.43778,10.96071 -127.223033,16.45922 -35.785254,5.49851 -70.691301,10.63514 -110.794263,16.27837 -40.102962,5.64323 -85.400324,11.79271 -127.369304,16.56773 -41.96899,4.77501 -80.60714,8.17531 -112.44058,9.62225 -31.83343,1.44695 -56.8604,0.94052 -72.66716,-3.14721 -15.80676,-4.08774 -22.39281,-11.75652 -29.63767,-30.24173 -7.24486,-18.48521 -15.14812,-47.78565 -19.72189,-77.62958 -4.57376,-29.84392 -5.8178,-60.22961 -6.1837,-97.67027 -0.3659,-37.44066 0.14635,-81.93399 2.41495,-123.02817 2.2686,-41.09419 6.29341,-78.786884 9.25721,-106.460275 2.9638,-27.673391 4.86644,-45.326021 17.41685,-59.832024 12.55041,-14.506003 35.74793,-25.864458 56.53118,-35.125124 20.78325,-9.260665 39.151,-16.422981 53.82354,-22.283194 z"
       id="path7888"
       inkscape:path-effect="#path-effect7890"
       inkscape:original-d="m -275.80281,-61.889348 c 10.9767,-4.557744 21.95367,-9.115681 32.93089,-13.673908 8.48877,-2.893667 16.97745,-5.787529 25.46658,-8.681775 12.29418,-3.472499 24.58814,-6.945195 36.88258,-10.418171 9.5865,-2.097887 19.17284,-4.19588 28.75966,-6.294238 16.53869,-2.96608 33.077,-5.93236 49.61586,-8.89882 13.465094,-0.94032 26.929916,-1.88084 40.395254,-2.82164 20.929561,-0.3615 41.858578,-0.72319 62.7882364,-1.08525 13.0260166,1.66436 26.0517396,3.32835 39.0779896,4.99203 29.418608,5.06474 58.836295,10.129084 88.25479,15.193159 42.15217,20.113457 84.30285,40.225947 126.45465,60.338487 28.2477,26.6249581 56.49452,53.248587 84.74217,79.872498 11.4892,26.335553 22.9782,52.669806 34.46769,79.004316 12.221,24.5268 24.44178,49.05239 36.66305,73.5782 9.58649,19.53468 19.17284,39.06833 28.75966,58.60212 5.41515,18.16001 10.83034,36.31906 16.24589,54.47824 -22.68642,36.60921 -45.37169,73.21671 -68.05718,109.82468 -72.88876,4.34124 -145.77435,8.68205 -218.66114,13.02271 -36.66404,5.86056 -73.326393,11.72068 -109.989207,17.5806 -34.907698,5.13709 -69.813745,10.27372 -104.720236,15.41019 -45.299434,6.15 -90.596797,12.29945 -135.894817,18.44882 -38.63996,3.40069 -77.27811,6.80098 -115.91676,10.2011 -25.02825,-0.50619 -50.05522,-1.01261 -75.08246,-1.51931 -6.58655,-7.6688 -13.17261,-15.33757 -19.75851,-23.00676 -7.90385,-29.30139 -15.80708,-58.60184 -23.71025,-87.90314 -1.24434,-30.38662 -2.48837,-60.77231 -3.73218,-91.15883 0.51202,-44.49481 1.02427,-88.98814 1.53678,-133.48257 4.02471,-37.69396 8.04952,-75.386659 12.07467,-113.080366 1.90246,-17.653074 3.80508,-35.305706 5.70802,-52.9589338 23.19817,-11.3586562 46.39569,-22.7171092 69.59394,-34.0760452 18.36825,-7.162364 36.736,-14.32467 55.10438,-21.487393 z" />
  </g>
</svg>
