<?xml version="1.0" encoding="UTF-8" standalone="no"?>
<svg
   version="1.1"
   x="0px"
   y="0px"
   viewBox="0 0 48.049999 48.049999"
   xml:space="preserve"
   id="svg8"
   sodipodi:docname="5.svg"
   width="48.049999"
   height="48.049999"
   inkscape:version="1.1.1 (3bf5ae0d25, 2021-09-20)"
   xmlns:inkscape="http://www.inkscape.org/namespaces/inkscape"
   xmlns:sodipodi="http://sodipodi.sourceforge.net/DTD/sodipodi-0.dtd"
   xmlns="http://www.w3.org/2000/svg"
   xmlns:svg="http://www.w3.org/2000/svg"><defs
     id="defs12" /><sodipodi:namedview
     id="namedview10"
     pagecolor="#ffffff"
     bordercolor="#666666"
     borderopacity="1.0"
     inkscape:pageshadow="2"
     inkscape:pageopacity="0.0"
     inkscape:pagecheckerboard="0"
     showgrid="false"
     fit-margin-top="0"
     fit-margin-left="0"
     fit-margin-right="0"
     fit-margin-bottom="0"
     inkscape:zoom="5.752"
     inkscape:cx="27.468707"
     inkscape:cy="45.027816"
     inkscape:window-width="2400"
     inkscape:window-height="1284"
     inkscape:window-x="-9"
     inkscape:window-y="-9"
     inkscape:window-maximized="1"
     inkscape:current-layer="g1098" /><g
     id="g1098"
     transform="translate(-1.975,-1.975)"><g
       id="g1081"><path
         d="m 39.3,20.5 c 14.3,-5.9 -1.8,-22.1 -7.8,-7.8 5.9,-14.3 -16.9,-14.3 -11,0 -5.9,-14.3 -22.1,1.9 -7.8,7.8 -14.3,-5.9 -14.3,16.9 0,11 -14.3,5.9 1.9,22.1 7.8,7.8 -5.9,14.3 16.9,14.3 11,0 5.9,14.3 22.1,-1.9 7.8,-7.8 14.3,5.9 14.3,-16.9 0,-11 z M 26,36.3 c -5.7,0 -10.3,-4.6 -10.3,-10.3 0,-5.7 4.6,-10.3 10.3,-10.3 5.7,0 10.3,4.6 10.3,10.3 0,5.7 -4.6,10.3 -10.3,10.3 z"
         id="path1077" /><circle
         cx="26"
         cy="26"
         r="7.1999998"
         id="circle1079" /></g><path
       style="opacity:0.197605;fill:#000000;stroke:#000000;stroke-width:0.0657081;stroke-opacity:0.0148026"
       d="m 23.771962,13.443354 c -5.389039,0.01713 -10.217832,4.756706 -10.306215,10.151227 -0.293226,5.016221 3.470953,9.86225 8.410136,10.7885 3.815333,0.744407 8.00666,-0.639357 10.387238,-3.776453 2.965923,-3.587041 3.178299,-9.174082 0.251317,-12.851798 -2.006408,-2.729816 -5.34442,-4.418348 -8.742476,-4.311476 z m 0.422068,3.758883 c 4.058758,-0.132253 7.426013,4.105712 6.57044,8.033973 -0.52384,3.859542 -4.811033,6.512662 -8.512359,5.406325 -3.583328,-0.889093 -5.978944,-4.957772 -4.818976,-8.508929 0.754659,-2.953028 3.67312,-5.06804 6.760895,-4.931369 z"
       id="path1315"
       transform="translate(1.975,1.975)" /><path
       style="opacity:0.197605;fill:#000000;stroke:#000000;stroke-width:0.0657081;stroke-opacity:0.0148026"
       d="m 23.802522,13.448108 c -5.040149,0.01385 -9.668717,4.101786 -10.239984,9.120469 -0.911816,5.502854 3.338523,11.257484 8.891608,11.91026 3.176068,0.426149 6.535934,-0.510136 8.828451,-2.800657 3.336699,-3.104498 4.363436,-8.442258 2.151087,-12.477997 -1.615908,-3.090327 -4.739232,-5.37748 -8.24883,-5.691634 -0.458802,-0.05004 -0.920899,-0.07078 -1.382332,-0.06044 z m 0.308317,3.756845 c 3.272346,-0.110257 6.290332,2.597129 6.678384,5.804028 0.204291,2.047681 -0.247169,4.212689 -1.753806,5.713026 -2.631067,2.957833 -7.80554,2.820262 -10.251895,-0.300355 -2.593146,-2.873608 -1.948428,-7.836776 1.251968,-9.988865 1.17961,-0.838845 2.634279,-1.244108 4.075349,-1.227834 z"
       id="path1354"
       transform="translate(1.975,1.975)" /><path
       style="opacity:0.197605;fill:#000000;stroke:#000000;stroke-width:0.0657081;stroke-opacity:0.0148026"
       d="m 23.798108,13.44607 c -5.040916,0.01271 -9.675764,4.09998 -10.240324,9.122507 -0.893675,5.463266 3.2714,11.156124 8.764275,11.900752 3.634726,0.518065 7.535529,-0.782177 9.835914,-3.718476 2.864863,-3.378542 3.295888,-8.581728 0.840739,-12.303126 -1.755016,-2.823139 -4.827581,-4.773047 -8.166656,-4.973134 -0.343928,-0.02627 -0.689095,-0.03566 -1.033948,-0.02852 z m 0.304242,3.733077 c 3.673199,-0.06572 7.091791,3.375877 6.699437,7.085851 0.16133,3.829765 -3.687686,7.051017 -7.436273,6.585005 -4.008679,-0.280654 -7.111236,-4.601951 -6.006063,-8.481085 0.749852,-3.007536 3.642428,-5.306736 6.742899,-5.189771 z"
       id="path1393"
       transform="translate(1.975,1.975)" /><path
       style="opacity:0.197605;fill:#000000;stroke:#000000;stroke-width:0.0657081;stroke-opacity:0.0148026"
       d="m 23.798108,13.44607 c -5.040916,0.01271 -9.675764,4.09998 -10.240324,9.122507 -0.893675,5.463266 3.2714,11.156124 8.764275,11.900752 3.634726,0.518065 7.535529,-0.782177 9.835914,-3.718476 2.864863,-3.378542 3.295888,-8.581728 0.840739,-12.303126 -1.755016,-2.823139 -4.827581,-4.773047 -8.166656,-4.973134 -0.343928,-0.02627 -0.689095,-0.03566 -1.033948,-0.02852 z m 0.304242,3.733077 c 3.673199,-0.06572 7.091791,3.375877 6.699437,7.085851 0.16133,3.829765 -3.687686,7.051017 -7.436273,6.585005 -4.008679,-0.280654 -7.111236,-4.601951 -6.006063,-8.481085 0.749852,-3.007536 3.642428,-5.306736 6.742899,-5.189771 z"
       id="path1432"
       transform="translate(1.975,1.975)" /><path
       style="opacity:0.197605;fill:#000000;stroke:#000000;stroke-width:0.0657081;stroke-opacity:0.0148026"
       d="m 23.881639,13.431469 c -5.103616,-0.01063 -9.843974,4.149841 -10.344907,9.256971 -0.601255,4.257925 1.67211,8.718163 5.518014,10.671094 2.394089,1.380403 5.34832,1.442928 7.980687,0.836452 5.254471,-1.554679 8.821893,-7.578202 7.237971,-12.912289 -1.232842,-4.541526 -5.655279,-7.972989 -10.391765,-7.852228 z m 0.03056,3.756506 c 3.676427,-0.202122 6.985433,3.080343 6.950367,6.729317 0.163834,3.580941 -2.903265,6.885413 -6.507247,6.959197 -3.66463,0.249526 -7.098268,-2.885612 -7.169041,-6.558181 -0.247387,-3.748314 2.945075,-7.187958 6.725921,-7.130333 z"
       id="path1471"
       transform="translate(1.975,1.975)" /><path
       style="opacity:0.197605;fill:#000000;stroke:#000000;stroke-width:0.0657081;stroke-opacity:0.0148026"
       d="m 23.881639,13.431469 c -5.11571,-0.01103 -9.847418,4.164633 -10.355433,9.278702 -0.824462,5.445565 3.370968,11.08857 8.857369,11.748901 2.834876,0.356359 5.884115,-0.161786 8.087484,-2.092273 3.562003,-2.742284 5.205819,-7.826694 3.482823,-12.051175 -1.551961,-4.062123 -5.69083,-6.993928 -10.072243,-6.884155 z m 0.118844,3.832227 c 3.659176,-0.26743 7.015106,3.176311 6.861405,6.813527 0.06081,3.350769 -2.699316,6.537539 -6.127964,6.74256 -4.035495,0.574824 -7.999552,-3.187695 -7.53746,-7.262759 0.203297,-3.403673 3.281498,-6.608001 6.804019,-6.293328 z"
       id="path1510"
       transform="translate(1.975,1.975)" /><path
       style="opacity:0.197605;fill:#000000;stroke:#000000;stroke-width:0.0657081;stroke-opacity:0.0148026"
       d="m 23.753626,13.450145 c -5.176726,0.02279 -9.880862,4.365804 -10.265451,9.538462 -0.582134,4.967361 2.861157,9.968406 7.686589,11.249162 2.877039,0.624536 6.108628,0.426638 8.566929,-1.342282 3.436768,-2.236743 5.538561,-6.508054 4.730352,-10.598895 -0.782702,-5.069533 -5.568941,-9.093368 -10.718419,-8.846447 z m 0.248216,3.81491 c 3.700643,-0.282291 7.106585,3.271509 6.855632,6.974476 -0.04551,3.359299 -2.822028,6.436938 -6.236622,6.575158 -4.059416,0.542192 -7.979317,-3.336808 -7.414201,-7.411824 0.288306,-3.323584 3.354576,-6.436659 6.795191,-6.13781 z"
       id="path1549"
       transform="translate(1.975,1.975)" /><path
       style="opacity:0.197605;fill:#000000;stroke:#000000;stroke-width:0.0657081;stroke-opacity:0.0148026"
       d="m 23.968905,13.44641 c -5.27165,-0.08057 -10.182817,4.329889 -10.470883,9.633538 -0.448279,4.29204 1.993106,8.70848 5.951735,10.481749 2.691547,1.343706 5.983656,1.326935 8.741524,0.1983 5.181819,-2.099493 7.954757,-8.717641 5.595541,-13.834862 -1.656459,-3.825654 -5.585487,-6.612717 -9.817917,-6.478725 z m 0.0163,3.756166 c 3.703292,-0.155393 6.956729,3.196714 6.884154,6.859707 0.113787,3.721015 -3.307931,6.942827 -6.977193,6.793153 -4.215852,0.05747 -7.742586,-4.455486 -6.502493,-8.524548 0.731627,-2.969417 3.565312,-5.195738 6.595532,-5.128312 z"
       id="path1588"
       transform="translate(1.975,1.975)" /><path
       style="opacity:0.197605;fill:#000000;stroke:#000000;stroke-width:0.0657081;stroke-opacity:0.0148026"
       d="m 23.688771,13.421622 c -4.411639,0.103263 -8.552677,3.198642 -9.780929,7.460472 -1.469878,4.419013 0.43884,9.626735 4.402705,12.060592 4.377613,2.960212 10.86059,1.855146 14.048069,-2.353651 3.378774,-4.097763 2.865042,-10.680721 -1.052589,-14.248591 -2.020018,-1.933694 -4.817226,-3.028685 -7.617256,-2.918822 z m 0.357892,3.764316 c 3.733591,-0.100752 7.015854,3.392687 6.816583,7.060044 -0.08472,3.477709 -3.249846,6.79463 -6.781915,6.520477 -3.979789,0.397288 -7.424274,-3.636619 -6.834212,-7.4981 0.324575,-3.419995 3.372468,-6.121271 6.799544,-6.082421 z"
       id="path1627"
       transform="translate(1.975,1.975)" /><path
       style="opacity:0.197605;fill:#000000;stroke:#000000;stroke-width:0.0657081;stroke-opacity:0.0148026"
       d="m 23.688771,13.421622 c -4.411639,0.103263 -8.552677,3.198642 -9.780929,7.460472 -1.469878,4.419013 0.43884,9.626735 4.402705,12.060592 4.40824,2.979058 10.951978,1.844857 14.120089,-2.429522 C 35.802055,26.3267 35.160668,19.648338 31.095502,16.145539 29.095941,14.331877 26.391377,13.31618 23.688771,13.421622 Z m 0.414937,3.765335 c 3.666678,-0.0268 6.934402,3.297017 6.755803,6.974816 -0.02204,3.514439 -3.172884,6.780069 -6.744597,6.632883 -3.845577,0.334869 -7.179611,-3.364921 -6.91098,-7.118448 0.08498,-3.60153 3.324072,-6.572032 6.899774,-6.489251 z"
       id="path1666"
       transform="translate(1.975,1.975)" /><path
       style="opacity:0.197605;fill:#000000;stroke:#000000;stroke-width:0.0657081;stroke-opacity:0.0148026"
       d="m 23.725104,13.426376 c -4.830924,0.05333 -9.393187,3.829817 -10.107897,8.654599 -0.604546,3.092436 0.20988,6.414045 2.305244,8.787704 2.912252,3.538016 8.220676,4.84037 12.388014,2.8594 3.950901,-1.692267 6.581653,-5.941801 6.298,-10.23855 -0.08889,-5.532946 -5.366647,-10.384938 -10.883361,-10.063153 z m 0.358571,3.775182 c 3.916365,-0.103924 7.260009,3.743761 6.727618,7.593486 -0.392817,3.327776 -3.464429,6.291957 -6.916964,5.975384 -3.345668,0.167936 -6.389089,-2.735154 -6.657797,-6.044653 -0.426934,-3.948405 2.847161,-7.637524 6.847143,-7.524217 z"
       id="path1705"
       transform="translate(1.975,1.975)" /><path
       style="opacity:0.197605;fill:#000000;stroke:#000000;stroke-width:0.0657081;stroke-opacity:0.0148026"
       d="m 23.725104,13.426376 c -4.830924,0.05333 -9.393187,3.829817 -10.107897,8.654599 -0.604546,3.092436 0.20988,6.414045 2.305244,8.787704 2.912252,3.538016 8.220676,4.84037 12.388014,2.8594 3.950901,-1.692267 6.581653,-5.941801 6.298,-10.23855 -0.08889,-5.532946 -5.366647,-10.384938 -10.883361,-10.063153 z m 0.358571,3.775182 c 3.916365,-0.103924 7.260009,3.743761 6.727618,7.593486 -0.392817,3.327776 -3.464429,6.291957 -6.916964,5.975384 -3.345668,0.167936 -6.389089,-2.735154 -6.657797,-6.044653 -0.426934,-3.948405 2.847161,-7.637524 6.847143,-7.524217 z"
       id="path1744"
       transform="translate(1.975,1.975)" /><path
       style="opacity:0.197605;fill:#000000;stroke:#000000;stroke-width:0.0657081;stroke-opacity:0.0148026"
       d="m 23.772302,13.424339 c -4.819851,0.0193 -9.284725,3.756911 -10.149392,8.504057 -1.194791,5.068999 2.088562,10.569021 7.000351,12.155537 4.87076,1.817458 10.737659,-0.739376 12.936737,-5.397579 1.899953,-3.881392 1.249199,-8.958446 -1.929695,-11.989376 -2.003627,-2.163554 -4.900228,-3.414258 -7.858001,-3.272639 z m 0.295074,3.777219 c 3.860002,-0.09812 7.21567,3.611369 6.746974,7.436611 -0.269668,3.481249 -3.570885,6.536676 -7.120825,6.117777 -3.986397,0.103078 -7.17697,-4.1063 -6.349693,-7.930326 0.528472,-3.217832 3.445497,-5.694909 6.723544,-5.624062 z"
       id="path1783"
       transform="translate(1.975,1.975)" /><path
       style="opacity:0.197605;fill:#000000;stroke:#000000;stroke-width:0.0657081;stroke-opacity:0.0148026"
       d="m 23.68945,13.444373 c -5.66086,-0.06264 -10.61244,5.254828 -10.310612,10.880386 0.14939,3.996573 2.627606,7.896432 6.379914,9.423014 5.058163,2.434072 11.813625,-0.153896 13.943647,-5.357099 C 35.941087,23.763736 34.095636,17.75728 29.76716,15.05149 27.980269,13.827564 25.825897,13.404512 23.68945,13.444373 Z m 0.365702,3.79114 c 3.958091,-0.113187 7.368921,3.810171 6.729996,7.713689 -0.400641,3.680031 -4.246726,6.453343 -7.838646,5.790106 -3.187132,-0.435412 -6.01291,-3.594408 -5.595189,-6.926937 -0.293692,-3.555158 3.221703,-6.664093 6.703839,-6.576858 z"
       id="path1822"
       transform="translate(1.975,1.975)" /><path
       style="opacity:0.197605;fill:#000000;stroke:#000000;stroke-width:0.0657081;stroke-opacity:0.0148026"
       d="m 23.642252,13.455918 c -5.95341,-0.11232 -11.029694,5.871486 -10.200935,11.716373 0.431572,4.23411 3.608986,7.940169 7.687883,9.111979 5.128842,1.600207 11.10579,-1.489233 12.853884,-6.552747 1.713651,-4.470429 0.02346,-10.05499 -4.104018,-12.596289 -1.812274,-1.298935 -4.043627,-1.723813 -6.236814,-1.679316 z m 0.44346,3.751752 c 3.829033,-0.03675 7.161266,3.63441 6.716753,7.446798 -0.278999,3.53489 -3.659984,6.457437 -7.181944,6.110646 -3.416912,-0.0108 -6.639805,-3.290837 -6.269898,-6.775496 -0.393329,-3.642278 3.208781,-6.810177 6.735089,-6.781948 z"
       id="path1861"
       transform="translate(1.975,1.975)" /><path
       style="opacity:0.197605;fill:#000000;stroke:#000000;stroke-width:0.0657081;stroke-opacity:0.0148026"
       d="m 23.950229,13.415171 c -4.728066,-0.122099 -9.123229,3.410653 -10.23408,7.970912 -1.310921,4.587979 1.018505,9.786573 5.226311,11.988517 4.120585,2.380852 9.7504,1.44447 12.88622,-2.137345 2.955067,-2.93394 3.499714,-7.672985 1.988702,-11.438435 -1.667095,-3.831441 -5.634534,-6.578514 -9.867153,-6.383649 z m 0.0618,3.808797 c 3.212163,-0.02767 6.248167,2.537143 6.725921,5.780598 0.777479,3.968608 -2.876357,8.105797 -6.964629,7.754776 -4.119533,0.08258 -7.371906,-4.336115 -6.355127,-8.259356 0.669024,-2.985454 3.522729,-5.302918 6.593835,-5.276018 z"
       id="path1900"
       transform="translate(1.975,1.975)" /><path
       style="opacity:0.197605;fill:#000000;stroke:#000000;stroke-width:0.0657081;stroke-opacity:0.0148026"
       d="m 23.548874,13.380197 c -5.959992,0.06891 -11.050733,6.047656 -10.134722,11.954741 0.582083,5.250853 5.506657,9.622364 10.821934,9.362515 3.74139,-0.02932 7.300371,-2.203037 9.084185,-5.485467 1.581998,-2.647422 1.688792,-6.023006 0.725631,-8.901455 -1.56275,-4.209949 -5.961179,-7.272814 -10.497028,-6.930334 z m 0.531065,3.880783 c 3.871934,-0.06942 7.245788,3.721651 6.650201,7.566662 -0.339589,3.599084 -3.933961,6.413742 -7.509616,5.906912 -2.67511,-0.224372 -5.012798,-2.388495 -5.736456,-4.944272 -0.266875,-1.842249 -0.298789,-3.862151 0.886757,-5.419248 1.212413,-1.926148 3.431664,-3.141766 5.709114,-3.110054 z"
       id="path1939"
       transform="translate(1.975,1.975)" /><path
       style="opacity:0.197605;fill:#000000;stroke:#000000;stroke-width:0.0657081;stroke-opacity:0.0148026"
       d="m 23.548874,13.380197 c -5.959992,0.06891 -11.050733,6.047656 -10.134722,11.954741 0.582083,5.250853 5.506657,9.622364 10.821934,9.362515 3.74139,-0.02932 7.300371,-2.203037 9.084185,-5.485467 1.581998,-2.647422 1.688792,-6.023006 0.725631,-8.901455 -1.56275,-4.209949 -5.961179,-7.272814 -10.497028,-6.930334 z m 0.531065,3.880783 c 3.871934,-0.06942 7.245788,3.721651 6.650201,7.566662 -0.339589,3.599084 -3.933961,6.413742 -7.509616,5.906912 -2.67511,-0.224372 -5.012798,-2.388495 -5.736456,-4.944272 -0.266875,-1.842249 -0.298789,-3.862151 0.886757,-5.419248 1.212413,-1.926148 3.431664,-3.141766 5.709114,-3.110054 z"
       id="path1978"
       transform="translate(1.975,1.975)" /></g></svg>
