<?xml version="1.0" encoding="UTF-8" standalone="no"?>
<svg
   version="1.1"
   x="0px"
   y="0px"
   viewBox="0 0 83.676002 72.466003"
   xml:space="preserve"
   id="svg8"
   sodipodi:docname="6.svg"
   width="83.676003"
   height="72.466003"
   inkscape:version="1.1.1 (3bf5ae0d25, 2021-09-20)"
   xmlns:inkscape="http://www.inkscape.org/namespaces/inkscape"
   xmlns:sodipodi="http://sodipodi.sourceforge.net/DTD/sodipodi-0.dtd"
   xmlns="http://www.w3.org/2000/svg"
   xmlns:svg="http://www.w3.org/2000/svg"><defs
     id="defs12" /><sodipodi:namedview
     id="namedview10"
     pagecolor="#ffffff"
     bordercolor="#666666"
     borderopacity="1.0"
     inkscape:pageshadow="2"
     inkscape:pageopacity="0.0"
     inkscape:pagecheckerboard="0"
     showgrid="false"
     fit-margin-top="0"
     fit-margin-left="0"
     fit-margin-right="0"
     fit-margin-bottom="0"
     inkscape:zoom="5.752"
     inkscape:cx="84.49235"
     inkscape:cy="52.67733"
     inkscape:window-width="2400"
     inkscape:window-height="1284"
     inkscape:window-x="-9"
     inkscape:window-y="-9"
     inkscape:window-maximized="1"
     inkscape:current-layer="g1098" /><g
     id="g1098"
     transform="translate(107.61191,-8.6587198)"><g
       id="g2063"
       transform="translate(-115.77491,-5.1072802)"><g
         id="g2046"><path
           fill-rule="evenodd"
           clip-rule="evenodd"
           d="M 91.839,49.994 C 85.602,43.76 83.146,37.223 73.349,37.223 c -0.432,0 -0.853,0.016 -1.285,0.033 0.229,-0.356 0.451,-0.724 0.665,-1.092 4.899,-8.492 0.448,-13.954 -1.812,-22.398 -8.52,2.281 -15.405,1.14 -20.303,9.628 -0.217,0.37 -0.423,0.748 -0.615,1.126 -0.2,-0.378 -0.401,-0.752 -0.616,-1.124 -4.903,-8.488 -11.855,-7.365 -20.303,-9.627 -2.283,8.519 -6.715,13.912 -1.808,22.398 0.21,0.372 0.432,0.735 0.661,1.094 -0.425,-0.018 -0.848,-0.027 -1.277,-0.027 -9.805,0 -12.307,6.586 -18.493,12.769 6.237,6.234 8.688,12.769 18.493,12.769 0.429,0 0.857,-0.012 1.285,-0.03 -0.229,0.358 -0.456,0.723 -0.669,1.091 -4.903,8.492 -0.448,13.954 1.816,22.399 8.52,-2.28 15.399,-1.141 20.302,-9.626 0.211,-0.375 0.422,-0.752 0.616,-1.13 0.191,0.378 0.398,0.753 0.612,1.124 4.899,8.487 11.86,7.365 20.302,9.629 2.287,-8.517 6.713,-13.911 1.813,-22.4 -0.218,-0.37 -0.432,-0.735 -0.661,-1.092 0.424,0.019 0.852,0.028 1.277,0.028 9.797,10e-4 12.306,-6.585 18.49,-12.771 z M 50,64.333 c -7.916,0 -14.333,-6.417 -14.333,-14.333 0,-7.916 6.417,-14.333 14.333,-14.333 7.916,0 14.333,6.417 14.333,14.333 0,7.916 -6.417,14.333 -14.333,14.333 z"
           id="path2042" /><circle
           fill-rule="evenodd"
           clip-rule="evenodd"
           cx="50"
           cy="50"
           r="4.1669998"
           id="circle2044" /></g></g><path
       style="opacity:0.197605;fill:#000000;stroke:#000000;stroke-width:0.0657081;stroke-opacity:0.0148026"
       d="m 41.605773,21.616462 c -6.272203,-0.01566 -12.139945,4.529682 -13.80913,10.555863 -1.746458,5.682934 0.520731,12.21191 5.278469,15.731868 4.905424,3.915504 12.334949,3.837862 17.341004,0.148411 5.584291,-3.860074 7.64791,-11.915822 4.6342,-17.986648 -2.265559,-5.191864 -7.820472,-8.555623 -13.444543,-8.449494 z m 0.222749,10.837603 c 1.738137,-0.136531 3.381706,1.18342 3.721532,2.898788 0.656678,2.309335 -1.372483,4.906999 -3.81525,4.631201 -2.835042,0.23785 -4.762165,-3.485768 -3.173149,-5.769732 0.675053,-1.122837 1.965709,-1.785017 3.266867,-1.760257 z"
       id="path3994"
       transform="translate(-107.61191,8.6587198)" /><path
       style="opacity:0.197605;fill:#000000;stroke:#000000;stroke-width:0.0657081;stroke-opacity:0.0148026"
       d="m 41.320886,21.602201 c -6.507955,0.160763 -12.475208,5.172457 -13.770977,11.551714 -1.390012,5.890382 1.454323,12.370066 6.598879,15.498321 5.320316,3.472957 12.910612,2.738501 17.509195,-1.62919 3.350466,-3.028714 5.188031,-7.632093 4.720155,-12.138712 -0.488755,-7.222613 -7.148291,-13.299181 -14.3632,-13.289943 -0.231433,-0.0023 -0.462734,1.49e-4 -0.694052,0.0078 z m 0.507636,10.851864 c 1.738137,-0.136531 3.381706,1.18342 3.721532,2.898788 0.656678,2.309335 -1.372483,4.906999 -3.81525,4.631201 -2.832004,0.239119 -4.748424,-3.476863 -3.17247,-5.759206 0.671295,-1.126154 1.963203,-1.796578 3.266188,-1.770783 z"
       id="path4033"
       transform="translate(-107.61191,8.6587198)" /><path
       style="opacity:0.197605;fill:#000000;stroke:#000000;stroke-width:0.0657081;stroke-opacity:0.0148026"
       d="m 41.351106,21.617481 c -6.258121,0.09385 -12.067691,4.714317 -13.603624,10.775464 -1.607912,5.621007 0.560932,12.077194 5.315554,15.508336 3.182962,2.463688 7.383777,3.445183 11.336602,2.713248 6.609595,-1.019871 11.890965,-7.169633 12.011306,-13.839162 0.291686,-4.90656 -2.224969,-9.739124 -6.239877,-12.516821 -2.551891,-1.806883 -5.695401,-2.745432 -8.819961,-2.641065 z m 0.546345,10.835226 c 1.902762,-0.118094 3.549136,1.468944 3.729002,3.319837 0.377417,2.283461 -1.736506,4.549653 -4.0655,4.210724 -2.76271,0.09318 -4.549794,-3.552994 -2.98232,-5.77336 0.691074,-1.128844 2.005417,-1.787511 3.318818,-1.757201 z"
       id="path4072"
       transform="translate(-107.61191,8.6587198)" /><path
       style="opacity:0.197605;fill:#000000;stroke:#000000;stroke-width:0.0657081;stroke-opacity:0.0148026"
       d="m 41.351106,21.617481 c -6.258121,0.09385 -12.067691,4.714317 -13.603624,10.775464 -1.607912,5.621007 0.560932,12.077194 5.315554,15.508336 3.182962,2.463688 7.383777,3.445183 11.336602,2.713248 6.609595,-1.019871 11.890965,-7.169633 12.011306,-13.839162 0.291686,-4.90656 -2.224969,-9.739124 -6.239877,-12.516821 -2.551891,-1.806883 -5.695401,-2.745432 -8.819961,-2.641065 z m 0.546345,10.835226 c 1.902762,-0.118094 3.549136,1.468944 3.729002,3.319837 0.377417,2.283461 -1.736506,4.549653 -4.0655,4.210724 -2.76271,0.09318 -4.549794,-3.552994 -2.98232,-5.77336 0.691074,-1.128844 2.005417,-1.787511 3.318818,-1.757201 z"
       id="path4111"
       transform="translate(-107.61191,8.6587198)" /><path
       style="opacity:0.197605;fill:#000000;stroke:#000000;stroke-width:0.0657081;stroke-opacity:0.0148026"
       d="m 41.431581,21.627668 c -6.593044,0.03244 -12.694905,5.160548 -13.889191,11.642689 -1.306403,5.953377 1.536987,12.542117 6.855292,15.562183 5.079415,3.091792 12.062398,2.595252 16.614126,-1.248208 3.667507,-2.951566 5.792031,-7.713099 5.396221,-12.421631 -0.369592,-7.196208 -6.871741,-13.574089 -14.136465,-13.526792 -0.279889,-0.0097 -0.559962,-0.01053 -0.839983,-0.0082 z m 0.502203,10.826057 c 2.970223,-0.154696 4.803532,3.736937 3.020348,6.022362 -1.093419,1.584897 -3.459514,1.95977 -5.091639,1.066545 -2.182386,-1.283944 -2.470174,-4.669011 -0.47334,-6.25326 0.698917,-0.601327 1.636933,-0.845881 2.544631,-0.835647 z"
       id="path4150"
       transform="translate(-107.61191,8.6587198)" /><path
       style="opacity:0.197605;fill:#000000;stroke:#000000;stroke-width:0.0657081;stroke-opacity:0.0148026"
       d="m 41.589814,21.621556 c -6.28406,-0.02339 -12.194622,4.542503 -13.795121,10.612498 -1.756491,5.936702 0.705343,12.841264 5.947798,16.188761 5.038094,3.453564 12.27567,3.202832 17.029194,-0.64713 3.809894,-2.936838 6.042967,-7.800885 5.636344,-12.612984 -0.341857,-6.85574 -6.228048,-12.953243 -13.090526,-13.466843 -0.574141,-0.05384 -1.15096,-0.082 -1.727689,-0.0743 z m 0.317145,10.831151 c 3.002182,-0.168134 4.847321,3.776955 3.022047,6.064466 -1.522001,2.119433 -5.12098,1.988522 -6.385347,-0.33616 -1.272935,-2.113844 -0.01927,-5.340577 2.548027,-5.657339 0.268847,-0.04841 0.542169,-0.07155 0.815273,-0.07097 z"
       id="path4189"
       transform="translate(-107.61191,8.6587198)" /><path
       style="opacity:0.197605;fill:#000000;stroke:#000000;stroke-width:0.0657081;stroke-opacity:0.0148026"
       d="m 41.200343,21.631403 c -6.27885,0.141299 -12.065476,4.856499 -13.503666,10.964121 -1.603905,5.966063 1.034069,12.770983 6.319984,16.004417 4.846292,3.199228 11.54454,2.942394 16.239636,-0.415614 4.82314,-3.403626 7.356149,-9.861335 5.74053,-15.60191 -1.555167,-6.382036 -7.823524,-11.239555 -14.418898,-10.961201 -0.125862,0.0034 -0.251724,0.0068 -0.377586,0.01019 z m 0.90967,10.826737 c 3.055455,-0.01369 4.666997,4.171469 2.594206,6.312682 -1.579309,1.788187 -4.894633,1.710245 -6.082462,-0.498468 -1.345727,-2.05171 -0.226223,-5.264825 2.282494,-5.709292 0.394669,-0.08976 0.801609,-0.123471 1.205762,-0.104922 z"
       id="path4228"
       transform="translate(-107.61191,8.6587198)" /><path
       style="opacity:0.197605;fill:#000000;stroke:#000000;stroke-width:0.0657081;stroke-opacity:0.0148026"
       d="m 41.651953,21.621895 c -5.921255,-0.01147 -11.567323,3.966288 -13.546337,9.549429 -1.021994,2.838185 -1.080745,6.017149 -0.394127,8.942442 1.259804,4.485959 4.719786,8.367649 9.174452,9.858963 0.781794,0.30269 1.689958,0.561506 2.300157,0.662172 4.840047,0.876891 10.066724,-0.789579 13.375103,-4.461424 2.885807,-3.098267 4.304447,-7.450788 3.800259,-11.657634 -0.659968,-6.964278 -7.040191,-12.855571 -14.056767,-12.886 -0.217446,-0.0091 -0.435147,-0.0094 -0.65274,-0.0079 z m 0.264174,10.857637 c 2.62195,-0.150753 4.549311,2.99916 3.40167,5.319141 -0.979056,2.53274 -4.903436,3.049222 -6.465822,0.81018 -1.63516,-1.992577 -0.65948,-5.566142 2.017301,-6.014552 0.343288,-0.0778 0.695085,-0.113418 1.046851,-0.114769 z"
       id="path4267"
       transform="translate(-107.61191,8.6587198)" /><path
       style="opacity:0.197605;fill:#000000;stroke:#000000;stroke-width:0.0657081;stroke-opacity:0.0148026"
       d="m 41.292703,21.693202 c -4.326414,-0.105663 -8.4629,2.289958 -11.075292,5.643417 -2.040269,2.598079 -3.099781,5.891827 -2.959569,9.191776 -0.134322,7.627836 6.806207,14.456092 14.405987,14.363827 6.158556,0.110537 12.0972,-4.061214 14.022012,-9.922864 2.13971,-5.906746 -0.1525,-12.994904 -5.279461,-16.600117 -2.570326,-1.866863 -5.750301,-2.944454 -8.945924,-2.677476 z m 0.682507,10.784292 c 2.390547,-0.04763 4.273024,2.526805 3.540209,4.793849 -0.561911,1.603113 -2.147181,2.978961 -3.93715,2.718144 -2.549049,0.0054 -4.420191,-3.158748 -3.17247,-5.397918 0.651483,-1.334583 2.065659,-2.22856 3.569411,-2.114075 z"
       id="path4306"
       transform="translate(-107.61191,8.6587198)" /><path
       style="opacity:0.197605;fill:#000000;stroke:#000000;stroke-width:0.0657081;stroke-opacity:0.0148026"
       d="m 41.292703,21.693202 c -4.212084,-0.10596 -8.246936,2.171432 -10.866805,5.376187 -2.043568,2.580593 -3.376026,5.845186 -3.096409,9.18057 -0.209532,2.599406 0.534247,5.172934 1.8867,7.380874 2.956262,5.163004 9.249981,8.202208 15.123687,7.024442 5.560056,-0.926907 10.352514,-5.296424 11.685962,-10.787813 1.645883,-6.079353 -1.20427,-12.990314 -6.63371,-16.17156 -2.432417,-1.505839 -5.238467,-2.234044 -8.099425,-2.0027 z m 0.681488,10.784292 c 2.436272,-0.0463 4.317224,2.628827 3.507612,4.911675 -0.618404,1.541993 -2.147367,2.859341 -3.903534,2.600318 -2.549049,0.0054 -4.420191,-3.158748 -3.17247,-5.397918 0.651342,-1.334203 2.06497,-2.228296 3.568392,-2.114075 z"
       id="path4345"
       transform="translate(-107.61191,8.6587198)" /><path
       style="opacity:0.197605;fill:#000000;stroke:#000000;stroke-width:0.0657081;stroke-opacity:0.0148026"
       d="m 41.538881,21.62597 c -5.964426,-0.02329 -11.60551,4.070804 -13.503574,9.712913 -1.627224,4.641855 -0.835224,10.125418 2.292799,13.971105 2.999476,3.799504 7.95771,6.044913 12.805329,5.468545 C 49.930447,50.449951 55.751344,44.536309 56.390033,37.830252 57.162695,31.797145 53.674638,25.539059 48.12621,23.041848 46.096015,21.963977 43.818935,21.587082 41.538881,21.62597 Z m 0.280812,10.853562 c 2.263307,-0.105303 4.234179,2.14351 3.719154,4.378572 -0.259249,2.088444 -2.59431,3.686929 -4.635615,3.018991 -2.406478,-0.547627 -3.731801,-3.627795 -2.268233,-5.68009 0.689294,-1.057204 1.918792,-1.73279 3.184694,-1.717473 z"
       id="path4384"
       transform="translate(-107.61191,8.6587198)" /><path
       style="opacity:0.197605;fill:#000000;stroke:#000000;stroke-width:0.0657081;stroke-opacity:0.0148026"
       d="m 41.538881,21.62597 c -5.964426,-0.02329 -11.60551,4.070804 -13.503574,9.712913 -1.627224,4.641855 -0.835224,10.125418 2.292799,13.971105 2.999476,3.799504 7.95771,6.044913 12.805329,5.468545 C 49.930447,50.449951 55.751344,44.536309 56.390033,37.830252 57.162695,31.797145 53.674638,25.539059 48.12621,23.041848 46.096015,21.963977 43.818935,21.587082 41.538881,21.62597 Z m 0.280812,10.853562 c 2.263307,-0.105303 4.234179,2.14351 3.719154,4.378572 -0.259249,2.088444 -2.59431,3.686929 -4.635615,3.018991 -2.406478,-0.547627 -3.731801,-3.627795 -2.268233,-5.68009 0.689294,-1.057204 1.918792,-1.73279 3.184694,-1.717473 z"
       id="path4423"
       transform="translate(-107.61191,8.6587198)" /><path
       style="opacity:0.197605;fill:#000000;stroke:#000000;stroke-width:0.0657081;stroke-opacity:0.0148026"
       d="m 41.621393,21.612727 c -5.863984,-0.06936 -11.399148,3.888015 -13.444373,9.345255 -1.097384,2.59436 -1.067872,5.51864 -0.69575,8.26377 1.093721,5.27599 5.251182,9.813844 10.501782,11.156784 6.802802,2.012507 14.674219,-1.841712 17.33772,-8.402648 2.598114,-5.866681 0.730509,-13.307988 -4.380949,-17.203118 -2.613907,-2.115175 -5.956342,-3.24829 -9.31843,-3.160043 z m 0.434631,10.872577 c 2.713107,0.01351 4.61601,3.524465 2.974169,5.762941 -1.093677,1.788274 -3.658476,2.324869 -5.348683,1.06994 -2.109554,-1.314311 -2.160459,-4.671754 -0.138878,-6.097743 0.71191,-0.545222 1.623597,-0.788254 2.513392,-0.735138 z"
       id="path4462"
       transform="translate(-107.61191,8.6587198)" /><path
       style="opacity:0.197605;fill:#000000;stroke:#000000;stroke-width:0.0657081;stroke-opacity:0.0148026"
       d="m 41.097118,21.688108 c -3.659703,-0.124811 -7.142577,1.761568 -9.720124,4.242411 -5.311405,5.158176 -5.575267,14.438132 -0.624443,19.92853 3.036411,3.479134 7.80222,5.560648 12.435552,4.90794 5.279926,-0.278458 10.102549,-3.980082 12.14693,-8.791101 1.286812,-2.809685 1.353714,-6.012908 0.832251,-9.012489 C 54.960595,27.92787 51.051926,23.600783 46.038952,22.158873 44.460419,21.555988 42.749659,21.717716 41.097118,21.688108 Z m 1.000671,10.790405 c 2.285065,0.06411 3.986801,2.512195 3.39488,4.689266 -0.497245,2.246517 -3.292853,3.559605 -5.332385,2.459062 -2.517311,-1.116881 -2.808073,-5.099396 -0.421049,-6.529657 0.695473,-0.449562 1.535798,-0.643907 2.358554,-0.618671 z"
       id="path4501"
       transform="translate(-107.61191,8.6587198)" /><path
       style="opacity:0.197605;fill:#000000;stroke:#000000;stroke-width:0.0657081;stroke-opacity:0.0148026"
       d="m 42.226481,21.609332 c -4.002837,-0.19119 -8.055401,1.398663 -10.785311,4.345974 -4.758234,4.485083 -5.66857,12.312574 -2.190895,17.823023 2.722495,4.563243 8.055136,7.556109 13.406084,7.04129 2.794686,0.04516 5.427233,-1.146505 7.731005,-2.628501 2.017843,-1.679783 3.952483,-3.607159 4.886007,-6.120336 1.442243,-2.929732 1.403515,-6.360979 0.807326,-9.501947 C 54.734056,27.291313 50.279209,22.952158 44.920857,21.871808 44.039512,21.656682 43.131729,21.5883 42.226481,21.609332 Z m -0.317485,10.866125 c 2.340837,-0.06168 4.148198,2.412762 3.57009,4.643425 -0.455148,2.67153 -4.189782,3.855567 -6.112004,1.943618 -2.023705,-1.695364 -1.510301,-5.510221 1.115101,-6.318454 0.453375,-0.177072 0.939656,-0.272217 1.426813,-0.268589 z"
       id="path4540"
       transform="translate(-107.61191,8.6587198)" /><path
       style="opacity:0.197605;fill:#000000;stroke:#000000;stroke-width:0.0657081;stroke-opacity:0.0148026"
       d="m 41.396267,21.597447 c -7.193724,-0.06761 -13.592552,6.114865 -14.202601,13.199213 -0.640302,5.942045 2.748768,12.046671 8.157131,14.606323 2.226818,1.168769 4.751914,1.6348 7.253822,1.424882 4.10587,-1.2e-5 8.026699,-2.214607 10.619056,-5.322293 2.275216,-2.72944 3.466541,-6.2962 3.248536,-9.847771 -0.02381,-5.999095 -4.367324,-11.590846 -10.047653,-13.387144 -1.615763,-0.539787 -3.332089,-0.706136 -5.028291,-0.67321 z m 0.496091,10.872917 c 2.52985,-0.03346 4.548221,2.901622 3.382995,5.216595 -0.83503,2.297304 -4.054161,3.060713 -5.841718,1.41425 -2.042521,-1.625985 -1.601122,-5.289372 0.850587,-6.287554 0.502102,-0.231041 1.055169,-0.350918 1.608136,-0.343291 z"
       id="path4579"
       transform="translate(-107.61191,8.6587198)" /><path
       style="opacity:0.197605;fill:#000000;stroke:#000000;stroke-width:0.0657081;stroke-opacity:0.0148026"
       d="m 41.205437,21.558059 c -6.540858,0.08251 -12.489009,5.220276 -13.747596,11.604659 -1.213642,5.357645 0.917552,11.258355 5.274342,14.604716 3.086248,2.568279 7.261007,3.555951 11.20532,3.001252 C 50.868458,49.959181 56.522698,43.518858 56.557995,36.559332 56.761617,30.199231 52.394656,23.986627 46.25189,22.206444 44.622723,21.697851 42.908558,21.502999 41.205437,21.558059 Z M 42.194223,32.5033 c 2.486911,0.198995 4.212855,3.219421 2.964322,5.432554 -1.062939,2.31077 -4.513177,2.698889 -6.125247,0.789128 -1.802311,-1.970732 -0.720026,-5.739354 2.045484,-6.12389 0.366723,-0.07313 0.742384,-0.09295 1.115441,-0.09779 z"
       id="path4618"
       transform="translate(-107.61191,8.6587198)" /><path
       style="opacity:0.197605;fill:#000000;stroke:#000000;stroke-width:0.0657081;stroke-opacity:0.0148026"
       d="m 41.205437,21.558059 c -6.540858,0.08251 -12.489009,5.220276 -13.747596,11.604659 -1.213642,5.357645 0.917552,11.258355 5.274342,14.604716 3.086248,2.568279 7.261007,3.555951 11.20532,3.001252 C 50.868458,49.959181 56.522698,43.518858 56.557995,36.559332 56.761617,30.199231 52.394656,23.986627 46.25189,22.206444 44.622723,21.697851 42.908558,21.502999 41.205437,21.558059 Z M 42.194223,32.5033 c 2.486911,0.198995 4.212855,3.219421 2.964322,5.432554 -1.062939,2.31077 -4.513177,2.698889 -6.125247,0.789128 -1.802311,-1.970732 -0.720026,-5.739354 2.045484,-6.12389 0.366723,-0.07313 0.742384,-0.09295 1.115441,-0.09779 z"
       id="path4657"
       transform="translate(-107.61191,8.6587198)" /><path
       style="opacity:0.197605;fill:#000000;stroke:#000000;stroke-width:0.0657081;stroke-opacity:0.0148026"
       d="m 41.65399,21.429027 c -5.980463,-0.01088 -11.620253,4.028824 -13.689852,9.613931 -1.108385,2.525544 -0.858919,5.3625 -0.656381,8.037878 1.027468,5.69871 5.764722,10.487801 11.436919,11.639294 5.007426,1.038005 10.539018,-0.617374 13.967628,-4.461764 2.822959,-2.975271 4.271109,-7.160661 3.834621,-11.247548 C 56.234578,29.188364 51.970113,23.855538 46.406848,22.154692 44.875381,21.65914 43.263737,21.411291 41.65399,21.429027 Z m 0.143972,11.188025 c 2.593283,-0.146079 4.625485,3.014747 3.247852,5.276697 -0.864363,1.884071 -3.340842,2.512651 -5.063797,1.418664 -2.158389,-1.115922 -2.433145,-4.541575 -0.393205,-5.926947 0.630227,-0.482147 1.415681,-0.755405 2.20915,-0.768414 z"
       id="path4696"
       transform="translate(-107.61191,8.6587198)" /><path
       style="opacity:0.197605;fill:#000000;stroke:#000000;stroke-width:0.0657081;stroke-opacity:0.0148026"
       d="m 41.292023,21.459248 c -3.194245,0.06553 -6.38269,1.28327 -8.82879,3.326968 -2.309243,1.989686 -4.154044,4.548125 -4.941717,7.521101 -0.59368,2.122848 -0.353555,4.38343 -0.24364,6.556882 0.885508,5.475984 5.229734,10.215737 10.590746,11.635559 6.135498,1.792532 13.212459,-0.94403 16.537889,-6.406898 1.968663,-2.990981 2.549723,-6.691551 2.040567,-10.199079 -0.761909,-5.026197 -4.303081,-9.580887 -9.070553,-11.417224 -1.928839,-0.761506 -4.019454,-1.043054 -6.084502,-1.017309 z m 0.505939,11.157804 c 2.593283,-0.146079 4.625485,3.014747 3.247852,5.276697 -0.864363,1.884071 -3.340842,2.512651 -5.063797,1.418664 -2.158389,-1.115922 -2.433145,-4.541575 -0.393205,-5.926947 0.630227,-0.482147 1.415681,-0.755405 2.20915,-0.768414 z"
       id="path4735"
       transform="translate(-107.61191,8.6587198)" /><path
       style="opacity:0.197605;fill:#000000;stroke:#000000;stroke-width:0.0657081;stroke-opacity:0.0148026"
       d="M 62.359764,-0.20644993 C 57.805961,0.90081758 52.987778,1.2328184 48.691624,3.2210264 45.674501,4.6221172 43.369543,7.191533 41.836671,10.100427 39.888494,6.6715744 36.998427,3.5743371 33.124348,2.4060925 29.193875,1.2314525 25.11134,0.57864609 21.093334,-0.16960071 20.331419,0.42334962 20.284998,1.6302832 19.845339,2.4692498 18.363674,6.9687107 16.217352,11.517528 16.707164,16.377116 c 0.231923,2.404702 1.294608,4.729506 2.460762,6.744596 -3.001376,0.04113 -6.122373,0.480294 -8.718436,2.127318 -4.3196098,2.716834 -7.0534285,7.186778 -10.61994701,10.72521 -0.22738583,0.864684 0.97114816,1.347914 1.39852201,2.030438 2.9693901,3.13079 5.4936506,6.81346 9.139593,9.217347 2.634651,1.622245 5.775642,2.057648 8.812831,2.154821 -2.658091,3.960767 -3.252663,9.134235 -1.657252,13.618578 0.979995,3.186961 2.055409,6.360689 3.156391,9.498722 0.755358,0.54615 1.658529,-0.213835 2.479437,-0.219353 5.116643,-1.163884 10.901058,-1.458917 15.021608,-5.119484 1.497531,-1.349768 2.627326,-3.043664 3.658715,-4.760911 1.4621,2.528641 3.438953,4.864222 5.944943,6.399269 4.536674,2.473577 9.843677,2.633308 14.751662,3.931037 0.972566,-0.344862 0.82723,-1.88843 1.323322,-2.726717 1.154352,-3.824715 2.946952,-7.558164 3.169002,-11.598463 0.190223,-3.185694 -0.800146,-6.348326 -2.517128,-9.01317 3.624014,-0.04439 7.391605,-0.848133 10.232853,-3.229176 3.460252,-2.765293 5.982404,-6.468725 9.038298,-9.639309 0.134112,-1.012989 -1.230787,-1.643022 -1.714418,-2.488604 -3.396423,-3.644526 -6.362023,-8.272568 -11.305069,-9.960772 -2.00509,-0.746499 -4.157956,-0.972514 -6.285619,-0.910788 1.641938,-2.777138 2.813232,-5.94634 2.53146,-9.220507 C 66.969284,10.902614 65.574268,8.1129369 64.77995,5.2335073 64.090494,3.4748715 63.765334,1.5079286 62.748555,-0.09405696 62.642469,-0.18357042 62.498644,-0.23002637 62.359764,-0.20644993 Z"
       id="path4774"
       transform="translate(-107.61191,8.6587198)" /></g></svg>
